<svg width="170" height="53" viewBox="0 0 170 53" fill="none" xmlns="http://www.w3.org/2000/svg">
<path d="M164.688 53H5.3125C2.39062 53 0 50.615 0 47.7V5.3C0 2.385 2.39062 0 5.3125 0H164.688C167.609 0 170 2.385 170 5.3V47.7C170 50.615 167.609 53 164.688 53Z" fill="black"/>
<path d="M13.0156 25.9701V12.0576C13.0156 11.2626 13.6797 10.6001 14.3437 10.6001C15.0078 10.6001 15.2734 10.7326 15.6719 10.9976L41.3047 25.0426C41.8359 25.3076 42.1016 25.7051 42.1016 26.1026C42.1016 26.5001 41.8359 26.8976 41.3047 27.1626L15.6719 41.2076C15.4062 41.3401 15.0078 41.6051 14.3437 41.6051C13.6797 41.6051 13.0156 40.9426 13.0156 40.1476V25.9701Z" fill="url(#paint0_linear_528_789)"/>
<path d="M29.6172 26.1026L14.0781 10.6001H14.3437C15.0078 10.6001 15.2734 10.7326 15.6719 10.9976L34.5312 21.3326L29.6172 26.1026Z" fill="url(#paint1_linear_528_789)"/>
<path d="M34.3984 30.7399L29.6172 25.9699L34.5313 21.0674L41.3047 24.7774C41.8359 25.0424 42.1016 25.4399 42.1016 25.8374C42.1016 26.2349 41.8359 26.6324 41.3047 26.8974L34.3984 30.7399Z" fill="url(#paint2_linear_528_789)"/>
<path d="M14.2109 41.3397L29.6172 25.9697L34.3984 30.7397L15.6719 40.9422C15.2734 41.2072 15.0078 41.3397 14.2109 41.3397C14.3438 41.3397 14.3438 41.3397 14.2109 41.3397Z" fill="url(#paint3_linear_528_789)"/>
<path d="M94.4297 44.9176C93.7656 44.3876 93.2344 43.4601 92.9688 42.9301L95.0938 42.0026C95.2266 42.2676 95.4922 42.6651 95.7578 43.0626C96.2891 43.5926 97.086 44.1226 97.8828 44.1226C98.6797 44.1226 99.6094 43.7251 100.141 43.0626C100.539 42.4001 100.805 41.7376 100.805 40.8101V40.0151C99.211 42.0026 95.8906 41.7376 94.0313 39.6176C92.0391 37.4976 92.0391 33.9201 94.0313 31.8001C96.0235 29.8126 98.9453 29.5476 100.672 31.4026V30.4751H102.93V40.4126C102.93 42.9301 102 44.3876 100.805 45.3151C100.008 45.9776 98.8125 46.2426 97.75 46.2426C96.5547 46.1101 95.3594 45.7126 94.4297 44.9176ZM150.078 45.4476L152.336 40.1476L148.352 31.0051H150.609L153.398 37.4976L156.188 31.0051H158.445L152.336 45.4476H150.078ZM139.32 40.4126C138.656 39.7501 138.391 38.8226 138.391 37.8951C138.391 37.1001 138.656 36.3051 139.188 35.7751C140.117 34.8476 141.445 34.4501 142.906 34.4501C143.836 34.4501 144.633 34.5826 145.297 34.9801C145.297 33.3901 143.969 32.7276 142.906 32.7276C141.977 32.7276 141.047 33.2576 140.648 34.1851L138.656 33.3901C139.055 32.4626 140.117 30.7401 142.773 30.7401C144.102 30.7401 145.43 31.1376 146.227 32.0651C147.023 32.9926 147.289 34.0526 147.289 35.5101V41.0751H145.031V40.1476C144.766 40.5451 144.234 40.8101 143.836 41.0751C143.305 41.3401 142.641 41.4726 141.977 41.4726C141.18 41.3401 139.984 41.0751 139.32 40.4126ZM68.5313 35.6426C68.5313 32.9926 70.5235 30.0776 74.1094 30.0776C77.5625 30.0776 79.6875 32.9926 79.6875 35.6426C79.6875 38.2926 77.6953 41.2076 74.1094 41.2076C70.5235 41.2076 68.5313 38.2926 68.5313 35.6426ZM80.4844 35.6426C80.4844 32.9926 82.4766 30.0776 86.0625 30.0776C89.5156 30.0776 91.6406 32.9926 91.6406 35.6426C91.6406 38.2926 89.6485 41.2076 86.0625 41.2076C82.6094 41.2076 80.4844 38.2926 80.4844 35.6426ZM53.5235 38.5576C50.2031 35.2451 50.336 29.8126 53.6563 26.3676C55.3828 24.6451 57.5078 23.8501 59.7656 23.8501C61.8906 23.8501 64.0156 24.6451 65.6094 26.2351L64.0156 27.9576C61.625 25.5726 57.7735 25.7051 55.5156 28.0901C53.125 30.6076 53.125 34.4501 55.5156 36.9676C57.9063 39.4851 61.8906 39.6176 64.2813 37.1001C65.0781 36.3051 65.3438 35.2451 65.4766 34.1851H59.8985V31.8001H67.7344C67.8672 32.3301 67.8672 32.9926 67.8672 33.6551C67.8672 35.6426 67.0703 37.6301 65.7422 38.9551C64.2813 40.4126 62.1563 41.2076 60.0313 41.2076C57.6406 41.0751 55.25 40.2801 53.5235 38.5576ZM109.703 39.4851C107.711 37.3651 107.711 33.7876 109.703 31.5351C111.695 29.4151 115.016 29.4151 116.875 31.5351C117.539 32.1976 117.938 33.1251 118.336 34.0526L111.031 37.1001C111.43 38.0276 112.359 38.8226 113.688 38.8226C114.883 38.8226 115.68 38.4251 116.477 37.2326L118.469 38.5576C118.203 38.8226 117.938 39.0876 117.805 39.3526C115.547 41.6051 111.695 41.6051 109.703 39.4851ZM123.516 41.0751V26.3676H128.297C131.086 26.3676 133.344 28.3551 133.344 30.7401C133.344 33.1251 131.352 35.1126 128.828 35.1126H125.906V40.9426H123.516V41.0751ZM134.672 41.0751V26.3676H136.93V41.0751H134.672ZM104.656 40.8101V24.3801H107.047V40.8101H104.656ZM145.164 36.7026C144.633 36.3051 143.836 36.1726 143.039 36.1726C141.445 36.1726 140.516 36.9676 140.516 37.8951C140.516 38.8226 141.445 39.3526 142.375 39.3526C143.703 39.3526 145.164 38.2926 145.164 36.7026ZM77.1641 35.6426C77.1641 34.0526 76.1016 32.3301 74.1094 32.3301C72.1172 32.3301 71.0547 34.0526 71.0547 35.6426C71.0547 37.2326 72.1172 38.9551 74.1094 38.9551C75.9688 38.9551 77.1641 37.2326 77.1641 35.6426ZM89.1172 35.6426C89.1172 34.0526 88.0547 32.3301 86.0625 32.3301C84.0703 32.3301 83.0078 34.0526 83.0078 35.6426C83.0078 37.2326 84.0703 38.9551 86.0625 38.9551C88.0547 38.9551 89.1172 37.2326 89.1172 35.6426ZM100.938 36.5701C100.938 36.4376 100.938 36.3051 101.07 36.1726V34.9801C101.07 34.8476 100.938 34.5826 100.938 34.4501C100.539 33.1251 99.3438 32.1976 98.1485 32.1976C96.5547 32.1976 95.2266 33.7876 95.2266 35.5101C95.2266 37.3651 96.5547 38.8226 98.2813 38.8226C99.3438 38.9551 100.406 38.0276 100.938 36.5701ZM110.633 35.3776L115.547 33.2576C115.016 32.3301 114.219 32.0651 113.555 32.0651C111.563 32.1976 110.367 34.3176 110.633 35.3776ZM130.953 30.8726C130.953 29.5476 129.891 28.6201 128.43 28.6201H125.773V33.2576H128.563C129.891 33.2576 130.953 32.1976 130.953 30.8726Z" fill="white"/>
<path d="M151.805 42.7972H151.672V42.6647H151.805H151.672V42.7972H151.805ZM151.805 42.7972C151.805 42.6647 151.805 42.6647 151.805 42.7972C151.805 42.6647 151.805 42.6647 151.805 42.7972ZM151.805 42.7972V42.6647V42.7972ZM151.805 42.6647V42.7972V42.6647ZM151.805 42.7972V42.6647V42.7972ZM151.805 42.7972C151.805 42.6647 151.805 42.6647 151.805 42.7972V42.7972ZM151.805 42.7972C151.805 42.6647 151.805 42.6647 151.805 42.7972V42.7972ZM151.937 42.7972C151.937 42.6647 151.937 42.6647 151.937 42.7972C151.937 42.6647 151.937 42.6647 151.937 42.7972C151.937 42.6647 151.937 42.6647 151.937 42.7972ZM151.937 42.7972C151.937 42.6647 151.937 42.6647 151.937 42.7972V42.7972ZM151.937 42.6647V42.7972V42.6647ZM151.937 42.7972V42.6647V42.7972ZM151.937 42.7972C151.937 42.6647 151.937 42.6647 151.937 42.7972C151.937 42.6647 151.937 42.6647 151.937 42.7972ZM151.937 42.6647C151.937 42.7972 151.937 42.7972 151.937 42.6647C151.937 42.7972 151.937 42.7972 151.937 42.6647ZM151.937 42.7972C151.937 42.6647 151.937 42.6647 151.937 42.7972C151.937 42.6647 151.937 42.6647 151.937 42.7972C151.937 42.6647 151.937 42.6647 151.937 42.7972C151.937 42.6647 151.937 42.6647 151.937 42.7972ZM152.07 42.7972C152.07 42.6647 152.07 42.6647 152.07 42.7972C151.937 42.6647 151.937 42.6647 152.07 42.7972C151.937 42.7972 151.937 42.7972 152.07 42.7972ZM152.07 42.6647C152.07 42.7972 152.07 42.7972 152.07 42.6647C152.07 42.7972 151.937 42.7972 152.07 42.6647C151.937 42.6647 152.07 42.6647 152.07 42.6647ZM152.07 42.7972V42.6647V42.7972V42.6647V42.7972V42.6647V42.7972ZM152.07 42.7972C152.07 42.6647 152.07 42.6647 152.07 42.7972C152.07 42.6647 152.07 42.6647 152.07 42.7972C152.07 42.6647 152.07 42.6647 152.07 42.7972C152.07 42.6647 152.07 42.6647 152.07 42.7972C152.07 42.6647 152.07 42.6647 152.07 42.7972C152.07 42.6647 152.07 42.6647 152.07 42.7972C152.07 42.6647 152.07 42.6647 152.07 42.7972C152.07 42.6647 152.07 42.6647 152.07 42.7972ZM152.203 42.6647H152.07H152.203V42.7972V42.6647ZM152.203 42.7972V42.6647V42.7972ZM152.203 42.7972C152.203 42.6647 152.203 42.6647 152.203 42.7972C152.203 42.6647 152.203 42.6647 152.203 42.7972ZM55.894 13.263H58.9978V13.5108C58.9978 14.0739 58.9314 14.5708 58.7986 15.0054C58.6595 15.4216 58.4362 15.805 58.1425 16.1316C57.4452 16.9134 56.5594 17.3069 55.4823 17.3069C54.433 17.3069 53.5299 16.9279 52.7822 16.1714C52.4197 15.8144 52.1332 15.388 51.9402 14.9178C51.7471 14.4476 51.6513 13.9433 51.6586 13.4352C51.6586 12.3487 52.0398 11.4265 52.8008 10.67C53.5631 9.90941 54.4902 9.53046 55.5832 9.53046C56.1716 9.53046 56.7187 9.64971 57.2301 9.88821C57.7148 10.1294 58.1943 10.5176 58.6645 11.0542L57.857 11.8254C57.2407 11.0078 56.489 10.5971 55.6045 10.5971C54.8102 10.5971 54.1435 10.8714 53.6056 11.4186C53.0691 11.9539 52.8008 12.627 52.8008 13.4352C52.8008 14.27 53.1009 14.959 53.6999 15.4983C54.263 16.0018 54.8713 16.2495 55.5261 16.2495C56.0786 16.2513 56.6125 16.051 57.0269 15.6864C57.4731 15.3075 57.7202 14.8543 57.7733 14.327H55.9006V13.2617L55.894 13.263ZM64.5666 10.7349H61.5558V12.5342H64.4777V13.5982H61.5558V16.1025H64.5666V17.1651H60.4229V9.67223H64.5666V10.7349ZM68.126 10.7349V17.1651H66.9931V10.7349H65.2666V9.67223H69.8486V10.7349H68.126ZM75.0655 9.67223V17.1638H73.9326V9.67223H75.0668H75.0655ZM78.9436 10.7349V17.1651H77.8094V10.7349H76.0828V9.67223H80.6648V10.7349H78.9423H78.9436ZM84.3756 13.3849C84.3756 12.3302 84.7634 11.4239 85.5377 10.6686C85.9004 10.3014 86.334 10.0113 86.8122 9.81591C87.2905 9.62052 87.8034 9.52386 88.3202 9.53178C89.3906 9.53178 90.3084 9.91338 91.0734 10.6766C91.4438 11.0321 91.7373 11.4596 91.9356 11.9327C92.1339 12.4058 92.2328 12.9145 92.2262 13.4273C92.2353 13.9395 92.1373 14.448 91.9384 14.9202C91.7394 15.3925 91.4439 15.8182 91.0707 16.17C90.7028 16.5369 90.2645 16.826 89.7822 17.0202C89.2998 17.2144 88.7831 17.3096 88.263 17.3003C87.2935 17.3003 86.4236 16.965 85.6519 16.2959C84.8019 15.5539 84.3769 14.5827 84.3769 13.3836L84.3756 13.3849ZM85.5178 13.3981C85.5178 14.2276 85.7967 14.9086 86.3545 15.4426C86.9123 15.9753 87.5498 16.2429 88.2777 16.2429C88.6481 16.2507 89.0162 16.1823 89.359 16.0419C89.7018 15.9014 90.0118 15.692 90.2698 15.4267C90.8144 14.8768 91.0827 14.2077 91.0827 13.4167C91.0827 12.6177 90.817 11.9486 90.2805 11.4067C89.7492 10.8634 89.0905 10.5918 88.3055 10.5918C87.9372 10.584 87.5712 10.6524 87.2306 10.7926C86.8901 10.9329 86.5823 11.1419 86.3266 11.4067C85.7874 11.9459 85.5165 12.6084 85.5165 13.3981H85.5178ZM93.6526 17.1651V9.16211L99.1284 14.8795V9.67223H100.263V17.6196L94.7881 11.9181V17.1651H93.6526Z" fill="white"/>
<defs>
<linearGradient id="paint0_linear_528_789" x1="21.5927" y1="8.7133" x2="28.9945" y2="39.1844" gradientUnits="userSpaceOnUse">
<stop stop-color="#006884"/>
<stop offset="1" stop-color="#8AD1D0"/>
</linearGradient>
<linearGradient id="paint1_linear_528_789" x1="12.5189" y1="13.0778" x2="32.7592" y2="24.0463" gradientUnits="userSpaceOnUse">
<stop stop-color="#24BBB6"/>
<stop offset="1" stop-color="#DBE692"/>
</linearGradient>
<linearGradient id="paint2_linear_528_789" x1="35.8594" y1="31.2964" x2="35.8594" y2="20.7653" gradientUnits="userSpaceOnUse">
<stop stop-color="#FCC072"/>
<stop offset="1" stop-color="#F58A5B"/>
</linearGradient>
<linearGradient id="paint3_linear_528_789" x1="16.4223" y1="44.0427" x2="32.3905" y2="27.754" gradientUnits="userSpaceOnUse">
<stop stop-color="#712B8F"/>
<stop offset="1" stop-color="#EA1D27"/>
</linearGradient>
</defs>
</svg>
