<svg width="34" height="34" viewBox="0 0 34 34" fill="none" xmlns="http://www.w3.org/2000/svg">
<path d="M20.0333 33.6663H13.9666C13.5865 33.6664 13.2178 33.5365 12.9216 33.2983C12.6255 33.06 12.4196 32.7276 12.3383 32.3563L11.66 29.2163C10.7551 28.8198 9.89703 28.324 9.10164 27.738L6.03997 28.713C5.67757 28.8286 5.28655 28.8167 4.93184 28.6794C4.57712 28.542 4.28006 28.2875 4.08997 27.958L1.04997 22.7063C0.861879 22.3766 0.791274 21.9927 0.849707 21.6176C0.90814 21.2425 1.09215 20.8983 1.37164 20.6413L3.74664 18.4747C3.63863 17.4932 3.63863 16.5028 3.74664 15.5213L1.37164 13.3597C1.09176 13.1026 0.907494 12.7581 0.849052 12.3826C0.790609 12.0072 0.861452 11.623 1.04997 11.293L4.0833 6.03801C4.27339 5.70853 4.57045 5.45399 4.92517 5.31665C5.27989 5.17932 5.67091 5.16744 6.0333 5.28301L9.09497 6.25801C9.50164 5.95801 9.92497 5.67801 10.3616 5.42467C10.7833 5.18801 11.2166 4.97301 11.66 4.78134L12.34 1.64467C12.4209 1.27334 12.6264 0.940821 12.9222 0.702256C13.2181 0.463691 13.5866 0.333408 13.9666 0.333008H20.0333C20.4134 0.333408 20.7819 0.463691 21.0777 0.702256C21.3736 0.940821 21.579 1.27334 21.66 1.64467L22.3466 4.78301C23.2504 5.18179 24.1082 5.67747 24.905 6.26134L27.9683 5.28634C28.3305 5.1712 28.7211 5.18329 29.0755 5.32061C29.4298 5.45793 29.7266 5.71222 29.9166 6.04134L32.95 11.2963C33.3366 11.9747 33.2033 12.833 32.6283 13.3613L30.2533 15.528C30.3613 16.5095 30.3613 17.4999 30.2533 18.4813L32.6283 20.648C33.2033 21.178 33.3366 22.0347 32.95 22.713L29.9166 27.968C29.7265 28.2975 29.4295 28.552 29.0748 28.6894C28.7201 28.8267 28.329 28.8386 27.9666 28.723L24.905 27.748C24.1102 28.3336 23.2527 28.8289 22.3483 29.2247L21.66 32.3563C21.5787 32.7274 21.3731 33.0595 21.0773 33.2977C20.7815 33.536 20.4131 33.666 20.0333 33.6663ZM16.9933 10.333C15.2252 10.333 13.5295 11.0354 12.2793 12.2856C11.029 13.5359 10.3266 15.2316 10.3266 16.9997C10.3266 18.7678 11.029 20.4635 12.2793 21.7137C13.5295 22.964 15.2252 23.6663 16.9933 23.6663C18.7614 23.6663 20.4571 22.964 21.7073 21.7137C22.9576 20.4635 23.66 18.7678 23.66 16.9997C23.66 15.2316 22.9576 13.5359 21.7073 12.2856C20.4571 11.0354 18.7614 10.333 16.9933 10.333Z" fill="url(#paint0_linear_660_752)"/>
<defs>
<linearGradient id="paint0_linear_660_752" x1="16.9995" y1="0.333008" x2="16.9995" y2="33.6663" gradientUnits="userSpaceOnUse">
<stop stop-color="#3FB2ED"/>
<stop offset="1" stop-color="#62D1E6"/>
</linearGradient>
</defs>
</svg>
