<svg aria-hidden="true" style="position: absolute; width: 0; height: 0; overflow: hidden;" version="1.1" xmlns="http://www.w3.org/2000/svg" xmlns:xlink="http://www.w3.org/1999/xlink">
<defs>
<symbol id="icon-favorite" viewBox="0 0 34 32">
<path fill="#e37683" style="#e9a283" d="M17.067 30.933l-2.223-2.001c-2.962-2.637-5.407-4.896-7.332-6.778s-3.445-3.556-4.557-5.022c-1.111-1.466-1.881-2.807-2.31-4.021s-0.644-2.459-0.644-3.733c0-2.637 0.904-4.859 2.711-6.667s4.030-2.711 6.667-2.711c1.452 0 2.859 0.311 4.222 0.934 1.363 0.622 2.518 1.495 3.467 2.622 0.949-1.126 2.104-2 3.467-2.622 1.363-0.623 2.77-0.934 4.222-0.934 2.637 0 4.859 0.904 6.667 2.711s2.711 4.030 2.711 6.667c0 1.274-0.208 2.504-0.623 3.689-0.414 1.185-1.177 2.503-2.289 3.955-1.111 1.452-2.636 3.134-4.576 5.045-1.941 1.911-4.423 4.23-7.445 6.955l-2.133 1.911z"></path>
</symbol>
<symbol id="icon-bus" viewBox="0 0 32 32">
<path fill="#fff" style="fill: var(--color1, #fff)" d="M8.834 27.334c-0.245 0-0.45-0.072-0.617-0.217s-0.25-0.339-0.25-0.583v-2.667c-0.533-0.267-0.994-0.717-1.383-1.35s-0.583-1.339-0.583-2.117v-12.7c0-1.511 0.8-2.617 2.4-3.317s4.133-1.050 7.6-1.050c3.533 0 6.083 0.344 7.65 1.033s2.35 1.8 2.35 3.334v12.7c0 0.778-0.194 1.483-0.583 2.117s-0.85 1.083-1.383 1.35v2.667c0 0.244-0.083 0.439-0.25 0.583s-0.372 0.217-0.617 0.217h-0.466c-0.267 0-0.489-0.072-0.666-0.217s-0.267-0.339-0.267-0.583v-1.9h-11.533v1.9c0 0.244-0.089 0.439-0.267 0.583s-0.4 0.217-0.666 0.217h-0.466zM7.666 14.466h16.667v-5.833h-16.667v5.833zM11.1 21.2c0.467 0 0.861-0.161 1.183-0.483s0.483-0.717 0.483-1.183c0-0.445-0.161-0.834-0.483-1.167s-0.717-0.5-1.183-0.5c-0.467 0-0.861 0.167-1.183 0.5s-0.483 0.722-0.483 1.167c0 0.467 0.167 0.861 0.5 1.183s0.722 0.483 1.166 0.483zM20.9 21.2c0.467 0 0.861-0.161 1.183-0.483s0.483-0.717 0.483-1.183c0-0.445-0.167-0.834-0.5-1.167s-0.722-0.5-1.166-0.5c-0.467 0-0.861 0.167-1.183 0.5s-0.483 0.722-0.483 1.167c0 0.467 0.161 0.861 0.483 1.183s0.717 0.483 1.183 0.483zM7.766 6.966h16.5c-0.378-0.644-1.239-1.133-2.583-1.466s-3.228-0.5-5.65-0.5c-2.622 0-4.578 0.161-5.867 0.483s-2.089 0.817-2.4 1.483zM10.366 22.966h11.267c0.755 0 1.394-0.283 1.917-0.85s0.783-1.228 0.783-1.983v-4h-16.667v4c0 0.755 0.261 1.416 0.783 1.983s1.162 0.85 1.917 0.85z"></path>
</symbol>
<symbol id="icon-car" viewBox="0 0 32 32">
<path fill="#fff" style="fill: var(--color1, #fff)" d="M6.834 24.6v1.9c0 0.244-0.078 0.444-0.234 0.6s-0.356 0.234-0.6 0.234h-0.5c-0.244 0-0.444-0.078-0.6-0.234s-0.234-0.356-0.234-0.6v-10.3l2.734-8.034c0.089-0.244 0.245-0.444 0.466-0.6s0.478-0.233 0.767-0.233h14.8c0.267 0 0.506 0.072 0.717 0.217s0.361 0.349 0.45 0.616l2.734 8.034v10.3c0 0.244-0.078 0.444-0.234 0.6s-0.356 0.234-0.6 0.234h-0.5c-0.244 0-0.444-0.078-0.6-0.234s-0.234-0.356-0.234-0.6v-1.9h-18.333zM7 14.534h18l-1.9-5.534h-14.2l-1.9 5.534zM9.734 21.234c0.467 0 0.855-0.161 1.166-0.483s0.466-0.717 0.466-1.184-0.161-0.861-0.483-1.183c-0.322-0.322-0.705-0.483-1.15-0.483-0.467 0-0.867 0.161-1.2 0.483s-0.5 0.717-0.5 1.183c0 0.467 0.167 0.861 0.5 1.184s0.733 0.483 1.2 0.483zM22.3 21.234c0.467 0 0.861-0.161 1.183-0.483s0.483-0.717 0.483-1.184-0.161-0.861-0.483-1.183c-0.322-0.322-0.717-0.483-1.183-0.483s-0.861 0.161-1.183 0.483c-0.322 0.322-0.483 0.717-0.483 1.183s0.167 0.861 0.5 1.184c0.333 0.322 0.722 0.483 1.166 0.483zM6.334 22.934h19.333v-6.734h-19.333v6.734z"></path>
</symbol>
<symbol id="icon-corona-big" viewBox="0 0 32 32">
<path d="M12 1.5c0-0.831 0.669-1.5 1.5-1.5h5c0.831 0 1.5 0.669 1.5 1.5s-0.669 1.5-1.5 1.5h-1v2.1c1.919 0.262 3.675 1.019 5.144 2.131l1.487-1.481-0.706-0.713c-0.587-0.588-0.587-1.538 0-2.119s1.538-0.587 2.119 0l3.538 3.538c0.587 0.588 0.587 1.537 0 2.119s-1.538 0.587-2.119 0l-0.712-0.706-1.488 1.487c1.119 1.469 1.869 3.231 2.131 5.144h2.106v-1c0-0.831 0.669-1.5 1.5-1.5s1.5 0.669 1.5 1.5v5c0 0.831-0.669 1.5-1.5 1.5s-1.5-0.669-1.5-1.5v-1h-2.1c-0.262 1.919-1.019 3.675-2.131 5.144l1.481 1.487 0.706-0.706c0.587-0.587 1.538-0.587 2.119 0s0.587 1.538 0 2.119l-3.538 3.538c-0.587 0.587-1.538 0.587-2.119 0s-0.587-1.538 0-2.119l0.713-0.712-1.487-1.488c-1.469 1.119-3.231 1.869-5.144 2.131v2.106h1c0.831 0 1.5 0.669 1.5 1.5s-0.669 1.5-1.5 1.5h-5c-0.831 0-1.5-0.669-1.5-1.5s0.669-1.5 1.5-1.5h1v-2.1c-1.919-0.262-3.675-1.019-5.144-2.131l-1.487 1.481 0.706 0.706c0.587 0.587 0.587 1.538 0 2.119s-1.537 0.587-2.119 0l-3.538-3.531c-0.587-0.587-0.587-1.538 0-2.119s1.538-0.587 2.119 0l0.713 0.706 1.488-1.487c-1.119-1.469-1.875-3.225-2.138-5.144h-2.1v1c0 0.831-0.669 1.5-1.5 1.5s-1.5-0.669-1.5-1.5v-5c0-0.831 0.669-1.5 1.5-1.5s1.5 0.669 1.5 1.5v1h2.1c0.262-1.919 1.019-3.675 2.131-5.144l-1.481-1.487-0.713 0.706c-0.588 0.587-1.538 0.587-2.119 0s-0.587-1.537 0-2.119l3.538-3.538c0.588-0.587 1.537-0.587 2.119 0s0.587 1.538 0 2.119l-0.706 0.713 1.487 1.488c1.469-1.119 3.231-1.869 5.144-2.131v-2.106h-1c-0.831 0-1.5-0.669-1.5-1.5zM15 14c0-1.656-1.344-3-3-3s-3 1.344-3 3c0 1.656 1.344 3 3 3s3-1.344 3-3zM19 20.5c0.831 0 1.5-0.669 1.5-1.5s-0.669-1.5-1.5-1.5c-0.831 0-1.5 0.669-1.5 1.5s0.669 1.5 1.5 1.5z"></path>
</symbol>
<symbol id="icon-corona-medium" viewBox="0 0 32 32">
<path d="M12 1.5c0-0.831 0.669-1.5 1.5-1.5h5c0.831 0 1.5 0.669 1.5 1.5s-0.669 1.5-1.5 1.5h-1v2.1c1.919 0.263 3.675 1.019 5.144 2.131l1.487-1.481-0.706-0.713c-0.588-0.588-0.588-1.538 0-2.119s1.537-0.587 2.119 0l3.538 3.538c0.587 0.588 0.587 1.537 0 2.119s-1.538 0.588-2.119 0l-0.712-0.706-1.487 1.487c1.119 1.469 1.869 3.231 2.131 5.144h2.106v-1c0-0.831 0.669-1.5 1.5-1.5s1.5 0.669 1.5 1.5v5c0 0.831-0.669 1.5-1.5 1.5s-1.5-0.669-1.5-1.5v-1h-2.1c-0.262 1.919-1.019 3.675-2.131 5.144l1.481 1.487 0.706-0.706c0.587-0.588 1.537-0.588 2.119 0s0.587 1.537 0 2.119l-3.537 3.538c-0.588 0.587-1.538 0.587-2.119 0s-0.587-1.538 0-2.119l0.712-0.712-1.487-1.487c-1.469 1.119-3.231 1.869-5.144 2.131v2.106h1c0.831 0 1.5 0.669 1.5 1.5s-0.669 1.5-1.5 1.5h-5c-0.831 0-1.5-0.669-1.5-1.5s0.669-1.5 1.5-1.5h1v-2.1c-1.919-0.262-3.675-1.019-5.144-2.131l-1.487 1.481 0.706 0.706c0.588 0.587 0.588 1.537 0 2.119s-1.537 0.587-2.119 0l-3.538-3.531c-0.587-0.587-0.587-1.537 0-2.119s1.538-0.588 2.119 0l0.713 0.706 1.487-1.487c-1.119-1.469-1.875-3.225-2.138-5.144h-2.1v1c0 0.831-0.669 1.5-1.5 1.5s-1.5-0.669-1.5-1.5v-5c0-0.831 0.669-1.5 1.5-1.5s1.5 0.669 1.5 1.5v1h2.1c0.263-1.919 1.019-3.675 2.131-5.144l-1.481-1.487-0.713 0.706c-0.588 0.588-1.538 0.588-2.119 0s-0.587-1.537 0-2.119l3.538-3.538c0.588-0.587 1.537-0.587 2.119 0s0.588 1.538 0 2.119l-0.706 0.713 1.487 1.487c1.469-1.119 3.231-1.869 5.144-2.131v-2.106h-1c-0.831 0-1.5-0.669-1.5-1.5zM15 14c0-1.656-1.344-3-3-3s-3 1.344-3 3c0 1.656 1.344 3 3 3s3-1.344 3-3zM19 20.5c0.831 0 1.5-0.669 1.5-1.5s-0.669-1.5-1.5-1.5c-0.831 0-1.5 0.669-1.5 1.5s0.669 1.5 1.5 1.5z"></path>
</symbol>
<symbol id="icon-corona-small" viewBox="0 0 32 32">
<path d="M12 1.5c0-0.831 0.669-1.5 1.5-1.5h5c0.831 0 1.5 0.669 1.5 1.5s-0.669 1.5-1.5 1.5h-1v2.1c1.919 0.263 3.675 1.019 5.144 2.131l1.487-1.481-0.706-0.713c-0.587-0.588-0.587-1.538 0-2.119s1.538-0.587 2.119 0l3.538 3.538c0.587 0.588 0.587 1.537 0 2.119s-1.538 0.588-2.119 0l-0.712-0.706-1.488 1.487c1.119 1.469 1.869 3.231 2.131 5.144h2.106v-1c0-0.831 0.669-1.5 1.5-1.5s1.5 0.669 1.5 1.5v5c0 0.831-0.669 1.5-1.5 1.5s-1.5-0.669-1.5-1.5v-1h-2.1c-0.263 1.919-1.019 3.675-2.131 5.144l1.481 1.487 0.706-0.706c0.587-0.587 1.538-0.587 2.119 0s0.587 1.538 0 2.119l-3.538 3.538c-0.587 0.587-1.538 0.587-2.119 0s-0.587-1.538 0-2.119l0.712-0.712-1.487-1.488c-1.469 1.119-3.231 1.869-5.144 2.131v2.106h1c0.831 0 1.5 0.669 1.5 1.5s-0.669 1.5-1.5 1.5h-5c-0.831 0-1.5-0.669-1.5-1.5s0.669-1.5 1.5-1.5h1v-2.1c-1.919-0.263-3.675-1.019-5.144-2.131l-1.487 1.481 0.706 0.706c0.588 0.587 0.588 1.538 0 2.119s-1.537 0.587-2.119 0l-3.538-3.531c-0.587-0.587-0.587-1.538 0-2.119s1.538-0.587 2.119 0l0.713 0.706 1.487-1.487c-1.119-1.469-1.875-3.225-2.138-5.144h-2.1v1c0 0.831-0.669 1.5-1.5 1.5s-1.5-0.669-1.5-1.5v-5c0-0.831 0.669-1.5 1.5-1.5s1.5 0.669 1.5 1.5v1h2.1c0.263-1.919 1.019-3.675 2.131-5.144l-1.481-1.487-0.713 0.706c-0.588 0.588-1.538 0.588-2.119 0s-0.587-1.537 0-2.119l3.538-3.538c0.588-0.587 1.537-0.587 2.119 0s0.588 1.538 0 2.119l-0.706 0.713 1.487 1.487c1.469-1.119 3.231-1.869 5.144-2.131v-2.106h-1c-0.831 0-1.5-0.669-1.5-1.5zM15 14c0-1.656-1.344-3-3-3s-3 1.344-3 3c0 1.656 1.344 3 3 3s3-1.344 3-3zM19 20.5c0.831 0 1.5-0.669 1.5-1.5s-0.669-1.5-1.5-1.5c-0.831 0-1.5 0.669-1.5 1.5s0.669 1.5 1.5 1.5z"></path>
</symbol>
<symbol id="icon-appStore" viewBox="0 0 108 32">
<path fill="#000" style="fill: var(--color1, #000)" d="M104.231 0h-100.444c-1.004 0.001-1.966 0.399-2.676 1.108s-1.109 1.67-1.111 2.673v24.432c0.001 1.003 0.401 1.966 1.11 2.675s1.672 1.11 2.676 1.112h100.444c2.086 0 3.845-1.702 3.845-3.786v-24.432c0-2.086-1.759-3.782-3.845-3.782z"></path>
<path fill="#fff" style="fill: var(--color2, #fff)" d="M24.119 15.827c-0.024-2.578 2.113-3.832 2.21-3.891-1.209-1.762-3.084-2.003-3.743-2.022-1.575-0.166-3.102 0.942-3.904 0.942-0.818 0-2.053-0.926-3.385-0.899-1.713 0.026-3.316 1.018-4.195 2.557-1.814 3.138-0.461 7.75 1.277 10.288 0.869 1.242 1.885 2.629 3.215 2.58 1.3-0.054 1.785-0.829 3.356-0.829 1.555 0 2.012 0.83 3.368 0.798 1.395-0.022 2.274-1.248 3.114-2.502 1.004-1.424 1.407-2.826 1.423-2.898-0.032-0.011-2.712-1.032-2.738-4.123l0.002-0.001zM21.557 8.245c0.7-0.874 1.178-2.064 1.046-3.272-1.013 0.046-2.279 0.701-3.008 1.556-0.645 0.754-1.222 1.99-1.073 3.152 1.137 0.084 2.306-0.574 3.036-1.435v-0.001zM42.946 25.203h-1.817l-0.997-3.128h-3.462l-0.949 3.128h-1.769l3.43-10.646h2.118l3.446 10.646zM39.832 20.763l-0.901-2.779c-0.096-0.284-0.274-0.952-0.536-2.006h-0.032c-0.16 0.671-0.329 1.339-0.507 2.006l-0.885 2.78 2.86-0.001zM51.766 21.27c0 1.306-0.352 2.338-1.059 3.096-0.632 0.674-1.419 1.010-2.356 1.010-1.012 0-1.739-0.362-2.181-1.088h-0.032v4.043h-1.706v-8.278c0-0.821-0.022-1.664-0.064-2.528h1.502l0.096 1.218h0.032c0.568-0.918 1.433-1.376 2.591-1.376 0.906 0 1.663 0.358 2.268 1.074 0.607 0.717 0.909 1.659 0.909 2.828v0.001zM50.027 21.333c0-0.747-0.168-1.363-0.506-1.848-0.368-0.506-0.865-0.758-1.486-0.758-0.421 0-0.804 0.141-1.145 0.418-0.344 0.28-0.568 0.646-0.672 1.099-0.053 0.211-0.080 0.384-0.080 0.52v1.28c0 0.558 0.172 1.030 0.515 1.414s0.788 0.576 1.335 0.576c0.643 0 1.143-0.248 1.501-0.742 0.359-0.496 0.538-1.148 0.538-1.96zM60.602 21.27c0 1.306-0.354 2.338-1.060 3.096-0.632 0.674-1.417 1.010-2.354 1.010-1.013 0-1.74-0.362-2.181-1.088h-0.032v4.043h-1.707v-8.278c0-0.821-0.022-1.664-0.064-2.528h1.502l0.096 1.218h0.032c0.568-0.918 1.431-1.376 2.591-1.376 0.906 0 1.663 0.358 2.27 1.074 0.604 0.717 0.908 1.659 0.908 2.828v0.001zM58.863 21.333c0-0.747-0.168-1.363-0.507-1.848-0.368-0.506-0.863-0.758-1.485-0.758-0.42-0-0.826 0.148-1.147 0.418-0.343 0.28-0.566 0.646-0.671 1.099-0.053 0.211-0.080 0.384-0.080 0.52v1.28c0 0.558 0.171 1.030 0.512 1.414 0.343 0.384 0.788 0.576 1.337 0.576 0.643 0 1.143-0.248 1.501-0.742 0.359-0.496 0.538-1.148 0.538-1.96h0.002zM70.481 22.218c0 0.906-0.315 1.642-0.947 2.211-0.694 0.622-1.66 0.932-2.902 0.932-1.146 0-2.066-0.22-2.762-0.662l0.396-1.422c0.749 0.453 1.572 0.68 2.468 0.68 0.642 0 1.142-0.146 1.502-0.435 0.358-0.288 0.536-0.678 0.536-1.162 0-0.432-0.147-0.796-0.443-1.091-0.293-0.296-0.784-0.57-1.47-0.824-1.866-0.694-2.797-1.712-2.797-3.052 0-0.875 0.327-1.592 0.981-2.152 0.652-0.558 1.522-0.838 2.608-0.838 0.969 0 1.775 0.17 2.418 0.506l-0.426 1.39c-0.601-0.326-1.279-0.488-2.039-0.488-0.601 0-1.070 0.147-1.406 0.442-0.136 0.121-0.245 0.269-0.319 0.435s-0.111 0.347-0.107 0.529c0 0.421 0.162 0.768 0.488 1.042 0.285 0.253 0.801 0.526 1.551 0.822 0.917 0.368 1.59 0.8 2.023 1.294 0.432 0.493 0.648 1.11 0.648 1.846v-0.003zM76.123 18.806h-1.881v3.728c0 0.947 0.331 1.421 0.996 1.421 0.304 0 0.558-0.026 0.758-0.080l0.046 1.296c-0.336 0.126-0.779 0.189-1.328 0.189-0.674 0-1.201-0.206-1.581-0.616-0.379-0.411-0.568-1.101-0.568-2.070v-3.87h-1.121v-1.28h1.121v-1.405l1.675-0.506v1.912h1.881v1.28l0.001 0.001zM84.611 21.302c0 1.18-0.336 2.149-1.011 2.906-0.706 0.78-1.645 1.168-2.815 1.168-1.126 0-2.024-0.373-2.693-1.12s-1.004-1.69-1.004-2.827c0-1.19 0.344-2.164 1.035-2.922 0.688-0.758 1.619-1.138 2.789-1.138 1.127 0 2.034 0.374 2.718 1.122 0.654 0.726 0.981 1.662 0.981 2.81h-0.001zM82.842 21.358c0-0.709-0.152-1.316-0.459-1.822-0.358-0.614-0.869-0.92-1.532-0.92-0.686 0-1.207 0.307-1.565 0.92-0.307 0.506-0.458 1.123-0.458 1.853 0 0.708 0.152 1.315 0.458 1.821 0.368 0.613 0.885 0.918 1.55 0.918 0.651 0 1.163-0.312 1.532-0.934 0.315-0.516 0.472-1.13 0.472-1.837l0.002 0.002zM90.159 19.026c-0.168-0.032-0.348-0.048-0.537-0.048-0.6 0-1.064 0.227-1.393 0.68-0.283 0.4-0.426 0.906-0.426 1.517v4.027h-1.705l0.016-5.259c0-0.885-0.022-1.69-0.064-2.416h1.486l0.062 1.468h0.048c0.179-0.504 0.464-0.912 0.853-1.216 0.356-0.266 0.789-0.41 1.233-0.411 0.158 0 0.301 0.012 0.427 0.032v1.626h-0.001zM97.793 21.002c0.004 0.259-0.017 0.518-0.063 0.774h-5.12c0.020 0.758 0.267 1.338 0.743 1.738 0.432 0.358 0.99 0.536 1.675 0.536 0.758 0 1.449-0.12 2.072-0.362l0.267 1.184c-0.727 0.316-1.585 0.474-2.575 0.474-1.191 0-2.127-0.35-2.807-1.050-0.678-0.701-1.019-1.64-1.019-2.82 0-1.158 0.316-2.122 0.95-2.89 0.663-0.821 1.559-1.232 2.686-1.232 1.107 0 1.945 0.411 2.514 1.232 0.45 0.652 0.677 1.458 0.677 2.416v0.002zM96.165 20.559c0.011-0.506-0.1-0.944-0.331-1.312-0.296-0.474-0.75-0.712-1.361-0.712-0.558 0-1.012 0.232-1.359 0.696-0.284 0.368-0.453 0.811-0.504 1.326l3.555 0.002zM39.267 8.008c0 0.941-0.283 1.65-0.847 2.126-0.523 0.44-1.265 0.659-2.228 0.659-0.478 0-0.886-0.020-1.228-0.062v-5.144c0.446-0.072 0.926-0.11 1.445-0.11 0.917 0 1.609 0.2 2.073 0.598 0.523 0.45 0.785 1.094 0.785 1.933zM38.383 8.030c0-0.61-0.162-1.078-0.485-1.405s-0.797-0.488-1.419-0.488c-0.264 0-0.488 0.016-0.676 0.054v3.91c0.104 0.016 0.292 0.024 0.567 0.024 0.642 0 1.137-0.179 1.487-0.536s0.524-0.877 0.524-1.56l0.002 0.001zM43.959 8.83c0 0.58-0.167 1.056-0.498 1.428-0.347 0.384-0.809 0.574-1.383 0.574-0.552 0-0.994-0.184-1.323-0.552-0.328-0.366-0.492-0.83-0.492-1.388 0-0.584 0.168-1.064 0.508-1.435s0.796-0.558 1.371-0.558c0.552 0 0.998 0.184 1.335 0.55 0.32 0.358 0.48 0.818 0.48 1.382l0.002-0.002zM43.088 8.857c0-0.347-0.075-0.646-0.224-0.894-0.176-0.301-0.427-0.451-0.752-0.451-0.338 0-0.594 0.15-0.77 0.451-0.15 0.248-0.224 0.552-0.224 0.91 0 0.348 0.074 0.646 0.224 0.896 0.182 0.3 0.435 0.45 0.761 0.45 0.32 0 0.572-0.152 0.752-0.459 0.156-0.254 0.234-0.555 0.234-0.904v0.001zM50.247 6.976l-1.181 3.77h-0.769l-0.488-1.638c-0.122-0.401-0.224-0.807-0.304-1.218h-0.016c-0.072 0.413-0.173 0.82-0.303 1.218l-0.52 1.638h-0.777l-1.11-3.77h0.862l0.427 1.792c0.104 0.424 0.188 0.828 0.256 1.21h0.016c0.062-0.315 0.165-0.717 0.311-1.202l0.536-1.8h0.683l0.512 1.762c0.125 0.43 0.226 0.843 0.304 1.242h0.022c0.056-0.388 0.142-0.802 0.256-1.242l0.458-1.762h0.824zM54.596 10.746h-0.839v-2.16c0-0.666-0.253-0.998-0.761-0.998-0.115-0.003-0.23 0.020-0.335 0.067s-0.198 0.118-0.271 0.207c-0.154 0.184-0.232 0.4-0.232 0.646v2.237h-0.841v-2.693c-0.001-0.36-0.011-0.72-0.030-1.080h0.736l0.040 0.59h0.024c0.096-0.184 0.243-0.334 0.434-0.456 0.228-0.141 0.492-0.214 0.761-0.211 0.352 0 0.645 0.114 0.878 0.342 0.29 0.28 0.435 0.696 0.435 1.25v2.259zM56.91 10.746h-0.839v-5.502h0.839v5.502zM61.849 8.83c0 0.58-0.165 1.056-0.496 1.428-0.348 0.384-0.808 0.574-1.383 0.574-0.555 0-0.996-0.184-1.324-0.552-0.328-0.366-0.492-0.83-0.492-1.388 0-0.584 0.17-1.064 0.509-1.435s0.796-0.558 1.369-0.558c0.555 0 1 0.184 1.337 0.55 0.321 0.358 0.482 0.818 0.482 1.382l-0.001-0.002zM60.979 8.857c0-0.347-0.075-0.646-0.225-0.894-0.176-0.301-0.427-0.451-0.752-0.451-0.338 0-0.594 0.15-0.769 0.451-0.152 0.248-0.226 0.552-0.226 0.91 0 0.348 0.075 0.646 0.224 0.896 0.183 0.3 0.435 0.45 0.762 0.45 0.32 0 0.571-0.152 0.752-0.459 0.155-0.254 0.232-0.555 0.232-0.904v0.001zM65.91 10.746h-0.752l-0.064-0.434h-0.022c-0.258 0.346-0.624 0.52-1.102 0.52-0.356 0-0.644-0.114-0.862-0.342-0.097-0.102-0.174-0.223-0.225-0.354s-0.075-0.272-0.071-0.414c0-0.461 0.192-0.812 0.578-1.056 0.386-0.242 0.929-0.362 1.628-0.356v-0.070c0-0.496-0.261-0.744-0.785-0.744-0.348-0.007-0.69 0.090-0.983 0.278l-0.17-0.55c0.351-0.216 0.784-0.326 1.294-0.326 0.986 0 1.481 0.52 1.481 1.56v1.389c0 0.376 0.018 0.676 0.054 0.898l0.001 0.001zM65.039 9.45v-0.582c-0.926-0.016-1.388 0.238-1.388 0.76 0 0.197 0.053 0.344 0.16 0.442 0.113 0.1 0.26 0.152 0.411 0.146 0.184 0 0.357-0.058 0.514-0.174 0.095-0.067 0.173-0.156 0.226-0.259s0.080-0.218 0.079-0.335l-0.001 0.001zM70.677 10.746h-0.744l-0.040-0.606h-0.022c-0.238 0.461-0.643 0.691-1.212 0.691-0.455 0-0.833-0.178-1.133-0.536s-0.45-0.819-0.45-1.388c0-0.61 0.162-1.104 0.488-1.482 0.317-0.352 0.705-0.528 1.166-0.528 0.508 0 0.862 0.17 1.064 0.512h0.016v-2.165h0.839v4.486c0 0.368 0.010 0.706 0.030 1.016h-0.001zM69.809 9.156v-0.629c0.008-0.145-0.017-0.29-0.074-0.424s-0.143-0.253-0.252-0.348c-0.155-0.137-0.356-0.21-0.562-0.206-0.312 0-0.558 0.124-0.738 0.373-0.178 0.248-0.269 0.566-0.269 0.954 0 0.373 0.086 0.675 0.258 0.908 0.182 0.248 0.426 0.373 0.733 0.373 0.275 0 0.496-0.104 0.663-0.31 0.162-0.192 0.24-0.422 0.24-0.69h0.002zM77.852 8.83c0 0.58-0.165 1.056-0.496 1.428-0.348 0.384-0.808 0.574-1.383 0.574-0.552 0-0.994-0.184-1.324-0.552-0.328-0.366-0.492-0.83-0.492-1.388 0-0.584 0.17-1.064 0.509-1.435s0.796-0.558 1.371-0.558c0.552 0 0.999 0.184 1.335 0.55 0.32 0.358 0.48 0.818 0.48 1.382l0.001-0.002zM76.984 8.857c0-0.347-0.075-0.646-0.225-0.894-0.177-0.301-0.427-0.451-0.754-0.451-0.336 0-0.592 0.15-0.769 0.451-0.152 0.248-0.226 0.552-0.226 0.91 0 0.348 0.075 0.646 0.225 0.896 0.182 0.3 0.435 0.45 0.762 0.45 0.32 0 0.572-0.152 0.752-0.459 0.156-0.254 0.234-0.555 0.234-0.904v0.001zM82.364 10.746h-0.838v-2.16c0-0.666-0.253-0.998-0.761-0.998-0.249 0-0.45 0.091-0.606 0.274s-0.234 0.4-0.234 0.646v2.237h-0.84v-2.693c0-0.331-0.008-0.69-0.029-1.080h0.737l0.040 0.59h0.023c0.103-0.187 0.252-0.345 0.435-0.456 0.228-0.14 0.482-0.211 0.76-0.211 0.353 0 0.645 0.114 0.879 0.342 0.29 0.28 0.435 0.696 0.435 1.25v2.258l0.001 0.001zM88.010 7.603h-0.924v1.832c0 0.466 0.164 0.698 0.488 0.698 0.152 0 0.276-0.013 0.374-0.040l0.022 0.637c-0.166 0.062-0.385 0.094-0.651 0.094-0.331 0-0.589-0.101-0.777-0.302-0.187-0.202-0.28-0.541-0.28-1.016v-1.903h-0.551v-0.626h0.552v-0.692l0.821-0.248v0.938h0.925v0.629zM92.452 10.746h-0.84v-2.144c0-0.676-0.252-1.014-0.759-1.014-0.389 0-0.655 0.196-0.801 0.588-0.024 0.082-0.040 0.184-0.040 0.302v2.268h-0.837v-5.501h0.838v2.272h0.016c0.264-0.413 0.643-0.619 1.134-0.619 0.347 0 0.635 0.114 0.863 0.342 0.285 0.283 0.427 0.706 0.427 1.264v2.242l-0.001 0.001zM97.033 8.682c0 0.15-0.011 0.277-0.032 0.38h-2.515c0.011 0.373 0.132 0.656 0.365 0.854 0.213 0.176 0.488 0.264 0.824 0.264 0.347 0.005 0.692-0.056 1.017-0.178l0.132 0.582c-0.358 0.155-0.779 0.232-1.267 0.232-0.584 0-1.045-0.171-1.377-0.515-0.336-0.344-0.501-0.806-0.501-1.384 0-0.57 0.155-1.043 0.466-1.421 0.325-0.403 0.764-0.605 1.319-0.605 0.543 0 0.955 0.202 1.233 0.605 0.226 0.32 0.336 0.716 0.336 1.186h0.001zM96.232 8.466c0.012-0.226-0.045-0.451-0.162-0.645-0.145-0.232-0.368-0.35-0.668-0.35-0.13-0.002-0.26 0.028-0.376 0.087s-0.217 0.147-0.291 0.254c-0.142 0.19-0.228 0.416-0.248 0.652l1.746 0.001z"></path>
</symbol>
<symbol id="icon-GooglePlay" viewBox="0 0 103 32">
<path fill="#000" style="fill: var(--color1, #000)" d="M99.434 32h-96.227c-1.764 0-3.208-1.44-3.208-3.2v-25.6c0-1.76 1.443-3.2 3.208-3.2h96.227c1.764 0 3.207 1.44 3.207 3.2v25.6c0 1.76-1.444 3.2-3.207 3.2z"></path>
<path fill="#000" style="fill: var(--color1, #000)" d="M7.858 15.68v-8.4c0-0.48 0.401-0.88 0.802-0.88s0.561 0.080 0.802 0.24l15.476 8.48c0.321 0.16 0.481 0.4 0.481 0.64s-0.16 0.48-0.481 0.64l-15.476 8.48c-0.16 0.080-0.401 0.24-0.802 0.24s-0.802-0.4-0.802-0.88v-8.56z"></path>
<path fill="#000" style="fill: var(--color1, #000)" d="M17.882 15.76l-9.382-9.36h0.16c0.401 0 0.561 0.080 0.802 0.24l11.387 6.24-2.967 2.88z"></path>
<path fill="#000" style="fill: var(--color1, #000)" d="M20.769 18.56l-2.887-2.88 2.967-2.96 4.090 2.24c0.321 0.16 0.481 0.4 0.481 0.64s-0.16 0.48-0.481 0.64l-4.17 2.32z"></path>
<path fill="#000" style="fill: var(--color1, #000)" d="M8.58 24.96l9.302-9.28 2.887 2.88-11.307 6.16c-0.241 0.16-0.401 0.24-0.882 0.24 0.080 0 0.080 0 0 0z"></path>
<path fill="#fff" style="fill: var(--color2, #fff)" d="M57.014 27.12c-0.401-0.32-0.722-0.88-0.882-1.2l1.283-0.56c0.080 0.16 0.241 0.4 0.401 0.64 0.321 0.32 0.802 0.64 1.283 0.64s1.042-0.24 1.363-0.64c0.24-0.4 0.401-0.8 0.401-1.36v-0.48c-0.962 1.2-2.967 1.040-4.090-0.24-1.203-1.28-1.203-3.44 0-4.72 1.203-1.2 2.967-1.36 4.009-0.24v-0.56h1.363v6c0 1.52-0.562 2.4-1.283 2.96-0.481 0.4-1.203 0.56-1.845 0.56-0.722-0.080-1.443-0.32-2.005-0.8zM90.613 27.44l1.363-3.2-2.405-5.52h1.363l1.684 3.92 1.685-3.92h1.363l-3.688 8.72h-1.363zM84.118 24.4c-0.401-0.4-0.561-0.96-0.561-1.52 0-0.48 0.16-0.96 0.481-1.28 0.561-0.56 1.363-0.8 2.245-0.8 0.561 0 1.043 0.080 1.444 0.32 0-0.96-0.802-1.36-1.444-1.36-0.561 0-1.122 0.32-1.363 0.88l-1.203-0.48c0.241-0.56 0.882-1.6 2.486-1.6 0.802 0 1.604 0.24 2.085 0.8s0.641 1.2 0.641 2.080v3.36h-1.363v-0.56c-0.16 0.24-0.481 0.4-0.722 0.56-0.321 0.16-0.722 0.24-1.122 0.24-0.481-0.080-1.203-0.24-1.604-0.64zM41.377 21.52c0-1.6 1.203-3.36 3.368-3.36 2.085 0 3.368 1.76 3.368 3.36s-1.203 3.36-3.368 3.36c-2.165 0-3.368-1.76-3.368-3.36zM48.594 21.52c0-1.6 1.203-3.36 3.368-3.36 2.085 0 3.368 1.76 3.368 3.36s-1.203 3.36-3.368 3.36c-2.085 0-3.368-1.76-3.368-3.36zM32.316 23.28c-2.005-2-1.925-5.28 0.080-7.36 1.042-1.040 2.325-1.52 3.689-1.52 1.283 0 2.566 0.48 3.528 1.44l-0.962 1.040c-1.443-1.44-3.769-1.36-5.132 0.080-1.443 1.52-1.443 3.84 0 5.36s3.849 1.6 5.293 0.080c0.481-0.48 0.642-1.12 0.722-1.76h-3.368v-1.44h4.731c0.080 0.32 0.080 0.72 0.080 1.12 0 1.2-0.481 2.4-1.283 3.2-0.882 0.88-2.165 1.36-3.448 1.36-1.443-0.080-2.887-0.56-3.929-1.6zM66.236 23.84c-1.203-1.28-1.203-3.44 0-4.8 1.203-1.28 3.208-1.28 4.33 0 0.401 0.4 0.642 0.96 0.882 1.52l-4.411 1.84c0.241 0.56 0.802 1.040 1.604 1.040 0.722 0 1.203-0.24 1.684-0.96l1.203 0.8c-0.161 0.16-0.321 0.32-0.401 0.48-1.363 1.36-3.689 1.36-4.892 0.080zM74.576 24.8v-8.88h2.887c1.684 0 3.047 1.2 3.047 2.64s-1.203 2.64-2.727 2.64h-1.764v3.52h-1.443v0.080zM81.311 24.8v-8.88h1.363v8.88h-1.363zM63.189 24.64v-9.92h1.444v9.92h-1.444zM87.646 22.16c-0.321-0.24-0.802-0.32-1.283-0.32-0.962 0-1.523 0.48-1.523 1.040s0.561 0.88 1.122 0.88c0.802 0 1.684-0.64 1.684-1.6zM46.59 21.52c0-0.96-0.642-2-1.844-2s-1.844 1.040-1.844 2c0 0.96 0.642 2 1.844 2 1.123 0 1.844-1.040 1.844-2zM53.807 21.52c0-0.96-0.642-2-1.844-2s-1.844 1.040-1.844 2c0 0.96 0.642 2 1.844 2s1.844-1.040 1.844-2zM60.944 22.080c0-0.080 0-0.16 0.080-0.24v-0.72c0-0.080-0.080-0.24-0.080-0.32-0.241-0.8-0.963-1.36-1.684-1.36-0.962 0-1.764 0.96-1.764 2 0 1.12 0.802 2 1.844 2 0.642 0.080 1.283-0.48 1.604-1.36zM66.797 21.36l2.967-1.28c-0.321-0.56-0.802-0.72-1.203-0.72-1.203 0.080-1.925 1.36-1.764 2zM79.066 18.64c0-0.8-0.641-1.36-1.523-1.36h-1.604v2.8h1.685c0.802 0 1.443-0.64 1.443-1.44z"></path>
<path fill="#fff" style="fill: var(--color2, #fff)" d="M91.656 25.84h-0.080v0h0.080zM91.656 25.84c0-0.080 0-0.080 0 0 0-0.080 0-0.080 0 0zM91.656 25.84v0zM91.656 25.76v0zM91.656 25.84v0zM91.656 25.84c0-0.080 0-0.080 0 0v0zM91.656 25.84c0-0.080 0-0.080 0 0v0zM91.736 25.84c0-0.080 0-0.080 0 0 0-0.080 0-0.080 0 0 0-0.080 0-0.080 0 0zM91.736 25.84c0-0.080 0-0.080 0 0v0zM91.736 25.76v0zM91.736 25.84v0zM91.736 25.84c0-0.080 0-0.080 0 0 0-0.080 0-0.080 0 0zM91.736 25.76c0 0.080 0 0.080 0 0 0 0.080 0 0.080 0 0zM91.736 25.84c0-0.080 0-0.080 0 0 0-0.080 0-0.080 0 0 0-0.080 0-0.080 0 0 0-0.080 0-0.080 0 0zM91.816 25.84c0-0.080 0-0.080 0 0-0.080-0.080-0.080-0.080 0 0-0.080 0-0.080 0 0 0zM91.816 25.76c0 0.080 0 0.080 0 0 0 0.080-0.080 0.080 0 0-0.080 0 0 0 0 0zM91.816 25.84v0zM91.816 25.84c0-0.080 0-0.080 0 0 0-0.080 0-0.080 0 0 0-0.080 0-0.080 0 0 0-0.080 0-0.080 0 0 0-0.080 0-0.080 0 0 0-0.080 0-0.080 0 0 0-0.080 0-0.080 0 0 0-0.080 0-0.080 0 0zM91.896 25.76v0 0zM91.896 25.84v0zM91.896 25.84c0-0.080 0-0.080 0 0 0-0.080 0-0.080 0 0zM33.747 8.008h1.874v0.15c0 0.34-0.040 0.64-0.12 0.902-0.084 0.251-0.219 0.483-0.396 0.68-0.421 0.472-0.956 0.71-1.606 0.71-0.634 0-1.179-0.229-1.63-0.686-0.219-0.216-0.392-0.473-0.508-0.757s-0.174-0.588-0.17-0.895c0-0.656 0.23-1.213 0.69-1.67 0.46-0.459 1.020-0.688 1.68-0.688 0.355 0 0.686 0.072 0.994 0.216 0.293 0.146 0.582 0.38 0.866 0.704l-0.488 0.466c-0.372-0.494-0.826-0.742-1.36-0.742-0.48 0-0.882 0.166-1.207 0.496-0.324 0.323-0.486 0.73-0.486 1.218 0 0.504 0.181 0.92 0.543 1.246 0.34 0.304 0.707 0.454 1.103 0.454 0.334 0.001 0.656-0.12 0.906-0.34 0.269-0.229 0.419-0.502 0.451-0.821h-1.131v-0.643l-0.004 0.001zM38.984 6.481h-1.818v1.086h1.764v0.642h-1.764v1.512h1.818v0.642h-2.502v-4.524h2.502v0.642zM41.133 6.481v3.882h-0.684v-3.882h-1.042v-0.642h2.767v0.642h-1.040zM45.323 5.84v4.523h-0.684v-4.523h0.684zM47.664 6.481v3.882h-0.685v-3.882h-1.042v-0.642h2.767v0.642h-1.039zM50.944 8.081c0-0.637 0.234-1.184 0.702-1.64 0.219-0.222 0.481-0.397 0.77-0.515s0.598-0.176 0.91-0.172c0.646 0 1.2 0.23 1.662 0.691 0.224 0.215 0.401 0.473 0.521 0.758s0.179 0.593 0.175 0.902c0.005 0.309-0.054 0.616-0.174 0.901s-0.299 0.542-0.524 0.755c-0.222 0.222-0.487 0.396-0.778 0.513s-0.603 0.175-0.917 0.169c-0.585 0-1.111-0.202-1.577-0.606-0.513-0.448-0.77-1.034-0.77-1.758l-0.001 0.001zM51.633 8.089c0 0.501 0.168 0.912 0.505 1.234s0.722 0.483 1.161 0.483c0.224 0.005 0.446-0.037 0.653-0.121s0.394-0.211 0.55-0.371c0.329-0.332 0.491-0.736 0.491-1.214 0-0.482-0.16-0.886-0.484-1.214-0.321-0.328-0.718-0.492-1.192-0.492-0.222-0.005-0.443 0.037-0.649 0.121s-0.391 0.211-0.546 0.371c-0.326 0.326-0.489 0.726-0.489 1.202h0.001zM56.545 10.364v-4.832l3.306 3.452v-3.144h0.685v4.798l-3.306-3.442v3.168h-0.686z"></path>
</symbol>
<symbol id="icon-shelter" viewBox="0 0 32 32">
<path fill="#fff" style="fill: var(--color1, #fff)" d="M6 27.334v-15l10-7.534 10 7.534v15h-20zM7.666 25.666h16.667v-12.5l-8.334-6.266-8.334 6.266v12.5zM9.834 23.634h1.233v-1.834h9.867v1.834h1.233v-4.9c0-0.689-0.244-1.273-0.733-1.75s-1.067-0.717-1.734-0.717h-4.3v4.3h-4.334v-5.533h-1.233v8.6zM13.234 19.934c0.422 0 0.783-0.145 1.083-0.434s0.45-0.656 0.45-1.1c0-0.422-0.15-0.783-0.45-1.083s-0.661-0.45-1.083-0.45c-0.445 0-0.811 0.15-1.1 0.45s-0.434 0.661-0.434 1.083c0 0.444 0.15 0.811 0.45 1.1s0.661 0.434 1.083 0.434z"></path>
</symbol>
<symbol id="icon-railway" viewBox="0 0 32 32">
<path fill="#fff" style="fill: var(--color1, #fff)" d="M8.266 26.966v-0.966l2-1.334c-1.2 0-2.211-0.411-3.033-1.233s-1.234-1.834-1.234-3.034v-12.4c0-1.622 0.789-2.806 2.366-3.55s4.123-1.117 7.634-1.117c3.578 0 6.139 0.361 7.683 1.083s2.317 1.917 2.317 3.583v12.4c0 1.2-0.411 2.211-1.234 3.034s-1.833 1.233-3.033 1.233l2 1.334v0.966h-15.467zM7.666 14.234h16.667v-5.534h-16.667v5.534zM16 21.166c0.467 0 0.861-0.161 1.183-0.483s0.483-0.717 0.483-1.183c0-0.467-0.161-0.861-0.483-1.183s-0.717-0.483-1.183-0.483c-0.467 0-0.861 0.161-1.183 0.483s-0.483 0.717-0.483 1.183c0 0.467 0.161 0.861 0.483 1.183s0.717 0.483 1.183 0.483zM10.266 23.066h11.467c0.733 0 1.35-0.261 1.85-0.783s0.75-1.15 0.75-1.883v-4.5h-16.667v4.5c0 0.733 0.25 1.361 0.75 1.883s1.116 0.783 1.85 0.783zM16 5c-2.533 0-4.411 0.172-5.634 0.517s-2.033 0.85-2.433 1.517h16.2c-0.311-0.667-1.111-1.172-2.4-1.517s-3.2-0.517-5.734-0.517z"></path>
</symbol>
<symbol id="icon-flight" viewBox="0 0 32 32">
<path fill="#fff" style="fill: var(--color1, #fff)" d="M11.834 28.9v-1.266l2.666-2v-8.267l-11.5 3.367v-1.7l11.5-6.767v-7.766c0-0.422 0.145-0.778 0.434-1.066s0.644-0.434 1.066-0.434 0.778 0.145 1.066 0.434c0.289 0.289 0.434 0.644 0.434 1.066v7.766l11.5 6.767v1.7l-11.5-3.367v8.267l2.666 2v1.266l-4.166-1.2-4.166 1.2z"></path>
</symbol>
<symbol id="icon-attractions" viewBox="0 0 32 32">
<path fill="#fff" style="fill: var(--color1, #fff)" d="M8.4 28.834l1.634-3.7c-0.378-0.267-0.728-0.533-1.050-0.8s-0.639-0.567-0.95-0.9c-0.156 0.089-0.328 0.15-0.517 0.183s-0.361 0.050-0.517 0.050c-0.689 0-1.273-0.239-1.75-0.716s-0.716-1.050-0.716-1.717c0-0.4 0.094-0.778 0.283-1.134s0.439-0.634 0.75-0.834c-0.178-0.533-0.311-1.067-0.4-1.6s-0.133-1.089-0.133-1.666c0-0.6 0.044-1.167 0.133-1.7s0.222-1.067 0.4-1.6c-0.311-0.222-0.561-0.506-0.75-0.85s-0.283-0.717-0.283-1.117c0-0.667 0.239-1.239 0.716-1.717s1.061-0.717 1.75-0.717c0.156 0 0.322 0.022 0.5 0.066s0.344 0.101 0.5 0.167c0.756-0.8 1.595-1.472 2.517-2.017s1.939-0.939 3.050-1.183c0.089-0.645 0.367-1.167 0.834-1.567s1-0.6 1.6-0.6c0.6 0 1.139 0.2 1.617 0.6s0.75 0.911 0.817 1.534c1.133 0.267 2.178 0.655 3.133 1.166s1.811 1.178 2.567 2c0.133-0.067 0.278-0.111 0.433-0.133s0.3-0.034 0.434-0.034c0.689 0 1.273 0.239 1.75 0.717s0.716 1.050 0.716 1.717c0 0.422-0.094 0.799-0.283 1.133s-0.428 0.6-0.717 0.8c0.178 0.556 0.306 1.1 0.383 1.634s0.117 1.1 0.117 1.7c0 0.578-0.039 1.139-0.117 1.683s-0.205 1.072-0.383 1.583c0.311 0.245 0.55 0.539 0.717 0.884s0.25 0.705 0.25 1.083c0 0.667-0.239 1.239-0.717 1.717s-1.050 0.716-1.717 0.716c-0.178 0-0.35-0.017-0.517-0.050s-0.327-0.084-0.483-0.15c-0.311 0.333-0.628 0.639-0.95 0.917s-0.672 0.539-1.050 0.783l1.6 3.667h-1.634l-1.3-2.9c-0.378 0.155-0.744 0.294-1.1 0.417s-0.733 0.227-1.133 0.316c-0.089 0.645-0.367 1.162-0.834 1.55s-1 0.583-1.6 0.583c-0.6 0-1.133-0.194-1.6-0.583s-0.745-0.906-0.834-1.55c-0.4-0.111-0.778-0.227-1.133-0.35s-0.711-0.272-1.067-0.45l-1.366 2.967h-1.6zM10.634 23.766l2.466-5.5c-0.267-0.333-0.467-0.689-0.6-1.066s-0.2-0.778-0.2-1.2c0-1.022 0.372-1.895 1.117-2.617s1.628-1.083 2.65-1.083c1 0 1.856 0.361 2.567 1.083s1.066 1.594 1.066 2.617c0 0.422-0.067 0.828-0.2 1.217s-0.345 0.75-0.634 1.083l2.5 5.466c0.267-0.178 0.533-0.378 0.8-0.6s0.511-0.466 0.734-0.733c-0.111-0.156-0.194-0.339-0.25-0.55s-0.083-0.428-0.083-0.65c0-0.667 0.239-1.239 0.717-1.717s1.061-0.706 1.75-0.683c0.133-0.445 0.244-0.906 0.333-1.384s0.134-0.961 0.134-1.45c0-0.533-0.045-1.033-0.134-1.5s-0.199-0.922-0.333-1.366c-0.667 0.044-1.245-0.178-1.734-0.667s-0.734-1.066-0.734-1.733c0-0.222 0.033-0.434 0.1-0.634s0.156-0.389 0.267-0.566c-0.667-0.689-1.4-1.261-2.2-1.717s-1.667-0.806-2.6-1.050c-0.178 0.356-0.456 0.656-0.834 0.9s-0.811 0.367-1.3 0.367-0.922-0.122-1.3-0.367c-0.378-0.244-0.655-0.544-0.834-0.9-0.955 0.245-1.833 0.595-2.633 1.050s-1.522 1.039-2.167 1.75c0.111 0.178 0.201 0.367 0.267 0.567s0.1 0.4 0.1 0.6c0 0.733-0.256 1.322-0.767 1.766s-1.078 0.666-1.7 0.666c-0.155 0.422-0.266 0.867-0.333 1.334s-0.1 0.967-0.1 1.5c0 0.489 0.033 0.972 0.1 1.45s0.178 0.939 0.333 1.384c0.667-0.022 1.245 0.205 1.734 0.683s0.734 1.050 0.734 1.717c0 0.244-0.033 0.461-0.1 0.65s-0.156 0.361-0.267 0.517c0.245 0.244 0.495 0.478 0.75 0.7s0.528 0.445 0.817 0.666zM11.9 24.5c0.289 0.156 0.6 0.289 0.934 0.4s0.678 0.211 1.033 0.3c0.222-0.356 0.511-0.656 0.867-0.9s0.777-0.366 1.266-0.366 0.922 0.122 1.3 0.366c0.378 0.244 0.655 0.544 0.834 0.9 0.355-0.089 0.689-0.183 1-0.283s0.611-0.217 0.9-0.35l-2.334-5.333c-0.267 0.155-0.539 0.272-0.817 0.35s-0.572 0.117-0.883 0.117c-0.311 0-0.617-0.045-0.917-0.134s-0.583-0.211-0.85-0.366l-2.334 5.3zM16 18.034c0.556 0 1.034-0.195 1.434-0.584s0.6-0.872 0.6-1.45c0-0.556-0.2-1.034-0.6-1.434s-0.878-0.6-1.434-0.6c-0.578 0-1.061 0.2-1.45 0.6s-0.584 0.878-0.584 1.434c0 0.578 0.195 1.061 0.584 1.45s0.872 0.584 1.45 0.584z"></path>
</symbol>
<symbol id="icon-Menu-Transport" viewBox="0 0 34 32">
<path fill="#fff" style="fill: var(--color1, #fff)" d="M14.857 24.603v-7.112l1.746-5.143c0.063-0.127 0.148-0.233 0.254-0.317s0.254-0.127 0.444-0.127h9.365c0.169 0 0.312 0.042 0.428 0.127s0.196 0.19 0.238 0.317l1.778 5.143v7.112c0 0.19-0.058 0.344-0.174 0.46s-0.27 0.174-0.46 0.174h-0.444c-0.17 0-0.313-0.058-0.429-0.174s-0.174-0.27-0.174-0.46v-1.524h-10.889v1.524c0 0.19-0.058 0.344-0.174 0.46s-0.259 0.174-0.428 0.174h-0.476c-0.17 0-0.313-0.058-0.429-0.174s-0.174-0.27-0.174-0.46zM16.476 16.476h10.984l-1.143-3.365h-8.699l-1.143 3.365zM18.127 20.952c0.317 0 0.593-0.116 0.825-0.349s0.349-0.519 0.349-0.857c0-0.317-0.116-0.593-0.349-0.826s-0.508-0.349-0.825-0.349c-0.339 0-0.625 0.116-0.857 0.349s-0.35 0.508-0.35 0.826c0 0.338 0.117 0.624 0.35 0.857s0.518 0.349 0.857 0.349zM25.842 20.952c0.317 0 0.593-0.116 0.825-0.349s0.349-0.519 0.349-0.857c0-0.317-0.116-0.593-0.349-0.826s-0.508-0.349-0.825-0.349c-0.339 0-0.619 0.116-0.842 0.349s-0.333 0.508-0.333 0.826c0 0.338 0.111 0.624 0.333 0.857s0.503 0.349 0.842 0.349zM7.016 25.080v-0.54l1.969-1.968c-1.186 0-2.244-0.312-3.175-0.936s-1.397-1.487-1.397-2.587v-10.603c0-1.143 0.593-1.937 1.778-2.381s3.227-0.667 6.127-0.667c2.814 0 4.836 0.233 6.063 0.699s1.842 1.249 1.842 2.349v1.874h-1.588v-2.064h-12.635v8.699h7.238v8.127h-6.222zM7.778 20.222c0.317 0 0.593-0.117 0.826-0.35s0.349-0.508 0.349-0.825c0-0.339-0.116-0.625-0.349-0.857s-0.508-0.349-0.826-0.349c-0.338 0-0.619 0.116-0.841 0.349s-0.333 0.518-0.333 0.857c0 0.317 0.111 0.593 0.333 0.825s0.503 0.35 0.841 0.35zM16.063 21.873h11.842v-4.19h-11.842v4.19z"></path>
<path fill="#fff" style="fill: var(--color1, #fff)" d="M15.016 24.54v-7.112l1.746-5.143c0.063-0.127 0.148-0.233 0.254-0.317s0.254-0.127 0.444-0.127h9.365c0.169 0 0.312 0.042 0.428 0.127s0.196 0.19 0.238 0.317l1.778 5.143v7.112c0 0.19-0.058 0.344-0.174 0.46s-0.27 0.174-0.46 0.174h-0.444c-0.17 0-0.313-0.058-0.429-0.174s-0.174-0.27-0.174-0.46v-1.524h-10.889v1.524c0 0.19-0.058 0.344-0.174 0.46s-0.259 0.174-0.428 0.174h-0.476c-0.17 0-0.313-0.058-0.429-0.174s-0.174-0.27-0.174-0.46zM16.635 16.413h10.984l-1.143-3.365h-8.699l-1.143 3.365zM18.286 20.889c0.317 0 0.593-0.116 0.825-0.349s0.349-0.519 0.349-0.857c0-0.317-0.116-0.593-0.349-0.826s-0.508-0.349-0.825-0.349c-0.339 0-0.625 0.116-0.857 0.349s-0.35 0.508-0.35 0.826c0 0.338 0.117 0.624 0.35 0.857s0.518 0.349 0.857 0.349zM26 20.889c0.317 0 0.593-0.116 0.825-0.349s0.349-0.519 0.349-0.857c0-0.317-0.116-0.593-0.349-0.826s-0.508-0.349-0.825-0.349c-0.339 0-0.619 0.116-0.842 0.349s-0.333 0.508-0.333 0.826c0 0.338 0.111 0.624 0.333 0.857s0.503 0.349 0.842 0.349zM7.174 25.016v-0.54l1.969-1.968c-1.186 0-2.244-0.312-3.175-0.936s-1.397-1.487-1.397-2.587v-10.603c0-1.143 0.593-1.937 1.778-2.381s3.227-0.667 6.127-0.667c2.814 0 4.836 0.233 6.063 0.699s1.842 1.249 1.842 2.349v1.874h-1.588v-2.064h-12.635v8.699h7.238v8.127h-6.222zM7.936 20.159c0.318 0 0.593-0.117 0.826-0.35s0.349-0.508 0.349-0.825c0-0.339-0.116-0.625-0.349-0.857s-0.508-0.349-0.826-0.349c-0.338 0-0.619 0.116-0.841 0.349s-0.333 0.518-0.333 0.857c0 0.317 0.111 0.593 0.333 0.825s0.503 0.35 0.841 0.35zM16.222 21.81h11.842v-4.19h-11.842v4.19z"></path>
</symbol>
<symbol id="icon-cars" viewBox="0 0 34 32">
<path fill="#fff" style="fill: var(--color1, #fff)" d="M14.857 24.603v-7.112l1.746-5.143c0.063-0.127 0.148-0.233 0.254-0.317s0.254-0.127 0.444-0.127h9.365c0.169 0 0.312 0.042 0.428 0.127s0.196 0.19 0.238 0.317l1.778 5.143v7.112c0 0.19-0.058 0.344-0.174 0.46s-0.27 0.174-0.46 0.174h-0.444c-0.17 0-0.313-0.058-0.429-0.174s-0.174-0.27-0.174-0.46v-1.524h-10.889v1.524c0 0.19-0.058 0.344-0.174 0.46s-0.259 0.174-0.428 0.174h-0.476c-0.17 0-0.313-0.058-0.429-0.174s-0.174-0.27-0.174-0.46zM16.476 16.476h10.984l-1.143-3.365h-8.699l-1.143 3.365zM18.127 20.952c0.317 0 0.593-0.116 0.825-0.349s0.349-0.519 0.349-0.857c0-0.317-0.116-0.593-0.349-0.826s-0.508-0.349-0.825-0.349c-0.339 0-0.625 0.116-0.857 0.349s-0.35 0.508-0.35 0.826c0 0.338 0.117 0.624 0.35 0.857s0.518 0.349 0.857 0.349zM25.842 20.952c0.317 0 0.593-0.116 0.825-0.349s0.349-0.519 0.349-0.857c0-0.317-0.116-0.593-0.349-0.826s-0.508-0.349-0.825-0.349c-0.339 0-0.619 0.116-0.842 0.349s-0.333 0.508-0.333 0.826c0 0.338 0.111 0.624 0.333 0.857s0.503 0.349 0.842 0.349zM7.016 25.080v-0.54l1.969-1.968c-1.186 0-2.244-0.312-3.175-0.936s-1.397-1.487-1.397-2.587v-10.603c0-1.143 0.593-1.937 1.778-2.381s3.227-0.667 6.127-0.667c2.814 0 4.836 0.233 6.063 0.699s1.842 1.249 1.842 2.349v1.874h-1.588v-2.064h-12.635v8.699h7.238v8.127h-6.222zM7.778 20.222c0.317 0 0.593-0.117 0.826-0.35s0.349-0.508 0.349-0.825c0-0.339-0.116-0.625-0.349-0.857s-0.508-0.349-0.826-0.349c-0.338 0-0.619 0.116-0.841 0.349s-0.333 0.518-0.333 0.857c0 0.317 0.111 0.593 0.333 0.825s0.503 0.35 0.841 0.35zM16.063 21.873h11.842v-4.19h-11.842v4.19z"></path>
<path fill="#fff" style="fill: var(--color1, #fff)" d="M15.016 24.54v-7.112l1.746-5.143c0.063-0.127 0.148-0.233 0.254-0.317s0.254-0.127 0.444-0.127h9.365c0.169 0 0.312 0.042 0.428 0.127s0.196 0.19 0.238 0.317l1.778 5.143v7.112c0 0.19-0.058 0.344-0.174 0.46s-0.27 0.174-0.46 0.174h-0.444c-0.17 0-0.313-0.058-0.429-0.174s-0.174-0.27-0.174-0.46v-1.524h-10.889v1.524c0 0.19-0.058 0.344-0.174 0.46s-0.259 0.174-0.428 0.174h-0.476c-0.17 0-0.313-0.058-0.429-0.174s-0.174-0.27-0.174-0.46zM16.635 16.413h10.984l-1.143-3.365h-8.699l-1.143 3.365zM18.286 20.889c0.317 0 0.593-0.116 0.825-0.349s0.349-0.519 0.349-0.857c0-0.317-0.116-0.593-0.349-0.826s-0.508-0.349-0.825-0.349c-0.339 0-0.625 0.116-0.857 0.349s-0.35 0.508-0.35 0.826c0 0.338 0.117 0.624 0.35 0.857s0.518 0.349 0.857 0.349zM26 20.889c0.317 0 0.593-0.116 0.825-0.349s0.349-0.519 0.349-0.857c0-0.317-0.116-0.593-0.349-0.826s-0.508-0.349-0.825-0.349c-0.339 0-0.619 0.116-0.842 0.349s-0.333 0.508-0.333 0.826c0 0.338 0.111 0.624 0.333 0.857s0.503 0.349 0.842 0.349zM7.174 25.016v-0.54l1.969-1.968c-1.186 0-2.244-0.312-3.175-0.936s-1.397-1.487-1.397-2.587v-10.603c0-1.143 0.593-1.937 1.778-2.381s3.227-0.667 6.127-0.667c2.814 0 4.836 0.233 6.063 0.699s1.842 1.249 1.842 2.349v1.874h-1.588v-2.064h-12.635v8.699h7.238v8.127h-6.222zM7.936 20.159c0.318 0 0.593-0.117 0.826-0.35s0.349-0.508 0.349-0.825c0-0.339-0.116-0.625-0.349-0.857s-0.508-0.349-0.826-0.349c-0.338 0-0.619 0.116-0.841 0.349s-0.333 0.518-0.333 0.857c0 0.317 0.111 0.593 0.333 0.825s0.503 0.35 0.841 0.35zM16.222 21.81h11.842v-4.19h-11.842v4.19z"></path>
</symbol>
<symbol id="icon-background-1" viewBox="0 0 80 32">
<path fill="#ccf7fb" style="fill: var(--color2, #ccf7fb)" opacity="0.4" d="M0 11.304v-11.304h63.789c6.243 0 11.305 5.061 11.305 11.304 5.587 0 5.587 9.217 0 9.217v11.478h-75.094v-11.478c5.869 0 6.042-9.217 0-9.217z"></path>
<path fill="rgba(183, 232, 250, 0.7)"  stroke="rgba(183, 232, 250, 0.7)" style="stroke:rgba(183, 232, 250, 0.7) " stroke-linejoin="miter" stroke-linecap="butt" stroke-miterlimit="4" stroke-width="0.6809" d="M3.633 12.523c-0.751-0.875-1.854-1.469-3.292-1.549v-10.633h63.449c6.055 0 10.964 4.909 10.964 10.964v0.34h0.34c1.292 0 2.243 0.528 2.878 1.314 0.641 0.794 0.972 1.867 0.972 2.954s-0.33 2.161-0.972 2.955c-0.635 0.785-1.586 1.314-2.878 1.314h-0.34v11.478h-74.413v-10.807c1.4-0.083 2.49-0.677 3.243-1.548 0.807-0.933 1.212-2.166 1.224-3.388s-0.371-2.458-1.175-3.393z"></path>
</symbol>
<symbol id="icon-background-2" viewBox="0 0 80 32">
<path fill="#ccf7fb" style="fill: var(--color2, #ccf7fb)" opacity="0.4" d="M0 11.304v-11.304h75.094v11.304c5.587 0 5.587 9.217 0 9.217v11.478h-75.094v-11.478c5.869 0 6.042-9.217 0-9.217z"></path>
<path fill="rgba(57, 61, 135, 0.2)" stroke="#000" style="stroke:rgba(204, 247, 251, 0.4); " stroke-linejoin="miter" stroke-linecap="butt" stroke-miterlimit="4" stroke-width="0.6809" d="M74.753 20.522v11.138h-74.413v-10.807c1.4-0.083 2.49-0.677 3.243-1.548 0.807-0.933 1.212-2.166 1.224-3.388s-0.371-2.458-1.175-3.393c-0.751-0.875-1.854-1.469-3.292-1.549v-10.633h74.413v11.304h0.34c1.292 0 2.243 0.528 2.878 1.314 0.641 0.794 0.972 1.867 0.972 2.954s-0.33 2.161-0.972 2.955c-0.635 0.785-1.586 1.314-2.878 1.314h-0.34v0.34z"  ></path>
</symbol>
<symbol id="icon-background-3" viewBox="0 0 80 32">
<path fill="#ccf7fb" style="fill: var(--color2, #ccf7fb)" opacity="0.4" d="M0 11.304v-11.304h75.094v11.304c5.587 0 5.587 9.217 0 9.217v11.478h-75.094v-11.478c5.869 0 6.042-9.217 0-9.217z"></path>
<path fill="none" stroke="#000" style="stroke: var(--color3, #000)" stroke-linejoin="miter" stroke-linecap="butt" stroke-miterlimit="4" stroke-width="0.6809" d="M74.753 20.522v11.138h-74.413v-10.807c1.4-0.083 2.49-0.677 3.243-1.548 0.807-0.933 1.212-2.166 1.224-3.388s-0.371-2.458-1.175-3.393c-0.751-0.875-1.854-1.469-3.292-1.549v-10.633h74.413v11.304h0.34c1.292 0 2.243 0.528 2.878 1.314 0.641 0.794 0.972 1.867 0.972 2.954s-0.33 2.161-0.972 2.955c-0.635 0.785-1.586 1.314-2.878 1.314h-0.34v0.34z"></path>
</symbol>
<symbol id="icon-background-4" viewBox="0 0 80 32">
<path fill="#ccf7fb" style="fill: var(--color2, #ccf7fb)" opacity="0.4" d="M0 11.304v-11.304h75.094v11.304c5.587 0 5.587 9.217 0 9.217v11.478h-75.094v-11.478c5.869 0 6.042-9.217 0-9.217z"></path>
<path fill="none" stroke="#000" style="stroke: var(--color3, #000)" stroke-linejoin="miter" stroke-linecap="butt" stroke-miterlimit="4" stroke-width="0.6809" d="M74.753 20.522v11.138h-74.413v-10.807c1.4-0.083 2.49-0.677 3.243-1.548 0.807-0.933 1.212-2.166 1.224-3.388s-0.371-2.458-1.175-3.393c-0.751-0.875-1.854-1.469-3.292-1.549v-10.633h74.413v11.304h0.34c1.292 0 2.243 0.528 2.878 1.314 0.641 0.794 0.972 1.867 0.972 2.954s-0.33 2.161-0.972 2.955c-0.635 0.785-1.586 1.314-2.878 1.314h-0.34v0.34z"></path>
</symbol>
<symbol id="icon-background-5" viewBox="0 0 80 32">
<path fill="#ccf7fb" style="fill: var(--color2, #ccf7fb)" opacity="0.4" d="M0 11.304v-11.304h75.094v11.304c5.587 0 5.587 9.217 0 9.217v11.478h-75.094v-11.478c5.869 0 6.042-9.217 0-9.217z"></path>
<path fill="none" stroke="#000" style="stroke: var(--color3, #000)" stroke-linejoin="miter" stroke-linecap="butt" stroke-miterlimit="4" stroke-width="0.6809" d="M74.753 20.522v11.138h-74.413v-10.807c1.4-0.083 2.49-0.677 3.243-1.548 0.807-0.933 1.212-2.166 1.224-3.388s-0.371-2.458-1.175-3.393c-0.751-0.875-1.854-1.469-3.292-1.549v-10.633h74.413v11.304h0.34c1.292 0 2.243 0.528 2.878 1.314 0.641 0.794 0.972 1.867 0.972 2.954s-0.33 2.161-0.972 2.955c-0.635 0.785-1.586 1.314-2.878 1.314h-0.34v0.34z"></path>
</symbol>
<symbol id="icon-background-6" viewBox="0 0 80 32">
<path fill="#ccf7fb" style="fill: var(--color2, #ccf7fb)" opacity="0.4" d="M0 11.304v-11.304h75.094v11.304c5.587 0 5.587 9.217 0 9.217v11.478h-75.094v-11.478c5.869 0 6.042-9.217 0-9.217z"></path>
<path fill="none" stroke="#393d87" style="stroke: var(--color4, #393d87)" stroke-linejoin="miter" stroke-linecap="butt" stroke-miterlimit="4" stroke-width="0.6809" d="M74.753 20.522v11.138h-74.413v-10.807c1.4-0.083 2.49-0.677 3.243-1.548 0.807-0.933 1.212-2.166 1.224-3.388s-0.371-2.458-1.175-3.393c-0.751-0.875-1.854-1.469-3.292-1.549v-10.633h74.413v11.304h0.34c1.292 0 2.243 0.528 2.878 1.314 0.641 0.794 0.972 1.867 0.972 2.954s-0.33 2.161-0.972 2.955c-0.635 0.785-1.586 1.314-2.878 1.314h-0.34v0.34z"></path>
</symbol>
<symbol id="icon-background-7" viewBox="0 0 80 32">
<path fill="#b7e8fa" style="fill: var(--color5, #b7e8fa)" opacity="0.7" d="M0 20.522c5.869 0 6.042-9.217 0-9.217 0-6.243 5.061-11.304 11.304-11.304h63.789v11.304c5.587 0 5.587 9.217 0 9.217v11.478h-75.094v-11.478z"></path>
</symbol>
<symbol id="icon-direction" viewBox="0 0 29 32">
<path fill="none" stroke="#fff" style="stroke: var(--color1, #fff)" stroke-linejoin="round" stroke-linecap="round" stroke-miterlimit="4" stroke-width="2.9091" d="M27.636 7.273h-26.182M27.636 7.273l-5.818 5.818M27.636 7.273l-5.818-5.818M1.455 24.727h26.182M1.455 24.727l5.818 5.818M1.455 24.727l5.818-5.818"></path>
</symbol>
<symbol id="icon-login" viewBox="0 0 32 32">
<path fill="#fff" style="fill: var(--color1, #fff)" d="M16 27.2v-2.4h8.8v-17.6h-8.8v-2.4h8.8c0.667 0 1.233 0.234 1.699 0.701 0.467 0.466 0.701 1.033 0.701 1.699v17.6c0 0.667-0.234 1.233-0.701 1.699-0.466 0.467-1.032 0.701-1.699 0.701h-8.8zM13.6 21.6l-1.699-1.699 2.699-2.701h-9.8v-2.4h9.8l-2.699-2.701 1.699-1.699 5.6 5.6-5.6 5.6z"></path>
</symbol>
<symbol id="icon-search" viewBox="0 0 33 32">
<path fill="#fff" style="fill: var(--color1, #fff)" d="M30.247 31.716l-11.654-11.52c-0.974 0.743-2.040 1.315-3.194 1.718-1.061 0.384-2.286 0.607-3.563 0.607-0.007 0-0.014 0-0.020-0h0.001c-3.057 0-5.649-1.057-7.777-3.172-2.13-2.115-3.196-4.687-3.196-7.72 0-3.001 1.066-5.565 3.196-7.694 2.129-2.131 4.721-3.197 7.777-3.197 3.022 0 5.599 1.057 7.727 3.172 2.13 2.115 3.194 4.687 3.194 7.719 0 1.258-0.203 2.468-0.611 3.63-0.421 1.203-0.991 2.246-1.703 3.174l0.020-0.027 11.608 11.52-1.805 1.791zM11.816 20.001c2.34 0 4.323-0.814 5.946-2.443 1.626-1.629 2.439-3.606 2.439-5.93s-0.813-4.299-2.439-5.928c-1.624-1.629-3.606-2.445-5.946-2.445-2.374 0-4.373 0.815-5.999 2.445-1.624 1.629-2.436 3.606-2.436 5.928 0 2.323 0.813 4.299 2.436 5.93 1.626 1.628 3.626 2.445 5.999 2.445z"></path>
</symbol>
<symbol id="icon-logo" viewBox="0 0 134 32">
<path fill="#fff" style="fill: var(--color1, #fff)" d="M77.183 10.574l-6.859 14.975h-6.871v-14.975h-1.739v16.537h9.741l1.975-4.4h9.219l1.975 4.4h1.839l-7.554-16.486-1.728-0.050zM74.064 21.248l3.989-8.875 3.975 8.875h-7.965zM104.679 23.95l-2.187-2.752v-10.624h-1.728v8.454l-6.734-8.454h-1.441v3.111l-2.485-3.111h-1.429v16.537h1.803v-13.425l2.162 2.727v10.699h1.751v-8.493l6.709 8.443h1.441v-3.111l2.485 3.111h1.441v-16.487h-1.727l-0.062 13.376zM100.765 23.95l-6.423-8.070v-2.194l6.425 8.095v2.17zM110.593 19.424h8.537v-1.487h-8.537v-5.862h9.58v-1.501h-11.331v16.487h11.692v-1.513h-9.94v-6.125zM134.4 27.11l-4.038-5.664 0.646-0.237c0.965-0.414 1.756-1.079 2.311-1.915l0.012-0.019c0.508-0.806 0.81-1.786 0.81-2.837 0-0.057-0.001-0.114-0.003-0.171l0 0.008c0.035-1.073-0.245-2.133-0.807-3.050-0.567-0.855-1.358-1.52-2.289-1.921l-0.034-0.013c-1.001-0.425-2.166-0.672-3.388-0.672-0.080 0-0.16 0.001-0.24 0.003l0.012-0h-4.771v16.486h1.753v-5.28h3.019c0.445-0.003 0.889-0.032 1.329-0.087l3.728 5.318 1.951 0.049zM127.343 20.391h-2.97v-8.305h2.97c0.11-0.008 0.238-0.012 0.367-0.012 1.263 0 2.43 0.409 3.376 1.101l-0.016-0.011c0.769 0.697 1.251 1.699 1.251 2.814 0 0.087-0.003 0.173-0.009 0.259l0.001-0.012c0.006 0.078 0.009 0.168 0.009 0.259 0 1.104-0.482 2.096-1.248 2.775l-0.004 0.003c-0.93 0.681-2.098 1.090-3.36 1.090-0.129 0-0.257-0.004-0.384-0.013l0.017 0.001v0.049zM31.174 12.358c0.291-0.565 0.462-1.233 0.462-1.94 0-0.059-0.001-0.117-0.003-0.175l0 0.008c0.002-0.052 0.004-0.114 0.004-0.175 0-0.7-0.181-1.357-0.498-1.928l0.010 0.020c-0.341-0.518-0.792-0.937-1.323-1.23l-0.019-0.010c-0.602-0.316-1.302-0.539-2.044-0.629l-0.029-0.003c-0.754-0.104-1.625-0.163-2.51-0.163-0.048 0-0.096 0-0.144 0.001l0.007-0h-0.46v8.505h2.485c0.508-0.007 1.013-0.078 1.503-0.211 0.562-0.166 1.050-0.42 1.477-0.751l-0.010 0.008c0.454-0.359 0.828-0.812 1.093-1.327z"></path>
<path fill="#fff" style="fill: var(--color1, #fff)" d="M37.374 5.293h-7.454c0.822 0.205 1.544 0.538 2.183 0.982l-0.022-0.014c1.117 0.816 1.835 2.122 1.835 3.595 0 0.091-0.003 0.182-0.008 0.272l0.001-0.012c0.001 0.038 0.002 0.083 0.002 0.127 0 0.755-0.156 1.474-0.438 2.126l0.013-0.035c-0.271 0.643-0.649 1.192-1.117 1.648l-0.001 0.001c-0.471 0.449-1.022 0.82-1.627 1.088l-0.037 0.014c-0.582 0.263-1.262 0.478-1.97 0.611l-0.057 0.009 2.411 3.719c0.585 0.893 1.243 1.773 1.777 2.628s1.243 1.747 1.789 2.665c0.149 0.224 0.323 0.459 0.523 0.707 0.179 0.24 0.379 0.463 0.596 0.669 0.201 0.191 0.427 0.353 0.671 0.483 0.221 0.122 0.469 0.186 0.72 0.187h0.174c0.001 0 0.002 0 0.003 0 0.182 0 0.348-0.071 0.47-0.187l-0 0c0.142-0.137 0.259-0.295 0.348-0.47 0.093-0.171 0.17-0.37 0.221-0.578l0.003-0.017c0.008-0.089 0.013-0.193 0.013-0.298s-0.005-0.208-0.014-0.311l0.001 0.013v-17.887c0.007-0.080 0.012-0.173 0.012-0.267s-0.004-0.187-0.012-0.279l0.001 0.012c-0.053-0.216-0.13-0.406-0.23-0.581l0.006 0.011c-0.097-0.171-0.212-0.318-0.347-0.445l-0.001-0.001c-0.114-0.108-0.265-0.177-0.432-0.187l-0.002-0zM52.532 11.925h-5.258v8.058h5.257c0 0 0 0 0 0 1.115 0 2.124-0.451 2.855-1.181l-0 0c0.73-0.729 1.182-1.736 1.182-2.849s-0.452-2.12-1.181-2.848l-0-0c-0.731-0.729-1.74-1.18-2.854-1.18-0 0-0.001 0-0.001 0h0z"></path>
<path fill="#fff" style="fill: var(--color1, #fff)" d="M53.489 9.52v-4.871c0-1.233-0.491-2.415-1.365-3.287-0.843-0.841-2.007-1.361-3.293-1.361h-44.172c-1.235 0-2.421 0.491-3.294 1.361-0.843 0.841-1.365 2.003-1.365 3.287v7.277h0.932c0 0 0.001 0 0.001 0 1.114 0 2.123 0.451 2.854 1.18l-0-0c0.73 0.729 1.182 1.736 1.182 2.849s-0.452 2.12-1.182 2.849l-0 0c-0.731 0.729-1.74 1.18-2.854 1.18-0 0-0.001 0-0.001 0h-0.932v7.277c0 1.232 0.491 2.415 1.365 3.286 0.844 0.842 2.008 1.362 3.294 1.362h44.145c1.236 0 2.421-0.491 3.296-1.362 0.843-0.84 1.364-2.003 1.364-3.286v-4.873h0.099c1.593-0.258 2.964-1.060 3.945-2.207l0.007-0.009c0.964-1.127 1.55-2.601 1.55-4.213 0-1.638-0.606-3.134-1.606-4.277l0.006 0.008c-1-1.143-2.38-1.93-3.942-2.165l-0.036-0.004zM42.021 5.293h-0.175c-0.17 0.006-0.322 0.076-0.434 0.187l0-0c-0.132 0.124-0.243 0.266-0.331 0.424l-0.005 0.009c-0.096 0.18-0.167 0.372-0.211 0.571-0.052 0.162-0.083 0.349-0.086 0.543l-0 0.002v20.082h-4.971c-0.042 0.002-0.092 0.003-0.142 0.003-0.772 0-1.486-0.247-2.067-0.667l0.010 0.007c-0.602-0.435-1.109-0.957-1.515-1.553l-0.014-0.022c-0.226-0.263-1.216-1.725-2.196-3.195l-0.811-1.292c-1.007-1.525-1.963-3.012-2.919-4.437l-0.783-0.087c-0.299-0.048-0.551-0.104-0.798-0.172l0.051 0.012v11.404h-10.659v-20.912h-3.902c-0.015-0-0.032-0.001-0.050-0.001-0.324 0-0.628 0.087-0.89 0.24l0.008-0.005c-0.265 0.143-0.494 0.341-0.672 0.583-0.177 0.217-0.317 0.473-0.405 0.752l-0.004 0.016c-0.085 0.265-0.131 0.541-0.137 0.818h-0.336v-3.643h34.443v0.334zM53.514 21.767l-1.863 0.075h-4.373v5.269h-1.863v-17.046h6.212l1.863 0.075c1.386 0.221 2.645 0.928 3.556 1.994 0.876 1.021 1.41 2.358 1.41 3.82s-0.533 2.799-1.416 3.828l0.007-0.008c-0.891 1.038-2.124 1.76-3.522 1.99l-0.034 0.005h0.025z"></path>
<path fill="#fff" style="fill: var(--color1, #fff)" d="M22.141 7.785c-0.093-0.295-0.233-0.551-0.413-0.772l0.003 0.004c-0.179-0.24-0.402-0.436-0.66-0.577l-0.011-0.005c-0.253-0.149-0.558-0.236-0.883-0.236-0.017 0-0.035 0-0.052 0.001l0.003-0h-3.914v18.681c0.003 0.201 0.025 0.399 0.062 0.595 0.047 0.204 0.122 0.4 0.224 0.582 0.095 0.169 0.207 0.326 0.336 0.471 0.106 0.122 0.261 0.199 0.434 0.199 0.005 0 0.009-0 0.014-0h3.975c0.173-0.004 0.327-0.080 0.435-0.198l0-0c0.283-0.293 0.48-0.658 0.572-1.054 0.011-0.089 0.017-0.193 0.017-0.298s-0.006-0.208-0.019-0.31l0.001 0.012v-16.276c-0.001-0.277-0.043-0.553-0.125-0.818z"></path>
</symbol>
</defs>
</svg>
