<svg aria-hidden="true" style="position: absolute; width: 0; height: 0; overflow: hidden;" version="1.1" xmlns="http://www.w3.org/2000/svg" xmlns:xlink="http://www.w3.org/1999/xlink">
<defs>
<symbol id="icon-favorite" viewBox="0 0 34 32">
<path fill="#e37683" style="#e9a283" d="M17.067 30.933l-2.223-2.001c-2.962-2.637-5.407-4.896-7.332-6.778s-3.445-3.556-4.557-5.022c-1.111-1.466-1.881-2.807-2.31-4.021s-0.644-2.459-0.644-3.733c0-2.637 0.904-4.859 2.711-6.667s4.030-2.711 6.667-2.711c1.452 0 2.859 0.311 4.222 0.934 1.363 0.622 2.518 1.495 3.467 2.622 0.949-1.126 2.104-2 3.467-2.622 1.363-0.623 2.77-0.934 4.222-0.934 2.637 0 4.859 0.904 6.667 2.711s2.711 4.030 2.711 6.667c0 1.274-0.208 2.504-0.623 3.689-0.414 1.185-1.177 2.503-2.289 3.955-1.111 1.452-2.636 3.134-4.576 5.045-1.941 1.911-4.423 4.23-7.445 6.955l-2.133 1.911z"></path>
</symbol>
<symbol id="icon-bus" viewBox="0 0 32 32">
<path fill="#fff" style="fill: var(--color1, #fff)" d="M8.834 27.334c-0.245 0-0.45-0.072-0.617-0.217s-0.25-0.339-0.25-0.583v-2.667c-0.533-0.267-0.994-0.717-1.383-1.35s-0.583-1.339-0.583-2.117v-12.7c0-1.511 0.8-2.617 2.4-3.317s4.133-1.050 7.6-1.050c3.533 0 6.083 0.344 7.65 1.033s2.35 1.8 2.35 3.334v12.7c0 0.778-0.194 1.483-0.583 2.117s-0.85 1.083-1.383 1.35v2.667c0 0.244-0.083 0.439-0.25 0.583s-0.372 0.217-0.617 0.217h-0.466c-0.267 0-0.489-0.072-0.666-0.217s-0.267-0.339-0.267-0.583v-1.9h-11.533v1.9c0 0.244-0.089 0.439-0.267 0.583s-0.4 0.217-0.666 0.217h-0.466zM7.666 14.466h16.667v-5.833h-16.667v5.833zM11.1 21.2c0.467 0 0.861-0.161 1.183-0.483s0.483-0.717 0.483-1.183c0-0.445-0.161-0.834-0.483-1.167s-0.717-0.5-1.183-0.5c-0.467 0-0.861 0.167-1.183 0.5s-0.483 0.722-0.483 1.167c0 0.467 0.167 0.861 0.5 1.183s0.722 0.483 1.166 0.483zM20.9 21.2c0.467 0 0.861-0.161 1.183-0.483s0.483-0.717 0.483-1.183c0-0.445-0.167-0.834-0.5-1.167s-0.722-0.5-1.166-0.5c-0.467 0-0.861 0.167-1.183 0.5s-0.483 0.722-0.483 1.167c0 0.467 0.161 0.861 0.483 1.183s0.717 0.483 1.183 0.483zM7.766 6.966h16.5c-0.378-0.644-1.239-1.133-2.583-1.466s-3.228-0.5-5.65-0.5c-2.622 0-4.578 0.161-5.867 0.483s-2.089 0.817-2.4 1.483zM10.366 22.966h11.267c0.755 0 1.394-0.283 1.917-0.85s0.783-1.228 0.783-1.983v-4h-16.667v4c0 0.755 0.261 1.416 0.783 1.983s1.162 0.85 1.917 0.85z"></path>

</symbol>
<symbol id="icon-car" viewBox="0 0 32 32">
<path fill="#fff" style="fill: var(--color1, #fff)" d="M6.834 24.6v1.9c0 0.244-0.078 0.444-0.234 0.6s-0.356 0.234-0.6 0.234h-0.5c-0.244 0-0.444-0.078-0.6-0.234s-0.234-0.356-0.234-0.6v-10.3l2.734-8.034c0.089-0.244 0.245-0.444 0.466-0.6s0.478-0.233 0.767-0.233h14.8c0.267 0 0.506 0.072 0.717 0.217s0.361 0.349 0.45 0.616l2.734 8.034v10.3c0 0.244-0.078 0.444-0.234 0.6s-0.356 0.234-0.6 0.234h-0.5c-0.244 0-0.444-0.078-0.6-0.234s-0.234-0.356-0.234-0.6v-1.9h-18.333zM7 14.534h18l-1.9-5.534h-14.2l-1.9 5.534zM9.734 21.234c0.467 0 0.855-0.161 1.166-0.483s0.466-0.717 0.466-1.184-0.161-0.861-0.483-1.183c-0.322-0.322-0.705-0.483-1.15-0.483-0.467 0-0.867 0.161-1.2 0.483s-0.5 0.717-0.5 1.183c0 0.467 0.167 0.861 0.5 1.184s0.733 0.483 1.2 0.483zM22.3 21.234c0.467 0 0.861-0.161 1.183-0.483s0.483-0.717 0.483-1.184-0.161-0.861-0.483-1.183c-0.322-0.322-0.717-0.483-1.183-0.483s-0.861 0.161-1.183 0.483c-0.322 0.322-0.483 0.717-0.483 1.183s0.167 0.861 0.5 1.184c0.333 0.322 0.722 0.483 1.166 0.483zM6.334 22.934h19.333v-6.734h-19.333v6.734z"></path>
</symbol>
<symbol id="icon-shelter" viewBox="0 0 32 32">
<path fill="#fff" style="fill: var(--color1, #fff)" d="M6 27.334v-15l10-7.534 10 7.534v15h-20zM7.666 25.666h16.667v-12.5l-8.334-6.266-8.334 6.266v12.5zM9.834 23.634h1.233v-1.834h9.867v1.834h1.233v-4.9c0-0.689-0.244-1.273-0.733-1.75s-1.067-0.717-1.734-0.717h-4.3v4.3h-4.334v-5.533h-1.233v8.6zM13.234 19.934c0.422 0 0.783-0.145 1.083-0.434s0.45-0.656 0.45-1.1c0-0.422-0.15-0.783-0.45-1.083s-0.661-0.45-1.083-0.45c-0.445 0-0.811 0.15-1.1 0.45s-0.434 0.661-0.434 1.083c0 0.444 0.15 0.811 0.45 1.1s0.661 0.434 1.083 0.434z"></path>
</symbol>
<symbol id="icon-railway" viewBox="0 0 32 32">
<path fill="#fff" style="fill: var(--color1, #fff)" d="M8.266 26.966v-0.966l2-1.334c-1.2 0-2.211-0.411-3.033-1.233s-1.234-1.834-1.234-3.034v-12.4c0-1.622 0.789-2.806 2.366-3.55s4.123-1.117 7.634-1.117c3.578 0 6.139 0.361 7.683 1.083s2.317 1.917 2.317 3.583v12.4c0 1.2-0.411 2.211-1.234 3.034s-1.833 1.233-3.033 1.233l2 1.334v0.966h-15.467zM7.666 14.234h16.667v-5.534h-16.667v5.534zM16 21.166c0.467 0 0.861-0.161 1.183-0.483s0.483-0.717 0.483-1.183c0-0.467-0.161-0.861-0.483-1.183s-0.717-0.483-1.183-0.483c-0.467 0-0.861 0.161-1.183 0.483s-0.483 0.717-0.483 1.183c0 0.467 0.161 0.861 0.483 1.183s0.717 0.483 1.183 0.483zM10.266 23.066h11.467c0.733 0 1.35-0.261 1.85-0.783s0.75-1.15 0.75-1.883v-4.5h-16.667v4.5c0 0.733 0.25 1.361 0.75 1.883s1.116 0.783 1.85 0.783zM16 5c-2.533 0-4.411 0.172-5.634 0.517s-2.033 0.85-2.433 1.517h16.2c-0.311-0.667-1.111-1.172-2.4-1.517s-3.2-0.517-5.734-0.517z"></path>
</symbol>
<symbol id="icon-flight" viewBox="0 0 32 32">
<path fill="#fff" style="fill: var(--color1, #fff)" d="M11.834 28.9v-1.266l2.666-2v-8.267l-11.5 3.367v-1.7l11.5-6.767v-7.766c0-0.422 0.145-0.778 0.434-1.066s0.644-0.434 1.066-0.434 0.778 0.145 1.066 0.434c0.289 0.289 0.434 0.644 0.434 1.066v7.766l11.5 6.767v1.7l-11.5-3.367v8.267l2.666 2v1.266l-4.166-1.2-4.166 1.2z"></path>
</symbol>
<symbol id="icon-attractions" viewBox="0 0 32 32">
<path fill="#fff" style="fill: var(--color1, #fff)" d="M8.4 28.834l1.634-3.7c-0.378-0.267-0.728-0.533-1.050-0.8s-0.639-0.567-0.95-0.9c-0.156 0.089-0.328 0.15-0.517 0.183s-0.361 0.050-0.517 0.050c-0.689 0-1.273-0.239-1.75-0.716s-0.716-1.050-0.716-1.717c0-0.4 0.094-0.778 0.283-1.134s0.439-0.634 0.75-0.834c-0.178-0.533-0.311-1.067-0.4-1.6s-0.133-1.089-0.133-1.666c0-0.6 0.044-1.167 0.133-1.7s0.222-1.067 0.4-1.6c-0.311-0.222-0.561-0.506-0.75-0.85s-0.283-0.717-0.283-1.117c0-0.667 0.239-1.239 0.716-1.717s1.061-0.717 1.75-0.717c0.156 0 0.322 0.022 0.5 0.066s0.344 0.101 0.5 0.167c0.756-0.8 1.595-1.472 2.517-2.017s1.939-0.939 3.050-1.183c0.089-0.645 0.367-1.167 0.834-1.567s1-0.6 1.6-0.6c0.6 0 1.139 0.2 1.617 0.6s0.75 0.911 0.817 1.534c1.133 0.267 2.178 0.655 3.133 1.166s1.811 1.178 2.567 2c0.133-0.067 0.278-0.111 0.433-0.133s0.3-0.034 0.434-0.034c0.689 0 1.273 0.239 1.75 0.717s0.716 1.050 0.716 1.717c0 0.422-0.094 0.799-0.283 1.133s-0.428 0.6-0.717 0.8c0.178 0.556 0.306 1.1 0.383 1.634s0.117 1.1 0.117 1.7c0 0.578-0.039 1.139-0.117 1.683s-0.205 1.072-0.383 1.583c0.311 0.245 0.55 0.539 0.717 0.884s0.25 0.705 0.25 1.083c0 0.667-0.239 1.239-0.717 1.717s-1.050 0.716-1.717 0.716c-0.178 0-0.35-0.017-0.517-0.050s-0.327-0.084-0.483-0.15c-0.311 0.333-0.628 0.639-0.95 0.917s-0.672 0.539-1.050 0.783l1.6 3.667h-1.634l-1.3-2.9c-0.378 0.155-0.744 0.294-1.1 0.417s-0.733 0.227-1.133 0.316c-0.089 0.645-0.367 1.162-0.834 1.55s-1 0.583-1.6 0.583c-0.6 0-1.133-0.194-1.6-0.583s-0.745-0.906-0.834-1.55c-0.4-0.111-0.778-0.227-1.133-0.35s-0.711-0.272-1.067-0.45l-1.366 2.967h-1.6zM10.634 23.766l2.466-5.5c-0.267-0.333-0.467-0.689-0.6-1.066s-0.2-0.778-0.2-1.2c0-1.022 0.372-1.895 1.117-2.617s1.628-1.083 2.65-1.083c1 0 1.856 0.361 2.567 1.083s1.066 1.594 1.066 2.617c0 0.422-0.067 0.828-0.2 1.217s-0.345 0.75-0.634 1.083l2.5 5.466c0.267-0.178 0.533-0.378 0.8-0.6s0.511-0.466 0.734-0.733c-0.111-0.156-0.194-0.339-0.25-0.55s-0.083-0.428-0.083-0.65c0-0.667 0.239-1.239 0.717-1.717s1.061-0.706 1.75-0.683c0.133-0.445 0.244-0.906 0.333-1.384s0.134-0.961 0.134-1.45c0-0.533-0.045-1.033-0.134-1.5s-0.199-0.922-0.333-1.366c-0.667 0.044-1.245-0.178-1.734-0.667s-0.734-1.066-0.734-1.733c0-0.222 0.033-0.434 0.1-0.634s0.156-0.389 0.267-0.566c-0.667-0.689-1.4-1.261-2.2-1.717s-1.667-0.806-2.6-1.050c-0.178 0.356-0.456 0.656-0.834 0.9s-0.811 0.367-1.3 0.367-0.922-0.122-1.3-0.367c-0.378-0.244-0.655-0.544-0.834-0.9-0.955 0.245-1.833 0.595-2.633 1.050s-1.522 1.039-2.167 1.75c0.111 0.178 0.201 0.367 0.267 0.567s0.1 0.4 0.1 0.6c0 0.733-0.256 1.322-0.767 1.766s-1.078 0.666-1.7 0.666c-0.155 0.422-0.266 0.867-0.333 1.334s-0.1 0.967-0.1 1.5c0 0.489 0.033 0.972 0.1 1.45s0.178 0.939 0.333 1.384c0.667-0.022 1.245 0.205 1.734 0.683s0.734 1.050 0.734 1.717c0 0.244-0.033 0.461-0.1 0.65s-0.156 0.361-0.267 0.517c0.245 0.244 0.495 0.478 0.75 0.7s0.528 0.445 0.817 0.666zM11.9 24.5c0.289 0.156 0.6 0.289 0.934 0.4s0.678 0.211 1.033 0.3c0.222-0.356 0.511-0.656 0.867-0.9s0.777-0.366 1.266-0.366 0.922 0.122 1.3 0.366c0.378 0.244 0.655 0.544 0.834 0.9 0.355-0.089 0.689-0.183 1-0.283s0.611-0.217 0.9-0.35l-2.334-5.333c-0.267 0.155-0.539 0.272-0.817 0.35s-0.572 0.117-0.883 0.117c-0.311 0-0.617-0.045-0.917-0.134s-0.583-0.211-0.85-0.366l-2.334 5.3zM16 18.034c0.556 0 1.034-0.195 1.434-0.584s0.6-0.872 0.6-1.45c0-0.556-0.2-1.034-0.6-1.434s-0.878-0.6-1.434-0.6c-0.578 0-1.061 0.2-1.45 0.6s-0.584 0.878-0.584 1.434c0 0.578 0.195 1.061 0.584 1.45s0.872 0.584 1.45 0.584z"></path>
</symbol>
<symbol id="icon-Menu-Transport" viewBox="0 0 34 32">
<path fill="#fff" style="fill: var(--color1, #fff)" d="M14.857 24.603v-7.112l1.746-5.143c0.063-0.127 0.148-0.233 0.254-0.317s0.254-0.127 0.444-0.127h9.365c0.169 0 0.312 0.042 0.428 0.127s0.196 0.19 0.238 0.317l1.778 5.143v7.112c0 0.19-0.058 0.344-0.174 0.46s-0.27 0.174-0.46 0.174h-0.444c-0.17 0-0.313-0.058-0.429-0.174s-0.174-0.27-0.174-0.46v-1.524h-10.889v1.524c0 0.19-0.058 0.344-0.174 0.46s-0.259 0.174-0.428 0.174h-0.476c-0.17 0-0.313-0.058-0.429-0.174s-0.174-0.27-0.174-0.46zM16.476 16.476h10.984l-1.143-3.365h-8.699l-1.143 3.365zM18.127 20.952c0.317 0 0.593-0.116 0.825-0.349s0.349-0.519 0.349-0.857c0-0.317-0.116-0.593-0.349-0.826s-0.508-0.349-0.825-0.349c-0.339 0-0.625 0.116-0.857 0.349s-0.35 0.508-0.35 0.826c0 0.338 0.117 0.624 0.35 0.857s0.518 0.349 0.857 0.349zM25.842 20.952c0.317 0 0.593-0.116 0.825-0.349s0.349-0.519 0.349-0.857c0-0.317-0.116-0.593-0.349-0.826s-0.508-0.349-0.825-0.349c-0.339 0-0.619 0.116-0.842 0.349s-0.333 0.508-0.333 0.826c0 0.338 0.111 0.624 0.333 0.857s0.503 0.349 0.842 0.349zM7.016 25.080v-0.54l1.969-1.968c-1.186 0-2.244-0.312-3.175-0.936s-1.397-1.487-1.397-2.587v-10.603c0-1.143 0.593-1.937 1.778-2.381s3.227-0.667 6.127-0.667c2.814 0 4.836 0.233 6.063 0.699s1.842 1.249 1.842 2.349v1.874h-1.588v-2.064h-12.635v8.699h7.238v8.127h-6.222zM7.778 20.222c0.317 0 0.593-0.117 0.826-0.35s0.349-0.508 0.349-0.825c0-0.339-0.116-0.625-0.349-0.857s-0.508-0.349-0.826-0.349c-0.338 0-0.619 0.116-0.841 0.349s-0.333 0.518-0.333 0.857c0 0.317 0.111 0.593 0.333 0.825s0.503 0.35 0.841 0.35zM16.063 21.873h11.842v-4.19h-11.842v4.19z"></path>
<path fill="#fff" style="fill: var(--color1, #fff)" d="M15.016 24.54v-7.112l1.746-5.143c0.063-0.127 0.148-0.233 0.254-0.317s0.254-0.127 0.444-0.127h9.365c0.169 0 0.312 0.042 0.428 0.127s0.196 0.19 0.238 0.317l1.778 5.143v7.112c0 0.19-0.058 0.344-0.174 0.46s-0.27 0.174-0.46 0.174h-0.444c-0.17 0-0.313-0.058-0.429-0.174s-0.174-0.27-0.174-0.46v-1.524h-10.889v1.524c0 0.19-0.058 0.344-0.174 0.46s-0.259 0.174-0.428 0.174h-0.476c-0.17 0-0.313-0.058-0.429-0.174s-0.174-0.27-0.174-0.46zM16.635 16.413h10.984l-1.143-3.365h-8.699l-1.143 3.365zM18.286 20.889c0.317 0 0.593-0.116 0.825-0.349s0.349-0.519 0.349-0.857c0-0.317-0.116-0.593-0.349-0.826s-0.508-0.349-0.825-0.349c-0.339 0-0.625 0.116-0.857 0.349s-0.35 0.508-0.35 0.826c0 0.338 0.117 0.624 0.35 0.857s0.518 0.349 0.857 0.349zM26 20.889c0.317 0 0.593-0.116 0.825-0.349s0.349-0.519 0.349-0.857c0-0.317-0.116-0.593-0.349-0.826s-0.508-0.349-0.825-0.349c-0.339 0-0.619 0.116-0.842 0.349s-0.333 0.508-0.333 0.826c0 0.338 0.111 0.624 0.333 0.857s0.503 0.349 0.842 0.349zM7.174 25.016v-0.54l1.969-1.968c-1.186 0-2.244-0.312-3.175-0.936s-1.397-1.487-1.397-2.587v-10.603c0-1.143 0.593-1.937 1.778-2.381s3.227-0.667 6.127-0.667c2.814 0 4.836 0.233 6.063 0.699s1.842 1.249 1.842 2.349v1.874h-1.588v-2.064h-12.635v8.699h7.238v8.127h-6.222zM7.936 20.159c0.318 0 0.593-0.117 0.826-0.35s0.349-0.508 0.349-0.825c0-0.339-0.116-0.625-0.349-0.857s-0.508-0.349-0.826-0.349c-0.338 0-0.619 0.116-0.841 0.349s-0.333 0.518-0.333 0.857c0 0.317 0.111 0.593 0.333 0.825s0.503 0.35 0.841 0.35zM16.222 21.81h11.842v-4.19h-11.842v4.19z"></path>
</symbol>
<symbol id="icon-cars" viewBox="0 0 34 32">
<path fill="#fff" style="fill: var(--color1, #fff)" d="M14.857 24.603v-7.112l1.746-5.143c0.063-0.127 0.148-0.233 0.254-0.317s0.254-0.127 0.444-0.127h9.365c0.169 0 0.312 0.042 0.428 0.127s0.196 0.19 0.238 0.317l1.778 5.143v7.112c0 0.19-0.058 0.344-0.174 0.46s-0.27 0.174-0.46 0.174h-0.444c-0.17 0-0.313-0.058-0.429-0.174s-0.174-0.27-0.174-0.46v-1.524h-10.889v1.524c0 0.19-0.058 0.344-0.174 0.46s-0.259 0.174-0.428 0.174h-0.476c-0.17 0-0.313-0.058-0.429-0.174s-0.174-0.27-0.174-0.46zM16.476 16.476h10.984l-1.143-3.365h-8.699l-1.143 3.365zM18.127 20.952c0.317 0 0.593-0.116 0.825-0.349s0.349-0.519 0.349-0.857c0-0.317-0.116-0.593-0.349-0.826s-0.508-0.349-0.825-0.349c-0.339 0-0.625 0.116-0.857 0.349s-0.35 0.508-0.35 0.826c0 0.338 0.117 0.624 0.35 0.857s0.518 0.349 0.857 0.349zM25.842 20.952c0.317 0 0.593-0.116 0.825-0.349s0.349-0.519 0.349-0.857c0-0.317-0.116-0.593-0.349-0.826s-0.508-0.349-0.825-0.349c-0.339 0-0.619 0.116-0.842 0.349s-0.333 0.508-0.333 0.826c0 0.338 0.111 0.624 0.333 0.857s0.503 0.349 0.842 0.349zM7.016 25.080v-0.54l1.969-1.968c-1.186 0-2.244-0.312-3.175-0.936s-1.397-1.487-1.397-2.587v-10.603c0-1.143 0.593-1.937 1.778-2.381s3.227-0.667 6.127-0.667c2.814 0 4.836 0.233 6.063 0.699s1.842 1.249 1.842 2.349v1.874h-1.588v-2.064h-12.635v8.699h7.238v8.127h-6.222zM7.778 20.222c0.317 0 0.593-0.117 0.826-0.35s0.349-0.508 0.349-0.825c0-0.339-0.116-0.625-0.349-0.857s-0.508-0.349-0.826-0.349c-0.338 0-0.619 0.116-0.841 0.349s-0.333 0.518-0.333 0.857c0 0.317 0.111 0.593 0.333 0.825s0.503 0.35 0.841 0.35zM16.063 21.873h11.842v-4.19h-11.842v4.19z"></path>
<path fill="#fff" style="fill: var(--color1, #fff)" d="M15.016 24.54v-7.112l1.746-5.143c0.063-0.127 0.148-0.233 0.254-0.317s0.254-0.127 0.444-0.127h9.365c0.169 0 0.312 0.042 0.428 0.127s0.196 0.19 0.238 0.317l1.778 5.143v7.112c0 0.19-0.058 0.344-0.174 0.46s-0.27 0.174-0.46 0.174h-0.444c-0.17 0-0.313-0.058-0.429-0.174s-0.174-0.27-0.174-0.46v-1.524h-10.889v1.524c0 0.19-0.058 0.344-0.174 0.46s-0.259 0.174-0.428 0.174h-0.476c-0.17 0-0.313-0.058-0.429-0.174s-0.174-0.27-0.174-0.46zM16.635 16.413h10.984l-1.143-3.365h-8.699l-1.143 3.365zM18.286 20.889c0.317 0 0.593-0.116 0.825-0.349s0.349-0.519 0.349-0.857c0-0.317-0.116-0.593-0.349-0.826s-0.508-0.349-0.825-0.349c-0.339 0-0.625 0.116-0.857 0.349s-0.35 0.508-0.35 0.826c0 0.338 0.117 0.624 0.35 0.857s0.518 0.349 0.857 0.349zM26 20.889c0.317 0 0.593-0.116 0.825-0.349s0.349-0.519 0.349-0.857c0-0.317-0.116-0.593-0.349-0.826s-0.508-0.349-0.825-0.349c-0.339 0-0.619 0.116-0.842 0.349s-0.333 0.508-0.333 0.826c0 0.338 0.111 0.624 0.333 0.857s0.503 0.349 0.842 0.349zM7.174 25.016v-0.54l1.969-1.968c-1.186 0-2.244-0.312-3.175-0.936s-1.397-1.487-1.397-2.587v-10.603c0-1.143 0.593-1.937 1.778-2.381s3.227-0.667 6.127-0.667c2.814 0 4.836 0.233 6.063 0.699s1.842 1.249 1.842 2.349v1.874h-1.588v-2.064h-12.635v8.699h7.238v8.127h-6.222zM7.936 20.159c0.318 0 0.593-0.117 0.826-0.35s0.349-0.508 0.349-0.825c0-0.339-0.116-0.625-0.349-0.857s-0.508-0.349-0.826-0.349c-0.338 0-0.619 0.116-0.841 0.349s-0.333 0.518-0.333 0.857c0 0.317 0.111 0.593 0.333 0.825s0.503 0.35 0.841 0.35zM16.222 21.81h11.842v-4.19h-11.842v4.19z"></path>
</symbol>
<symbol id="icon-background-1" viewBox="0 0 80 32">
<path fill="#ccf7fb" style="fill: var(--color2, #ccf7fb)" opacity="0.4" d="M0 11.304v-11.304h63.789c6.243 0 11.305 5.061 11.305 11.304 5.587 0 5.587 9.217 0 9.217v11.478h-75.094v-11.478c5.869 0 6.042-9.217 0-9.217z"></path>
<path fill="rgba(183, 232, 250, 0.7)"  stroke="rgba(183, 232, 250, 0.7)" style="stroke:rgba(183, 232, 250, 0.7) " stroke-linejoin="miter" stroke-linecap="butt" stroke-miterlimit="4" stroke-width="0.6809" d="M3.633 12.523c-0.751-0.875-1.854-1.469-3.292-1.549v-10.633h63.449c6.055 0 10.964 4.909 10.964 10.964v0.34h0.34c1.292 0 2.243 0.528 2.878 1.314 0.641 0.794 0.972 1.867 0.972 2.954s-0.33 2.161-0.972 2.955c-0.635 0.785-1.586 1.314-2.878 1.314h-0.34v11.478h-74.413v-10.807c1.4-0.083 2.49-0.677 3.243-1.548 0.807-0.933 1.212-2.166 1.224-3.388s-0.371-2.458-1.175-3.393z"></path>
</symbol>
<symbol id="icon-background-2" viewBox="0 0 80 32">
<path fill="#ccf7fb" style="fill: var(--color2, #ccf7fb)" opacity="0.4" d="M0 11.304v-11.304h75.094v11.304c5.587 0 5.587 9.217 0 9.217v11.478h-75.094v-11.478c5.869 0 6.042-9.217 0-9.217z"></path>
<path fill="rgba(57, 61, 135, 0.2)" stroke="#000" style="stroke:rgba(204, 247, 251, 0.4); " stroke-linejoin="miter" stroke-linecap="butt" stroke-miterlimit="4" stroke-width="0.6809" d="M74.753 20.522v11.138h-74.413v-10.807c1.4-0.083 2.49-0.677 3.243-1.548 0.807-0.933 1.212-2.166 1.224-3.388s-0.371-2.458-1.175-3.393c-0.751-0.875-1.854-1.469-3.292-1.549v-10.633h74.413v11.304h0.34c1.292 0 2.243 0.528 2.878 1.314 0.641 0.794 0.972 1.867 0.972 2.954s-0.33 2.161-0.972 2.955c-0.635 0.785-1.586 1.314-2.878 1.314h-0.34v0.34z"  ></path>
</symbol>
<symbol id="icon-background-3" viewBox="0 0 80 32">
<path fill="#ccf7fb" style="fill: var(--color2, #ccf7fb)" opacity="0.4" d="M0 11.304v-11.304h75.094v11.304c5.587 0 5.587 9.217 0 9.217v11.478h-75.094v-11.478c5.869 0 6.042-9.217 0-9.217z"></path>
<path fill="none" stroke="#000" style="stroke: var(--color3, #000)" stroke-linejoin="miter" stroke-linecap="butt" stroke-miterlimit="4" stroke-width="0.6809" d="M74.753 20.522v11.138h-74.413v-10.807c1.4-0.083 2.49-0.677 3.243-1.548 0.807-0.933 1.212-2.166 1.224-3.388s-0.371-2.458-1.175-3.393c-0.751-0.875-1.854-1.469-3.292-1.549v-10.633h74.413v11.304h0.34c1.292 0 2.243 0.528 2.878 1.314 0.641 0.794 0.972 1.867 0.972 2.954s-0.33 2.161-0.972 2.955c-0.635 0.785-1.586 1.314-2.878 1.314h-0.34v0.34z"></path>
</symbol>
<symbol id="icon-background-4" viewBox="0 0 80 32">
<path fill="#ccf7fb" style="fill: var(--color2, #ccf7fb)" opacity="0.4" d="M0 11.304v-11.304h75.094v11.304c5.587 0 5.587 9.217 0 9.217v11.478h-75.094v-11.478c5.869 0 6.042-9.217 0-9.217z"></path>
<path fill="none" stroke="#000" style="stroke: var(--color3, #000)" stroke-linejoin="miter" stroke-linecap="butt" stroke-miterlimit="4" stroke-width="0.6809" d="M74.753 20.522v11.138h-74.413v-10.807c1.4-0.083 2.49-0.677 3.243-1.548 0.807-0.933 1.212-2.166 1.224-3.388s-0.371-2.458-1.175-3.393c-0.751-0.875-1.854-1.469-3.292-1.549v-10.633h74.413v11.304h0.34c1.292 0 2.243 0.528 2.878 1.314 0.641 0.794 0.972 1.867 0.972 2.954s-0.33 2.161-0.972 2.955c-0.635 0.785-1.586 1.314-2.878 1.314h-0.34v0.34z"></path>
</symbol>
<symbol id="icon-background-5" viewBox="0 0 80 32">
<path fill="#ccf7fb" style="fill: var(--color2, #ccf7fb)" opacity="0.4" d="M0 11.304v-11.304h75.094v11.304c5.587 0 5.587 9.217 0 9.217v11.478h-75.094v-11.478c5.869 0 6.042-9.217 0-9.217z"></path>
<path fill="none" stroke="#000" style="stroke: var(--color3, #000)" stroke-linejoin="miter" stroke-linecap="butt" stroke-miterlimit="4" stroke-width="0.6809" d="M74.753 20.522v11.138h-74.413v-10.807c1.4-0.083 2.49-0.677 3.243-1.548 0.807-0.933 1.212-2.166 1.224-3.388s-0.371-2.458-1.175-3.393c-0.751-0.875-1.854-1.469-3.292-1.549v-10.633h74.413v11.304h0.34c1.292 0 2.243 0.528 2.878 1.314 0.641 0.794 0.972 1.867 0.972 2.954s-0.33 2.161-0.972 2.955c-0.635 0.785-1.586 1.314-2.878 1.314h-0.34v0.34z"></path>
</symbol>
<symbol id="icon-background-6" viewBox="0 0 80 32">
<path fill="#ccf7fb" style="fill: var(--color2, #ccf7fb)" opacity="0.4" d="M0 11.304v-11.304h75.094v11.304c5.587 0 5.587 9.217 0 9.217v11.478h-75.094v-11.478c5.869 0 6.042-9.217 0-9.217z"></path>
<path fill="none" stroke="#393d87" style="stroke: var(--color4, #393d87)" stroke-linejoin="miter" stroke-linecap="butt" stroke-miterlimit="4" stroke-width="0.6809" d="M74.753 20.522v11.138h-74.413v-10.807c1.4-0.083 2.49-0.677 3.243-1.548 0.807-0.933 1.212-2.166 1.224-3.388s-0.371-2.458-1.175-3.393c-0.751-0.875-1.854-1.469-3.292-1.549v-10.633h74.413v11.304h0.34c1.292 0 2.243 0.528 2.878 1.314 0.641 0.794 0.972 1.867 0.972 2.954s-0.33 2.161-0.972 2.955c-0.635 0.785-1.586 1.314-2.878 1.314h-0.34v0.34z"></path>
</symbol>
<symbol id="icon-background-7" viewBox="0 0 80 32">
<path fill="#b7e8fa" style="fill: var(--color5, #b7e8fa)" opacity="0.7" d="M0 20.522c5.869 0 6.042-9.217 0-9.217 0-6.243 5.061-11.304 11.304-11.304h63.789v11.304c5.587 0 5.587 9.217 0 9.217v11.478h-75.094v-11.478z"></path>
</symbol>
<symbol id="icon-direction" viewBox="0 0 29 32">
<path fill="none" stroke="#fff" style="stroke: var(--color1, #fff)" stroke-linejoin="round" stroke-linecap="round" stroke-miterlimit="4" stroke-width="2.9091" d="M27.636 7.273h-26.182M27.636 7.273l-5.818 5.818M27.636 7.273l-5.818-5.818M1.455 24.727h26.182M1.455 24.727l5.818 5.818M1.455 24.727l5.818-5.818"></path>
</symbol>
<symbol id="icon-login" viewBox="0 0 32 32">
<path fill="#fff" style="fill: var(--color1, #fff)" d="M16 27.2v-2.4h8.8v-17.6h-8.8v-2.4h8.8c0.667 0 1.233 0.234 1.699 0.701 0.467 0.466 0.701 1.033 0.701 1.699v17.6c0 0.667-0.234 1.233-0.701 1.699-0.466 0.467-1.032 0.701-1.699 0.701h-8.8zM13.6 21.6l-1.699-1.699 2.699-2.701h-9.8v-2.4h9.8l-2.699-2.701 1.699-1.699 5.6 5.6-5.6 5.6z"></path>
</symbol>
<symbol id="icon-search" viewBox="0 0 33 32">
<path fill="#fff" style="fill: var(--color1, #fff)" d="M30.247 31.716l-11.654-11.52c-0.974 0.743-2.040 1.315-3.194 1.718-1.061 0.384-2.286 0.607-3.563 0.607-0.007 0-0.014 0-0.020-0h0.001c-3.057 0-5.649-1.057-7.777-3.172-2.13-2.115-3.196-4.687-3.196-7.72 0-3.001 1.066-5.565 3.196-7.694 2.129-2.131 4.721-3.197 7.777-3.197 3.022 0 5.599 1.057 7.727 3.172 2.13 2.115 3.194 4.687 3.194 7.719 0 1.258-0.203 2.468-0.611 3.63-0.421 1.203-0.991 2.246-1.703 3.174l0.020-0.027 11.608 11.52-1.805 1.791zM11.816 20.001c2.34 0 4.323-0.814 5.946-2.443 1.626-1.629 2.439-3.606 2.439-5.93s-0.813-4.299-2.439-5.928c-1.624-1.629-3.606-2.445-5.946-2.445-2.374 0-4.373 0.815-5.999 2.445-1.624 1.629-2.436 3.606-2.436 5.928 0 2.323 0.813 4.299 2.436 5.93 1.626 1.628 3.626 2.445 5.999 2.445z"></path>
</symbol>
<symbol id="icon-logo" viewBox="0 0 134 32">
<path fill="#fff" style="fill: var(--color1, #fff)" d="M77.183 10.574l-6.859 14.975h-6.871v-14.975h-1.739v16.537h9.741l1.975-4.4h9.219l1.975 4.4h1.839l-7.554-16.486-1.728-0.050zM74.064 21.248l3.989-8.875 3.975 8.875h-7.965zM104.679 23.95l-2.187-2.752v-10.624h-1.728v8.454l-6.734-8.454h-1.441v3.111l-2.485-3.111h-1.429v16.537h1.803v-13.425l2.162 2.727v10.699h1.751v-8.493l6.709 8.443h1.441v-3.111l2.485 3.111h1.441v-16.487h-1.727l-0.062 13.376zM100.765 23.95l-6.423-8.070v-2.194l6.425 8.095v2.17zM110.593 19.424h8.537v-1.487h-8.537v-5.862h9.58v-1.501h-11.331v16.487h11.692v-1.513h-9.94v-6.125zM134.4 27.11l-4.038-5.664 0.646-0.237c0.965-0.414 1.756-1.079 2.311-1.915l0.012-0.019c0.508-0.806 0.81-1.786 0.81-2.837 0-0.057-0.001-0.114-0.003-0.171l0 0.008c0.035-1.073-0.245-2.133-0.807-3.050-0.567-0.855-1.358-1.52-2.289-1.921l-0.034-0.013c-1.001-0.425-2.166-0.672-3.388-0.672-0.080 0-0.16 0.001-0.24 0.003l0.012-0h-4.771v16.486h1.753v-5.28h3.019c0.445-0.003 0.889-0.032 1.329-0.087l3.728 5.318 1.951 0.049zM127.343 20.391h-2.97v-8.305h2.97c0.11-0.008 0.238-0.012 0.367-0.012 1.263 0 2.43 0.409 3.376 1.101l-0.016-0.011c0.769 0.697 1.251 1.699 1.251 2.814 0 0.087-0.003 0.173-0.009 0.259l0.001-0.012c0.006 0.078 0.009 0.168 0.009 0.259 0 1.104-0.482 2.096-1.248 2.775l-0.004 0.003c-0.93 0.681-2.098 1.090-3.36 1.090-0.129 0-0.257-0.004-0.384-0.013l0.017 0.001v0.049zM31.174 12.358c0.291-0.565 0.462-1.233 0.462-1.94 0-0.059-0.001-0.117-0.003-0.175l0 0.008c0.002-0.052 0.004-0.114 0.004-0.175 0-0.7-0.181-1.357-0.498-1.928l0.010 0.020c-0.341-0.518-0.792-0.937-1.323-1.23l-0.019-0.010c-0.602-0.316-1.302-0.539-2.044-0.629l-0.029-0.003c-0.754-0.104-1.625-0.163-2.51-0.163-0.048 0-0.096 0-0.144 0.001l0.007-0h-0.46v8.505h2.485c0.508-0.007 1.013-0.078 1.503-0.211 0.562-0.166 1.050-0.42 1.477-0.751l-0.010 0.008c0.454-0.359 0.828-0.812 1.093-1.327z"></path>
<path fill="#fff" style="fill: var(--color1, #fff)" d="M37.374 5.293h-7.454c0.822 0.205 1.544 0.538 2.183 0.982l-0.022-0.014c1.117 0.816 1.835 2.122 1.835 3.595 0 0.091-0.003 0.182-0.008 0.272l0.001-0.012c0.001 0.038 0.002 0.083 0.002 0.127 0 0.755-0.156 1.474-0.438 2.126l0.013-0.035c-0.271 0.643-0.649 1.192-1.117 1.648l-0.001 0.001c-0.471 0.449-1.022 0.82-1.627 1.088l-0.037 0.014c-0.582 0.263-1.262 0.478-1.97 0.611l-0.057 0.009 2.411 3.719c0.585 0.893 1.243 1.773 1.777 2.628s1.243 1.747 1.789 2.665c0.149 0.224 0.323 0.459 0.523 0.707 0.179 0.24 0.379 0.463 0.596 0.669 0.201 0.191 0.427 0.353 0.671 0.483 0.221 0.122 0.469 0.186 0.72 0.187h0.174c0.001 0 0.002 0 0.003 0 0.182 0 0.348-0.071 0.47-0.187l-0 0c0.142-0.137 0.259-0.295 0.348-0.47 0.093-0.171 0.17-0.37 0.221-0.578l0.003-0.017c0.008-0.089 0.013-0.193 0.013-0.298s-0.005-0.208-0.014-0.311l0.001 0.013v-17.887c0.007-0.080 0.012-0.173 0.012-0.267s-0.004-0.187-0.012-0.279l0.001 0.012c-0.053-0.216-0.13-0.406-0.23-0.581l0.006 0.011c-0.097-0.171-0.212-0.318-0.347-0.445l-0.001-0.001c-0.114-0.108-0.265-0.177-0.432-0.187l-0.002-0zM52.532 11.925h-5.258v8.058h5.257c0 0 0 0 0 0 1.115 0 2.124-0.451 2.855-1.181l-0 0c0.73-0.729 1.182-1.736 1.182-2.849s-0.452-2.12-1.181-2.848l-0-0c-0.731-0.729-1.74-1.18-2.854-1.18-0 0-0.001 0-0.001 0h0z"></path>
<path fill="#fff" style="fill: var(--color1, #fff)" d="M53.489 9.52v-4.871c0-1.233-0.491-2.415-1.365-3.287-0.843-0.841-2.007-1.361-3.293-1.361h-44.172c-1.235 0-2.421 0.491-3.294 1.361-0.843 0.841-1.365 2.003-1.365 3.287v7.277h0.932c0 0 0.001 0 0.001 0 1.114 0 2.123 0.451 2.854 1.18l-0-0c0.73 0.729 1.182 1.736 1.182 2.849s-0.452 2.12-1.182 2.849l-0 0c-0.731 0.729-1.74 1.18-2.854 1.18-0 0-0.001 0-0.001 0h-0.932v7.277c0 1.232 0.491 2.415 1.365 3.286 0.844 0.842 2.008 1.362 3.294 1.362h44.145c1.236 0 2.421-0.491 3.296-1.362 0.843-0.84 1.364-2.003 1.364-3.286v-4.873h0.099c1.593-0.258 2.964-1.060 3.945-2.207l0.007-0.009c0.964-1.127 1.55-2.601 1.55-4.213 0-1.638-0.606-3.134-1.606-4.277l0.006 0.008c-1-1.143-2.38-1.93-3.942-2.165l-0.036-0.004zM42.021 5.293h-0.175c-0.17 0.006-0.322 0.076-0.434 0.187l0-0c-0.132 0.124-0.243 0.266-0.331 0.424l-0.005 0.009c-0.096 0.18-0.167 0.372-0.211 0.571-0.052 0.162-0.083 0.349-0.086 0.543l-0 0.002v20.082h-4.971c-0.042 0.002-0.092 0.003-0.142 0.003-0.772 0-1.486-0.247-2.067-0.667l0.010 0.007c-0.602-0.435-1.109-0.957-1.515-1.553l-0.014-0.022c-0.226-0.263-1.216-1.725-2.196-3.195l-0.811-1.292c-1.007-1.525-1.963-3.012-2.919-4.437l-0.783-0.087c-0.299-0.048-0.551-0.104-0.798-0.172l0.051 0.012v11.404h-10.659v-20.912h-3.902c-0.015-0-0.032-0.001-0.050-0.001-0.324 0-0.628 0.087-0.89 0.24l0.008-0.005c-0.265 0.143-0.494 0.341-0.672 0.583-0.177 0.217-0.317 0.473-0.405 0.752l-0.004 0.016c-0.085 0.265-0.131 0.541-0.137 0.818h-0.336v-3.643h34.443v0.334zM53.514 21.767l-1.863 0.075h-4.373v5.269h-1.863v-17.046h6.212l1.863 0.075c1.386 0.221 2.645 0.928 3.556 1.994 0.876 1.021 1.41 2.358 1.41 3.82s-0.533 2.799-1.416 3.828l0.007-0.008c-0.891 1.038-2.124 1.76-3.522 1.99l-0.034 0.005h0.025z"></path>
<path fill="#fff" style="fill: var(--color1, #fff)" d="M22.141 7.785c-0.093-0.295-0.233-0.551-0.413-0.772l0.003 0.004c-0.179-0.24-0.402-0.436-0.66-0.577l-0.011-0.005c-0.253-0.149-0.558-0.236-0.883-0.236-0.017 0-0.035 0-0.052 0.001l0.003-0h-3.914v18.681c0.003 0.201 0.025 0.399 0.062 0.595 0.047 0.204 0.122 0.4 0.224 0.582 0.095 0.169 0.207 0.326 0.336 0.471 0.106 0.122 0.261 0.199 0.434 0.199 0.005 0 0.009-0 0.014-0h3.975c0.173-0.004 0.327-0.080 0.435-0.198l0-0c0.283-0.293 0.48-0.658 0.572-1.054 0.011-0.089 0.017-0.193 0.017-0.298s-0.006-0.208-0.019-0.31l0.001 0.012v-16.276c-0.001-0.277-0.043-0.553-0.125-0.818z"></path>
</symbol>
</defs>
</svg>
