<svg aria-hidden="true" style="position: absolute; width: 0; height: 0; overflow: hidden;" version="1.1" xmlns="http://www.w3.org/2000/svg" xmlns:xlink="http://www.w3.org/1999/xlink">
<defs>
<symbol id="icon-direction" viewBox="0 0 29 32">
<path fill="none" stroke="#fff" style="stroke: var(--color1, #fff)" stroke-linejoin="round" stroke-linecap="round" stroke-miterlimit="4" stroke-width="2.9091" d="M27.636 7.273h-26.182M27.636 7.273l-5.818 5.818M27.636 7.273l-5.818-5.818M1.455 24.727h26.182M1.455 24.727l5.818 5.818M1.455 24.727l5.818-5.818"></path>
</symbol>
<symbol id="icon-login" viewBox="0 0 32 32">
<path fill="#fff" style="fill: var(--color1, #fff)" d="M16 27.2v-2.4h8.8v-17.6h-8.8v-2.4h8.8c0.667 0 1.233 0.234 1.699 0.701 0.467 0.466 0.701 1.033 0.701 1.699v17.6c0 0.667-0.234 1.233-0.701 1.699-0.466 0.467-1.032 0.701-1.699 0.701h-8.8zM13.6 21.6l-1.699-1.699 2.699-2.701h-9.8v-2.4h9.8l-2.699-2.701 1.699-1.699 5.6 5.6-5.6 5.6z"></path>
</symbol>
<symbol id="icon-search" viewBox="0 0 33 32">
<path fill="#fff" style="fill: var(--color1, #fff)" d="M30.247 31.716l-11.654-11.52c-0.974 0.743-2.040 1.315-3.194 1.718-1.061 0.384-2.286 0.607-3.563 0.607-0.007 0-0.014 0-0.020-0h0.001c-3.057 0-5.649-1.057-7.777-3.172-2.13-2.115-3.196-4.687-3.196-7.72 0-3.001 1.066-5.565 3.196-7.694 2.129-2.131 4.721-3.197 7.777-3.197 3.022 0 5.599 1.057 7.727 3.172 2.13 2.115 3.194 4.687 3.194 7.719 0 1.258-0.203 2.468-0.611 3.63-0.421 1.203-0.991 2.246-1.703 3.174l0.020-0.027 11.608 11.52-1.805 1.791zM11.816 20.001c2.34 0 4.323-0.814 5.946-2.443 1.626-1.629 2.439-3.606 2.439-5.93s-0.813-4.299-2.439-5.928c-1.624-1.629-3.606-2.445-5.946-2.445-2.374 0-4.373 0.815-5.999 2.445-1.624 1.629-2.436 3.606-2.436 5.928 0 2.323 0.813 4.299 2.436 5.93 1.626 1.628 3.626 2.445 5.999 2.445z"></path>
</symbol>
<symbol id="icon-logo" viewBox="0 0 134 32">
<path fill="#fff" style="fill: var(--color1, #fff)" d="M77.183 10.574l-6.859 14.975h-6.871v-14.975h-1.739v16.537h9.741l1.975-4.4h9.219l1.975 4.4h1.839l-7.554-16.486-1.728-0.050zM74.064 21.248l3.989-8.875 3.975 8.875h-7.965zM104.679 23.95l-2.187-2.752v-10.624h-1.728v8.454l-6.734-8.454h-1.441v3.111l-2.485-3.111h-1.429v16.537h1.803v-13.425l2.162 2.727v10.699h1.751v-8.493l6.709 8.443h1.441v-3.111l2.485 3.111h1.441v-16.487h-1.727l-0.062 13.376zM100.765 23.95l-6.423-8.070v-2.194l6.425 8.095v2.17zM110.593 19.424h8.537v-1.487h-8.537v-5.862h9.58v-1.501h-11.331v16.487h11.692v-1.513h-9.94v-6.125zM134.4 27.11l-4.038-5.664 0.646-0.237c0.965-0.414 1.756-1.079 2.311-1.915l0.012-0.019c0.508-0.806 0.81-1.786 0.81-2.837 0-0.057-0.001-0.114-0.003-0.171l0 0.008c0.035-1.073-0.245-2.133-0.807-3.050-0.567-0.855-1.358-1.52-2.289-1.921l-0.034-0.013c-1.001-0.425-2.166-0.672-3.388-0.672-0.080 0-0.16 0.001-0.24 0.003l0.012-0h-4.771v16.486h1.753v-5.28h3.019c0.445-0.003 0.889-0.032 1.329-0.087l3.728 5.318 1.951 0.049zM127.343 20.391h-2.97v-8.305h2.97c0.11-0.008 0.238-0.012 0.367-0.012 1.263 0 2.43 0.409 3.376 1.101l-0.016-0.011c0.769 0.697 1.251 1.699 1.251 2.814 0 0.087-0.003 0.173-0.009 0.259l0.001-0.012c0.006 0.078 0.009 0.168 0.009 0.259 0 1.104-0.482 2.096-1.248 2.775l-0.004 0.003c-0.93 0.681-2.098 1.090-3.36 1.090-0.129 0-0.257-0.004-0.384-0.013l0.017 0.001v0.049zM31.174 12.358c0.291-0.565 0.462-1.233 0.462-1.94 0-0.059-0.001-0.117-0.003-0.175l0 0.008c0.002-0.052 0.004-0.114 0.004-0.175 0-0.7-0.181-1.357-0.498-1.928l0.010 0.020c-0.341-0.518-0.792-0.937-1.323-1.23l-0.019-0.010c-0.602-0.316-1.302-0.539-2.044-0.629l-0.029-0.003c-0.754-0.104-1.625-0.163-2.51-0.163-0.048 0-0.096 0-0.144 0.001l0.007-0h-0.46v8.505h2.485c0.508-0.007 1.013-0.078 1.503-0.211 0.562-0.166 1.050-0.42 1.477-0.751l-0.010 0.008c0.454-0.359 0.828-0.812 1.093-1.327z"></path>
<path fill="#fff" style="fill: var(--color1, #fff)" d="M37.374 5.293h-7.454c0.822 0.205 1.544 0.538 2.183 0.982l-0.022-0.014c1.117 0.816 1.835 2.122 1.835 3.595 0 0.091-0.003 0.182-0.008 0.272l0.001-0.012c0.001 0.038 0.002 0.083 0.002 0.127 0 0.755-0.156 1.474-0.438 2.126l0.013-0.035c-0.271 0.643-0.649 1.192-1.117 1.648l-0.001 0.001c-0.471 0.449-1.022 0.82-1.627 1.088l-0.037 0.014c-0.582 0.263-1.262 0.478-1.97 0.611l-0.057 0.009 2.411 3.719c0.585 0.893 1.243 1.773 1.777 2.628s1.243 1.747 1.789 2.665c0.149 0.224 0.323 0.459 0.523 0.707 0.179 0.24 0.379 0.463 0.596 0.669 0.201 0.191 0.427 0.353 0.671 0.483 0.221 0.122 0.469 0.186 0.72 0.187h0.174c0.001 0 0.002 0 0.003 0 0.182 0 0.348-0.071 0.47-0.187l-0 0c0.142-0.137 0.259-0.295 0.348-0.47 0.093-0.171 0.17-0.37 0.221-0.578l0.003-0.017c0.008-0.089 0.013-0.193 0.013-0.298s-0.005-0.208-0.014-0.311l0.001 0.013v-17.887c0.007-0.080 0.012-0.173 0.012-0.267s-0.004-0.187-0.012-0.279l0.001 0.012c-0.053-0.216-0.13-0.406-0.23-0.581l0.006 0.011c-0.097-0.171-0.212-0.318-0.347-0.445l-0.001-0.001c-0.114-0.108-0.265-0.177-0.432-0.187l-0.002-0zM52.532 11.925h-5.258v8.058h5.257c0 0 0 0 0 0 1.115 0 2.124-0.451 2.855-1.181l-0 0c0.73-0.729 1.182-1.736 1.182-2.849s-0.452-2.12-1.181-2.848l-0-0c-0.731-0.729-1.74-1.18-2.854-1.18-0 0-0.001 0-0.001 0h0z"></path>
<path fill="#fff" style="fill: var(--color1, #fff)" d="M53.489 9.52v-4.871c0-1.233-0.491-2.415-1.365-3.287-0.843-0.841-2.007-1.361-3.293-1.361h-44.172c-1.235 0-2.421 0.491-3.294 1.361-0.843 0.841-1.365 2.003-1.365 3.287v7.277h0.932c0 0 0.001 0 0.001 0 1.114 0 2.123 0.451 2.854 1.18l-0-0c0.73 0.729 1.182 1.736 1.182 2.849s-0.452 2.12-1.182 2.849l-0 0c-0.731 0.729-1.74 1.18-2.854 1.18-0 0-0.001 0-0.001 0h-0.932v7.277c0 1.232 0.491 2.415 1.365 3.286 0.844 0.842 2.008 1.362 3.294 1.362h44.145c1.236 0 2.421-0.491 3.296-1.362 0.843-0.84 1.364-2.003 1.364-3.286v-4.873h0.099c1.593-0.258 2.964-1.060 3.945-2.207l0.007-0.009c0.964-1.127 1.55-2.601 1.55-4.213 0-1.638-0.606-3.134-1.606-4.277l0.006 0.008c-1-1.143-2.38-1.93-3.942-2.165l-0.036-0.004zM42.021 5.293h-0.175c-0.17 0.006-0.322 0.076-0.434 0.187l0-0c-0.132 0.124-0.243 0.266-0.331 0.424l-0.005 0.009c-0.096 0.18-0.167 0.372-0.211 0.571-0.052 0.162-0.083 0.349-0.086 0.543l-0 0.002v20.082h-4.971c-0.042 0.002-0.092 0.003-0.142 0.003-0.772 0-1.486-0.247-2.067-0.667l0.010 0.007c-0.602-0.435-1.109-0.957-1.515-1.553l-0.014-0.022c-0.226-0.263-1.216-1.725-2.196-3.195l-0.811-1.292c-1.007-1.525-1.963-3.012-2.919-4.437l-0.783-0.087c-0.299-0.048-0.551-0.104-0.798-0.172l0.051 0.012v11.404h-10.659v-20.912h-3.902c-0.015-0-0.032-0.001-0.050-0.001-0.324 0-0.628 0.087-0.89 0.24l0.008-0.005c-0.265 0.143-0.494 0.341-0.672 0.583-0.177 0.217-0.317 0.473-0.405 0.752l-0.004 0.016c-0.085 0.265-0.131 0.541-0.137 0.818h-0.336v-3.643h34.443v0.334zM53.514 21.767l-1.863 0.075h-4.373v5.269h-1.863v-17.046h6.212l1.863 0.075c1.386 0.221 2.645 0.928 3.556 1.994 0.876 1.021 1.41 2.358 1.41 3.82s-0.533 2.799-1.416 3.828l0.007-0.008c-0.891 1.038-2.124 1.76-3.522 1.99l-0.034 0.005h0.025z"></path>
<path fill="#fff" style="fill: var(--color1, #fff)" d="M22.141 7.785c-0.093-0.295-0.233-0.551-0.413-0.772l0.003 0.004c-0.179-0.24-0.402-0.436-0.66-0.577l-0.011-0.005c-0.253-0.149-0.558-0.236-0.883-0.236-0.017 0-0.035 0-0.052 0.001l0.003-0h-3.914v18.681c0.003 0.201 0.025 0.399 0.062 0.595 0.047 0.204 0.122 0.4 0.224 0.582 0.095 0.169 0.207 0.326 0.336 0.471 0.106 0.122 0.261 0.199 0.434 0.199 0.005 0 0.009-0 0.014-0h3.975c0.173-0.004 0.327-0.080 0.435-0.198l0-0c0.283-0.293 0.48-0.658 0.572-1.054 0.011-0.089 0.017-0.193 0.017-0.298s-0.006-0.208-0.019-0.31l0.001 0.012v-16.276c-0.001-0.277-0.043-0.553-0.125-0.818z"></path>
</symbol>
</defs>
</svg>
