<svg width="179" height="53" viewBox="0 0 179 53" fill="none" xmlns="http://www.w3.org/2000/svg">
<path d="M172.632 0H6.27163C4.60953 0.00105097 3.01573 0.660959 1.83995 1.83492C0.664175 3.00889 0.00245787 4.60101 0 6.26195V46.7275C0.0021016 48.3895 0.663367 49.9829 1.83892 51.1586C3.01447 52.3343 4.60845 52.9965 6.27163 53H172.632C176.087 53 179 50.1804 179 46.7288V6.26328C179 2.809 176.087 0 172.632 0Z" fill="black"/>
<path d="M39.9473 26.2139C39.9075 21.9435 43.4478 19.8672 43.6069 19.7691C41.6047 16.8502 38.4994 16.4513 37.4082 16.4195C34.8001 16.1453 32.2702 17.9791 30.9416 17.9791C29.5865 17.9791 27.5406 16.4447 25.3356 16.4898C22.4981 16.5335 19.8436 18.1752 18.3878 20.7245C15.3832 25.9224 17.624 33.5611 20.5026 37.764C21.9426 39.8204 23.6252 42.1179 25.8275 42.0371C27.9808 41.9483 28.7843 40.6644 31.3858 40.6644C33.9621 40.6644 34.7179 42.0384 36.964 41.9867C39.2751 41.9496 40.7296 39.9197 42.1218 37.8435C43.7845 35.485 44.4528 33.1636 44.4793 33.0443C44.4263 33.0258 39.9884 31.3351 39.9447 26.2153L39.9473 26.2139ZM35.7044 13.6556C36.8632 12.2074 37.6561 10.2371 37.436 8.23633C35.7587 8.31185 33.6611 9.39703 32.4532 10.8135C31.3845 12.0629 30.4298 14.1087 30.6764 16.034C32.5593 16.1731 34.4951 15.0826 35.7044 13.6569V13.6556ZM71.1291 41.7429H68.1193L66.4685 36.5622H60.7352L59.164 41.7429H56.2337L61.9139 24.1098H65.4223L71.1304 41.7429H71.1291ZM65.9713 34.3892L64.4796 29.7861C64.3205 29.3158 64.0261 28.2094 63.5912 26.4644H63.5382C63.2732 27.5753 62.9934 28.6827 62.6989 29.7861L61.2337 34.3905H65.9713V34.3892ZM85.7368 35.2292C85.7368 37.3916 85.1534 39.1009 83.9826 40.357C82.9352 41.4726 81.6331 42.0305 80.0804 42.0305C78.4045 42.0305 77.2005 41.4302 76.4673 40.2285H76.4143V46.925H73.5887V33.2139C73.5887 31.8545 73.5529 30.4579 73.4826 29.0269H75.9701L76.1292 31.0436H76.1822C77.1236 29.5238 78.5556 28.7646 80.4742 28.7646C81.9752 28.7646 83.2282 29.3582 84.2306 30.544C85.2356 31.7312 85.7368 33.2921 85.7368 35.2279V35.2292ZM82.8569 35.3326C82.8569 34.095 82.5785 33.0748 82.019 32.2718C81.409 31.4344 80.5869 31.0157 79.558 31.0157C78.8606 31.0157 78.2268 31.2489 77.662 31.7087C77.0918 32.1725 76.7205 32.7793 76.5482 33.5293C76.4607 33.8791 76.4156 34.1653 76.4156 34.3905V36.5105C76.4156 37.4354 76.7007 38.2158 77.2682 38.8531C77.8357 39.4904 78.5729 39.8071 79.4798 39.8071C80.5445 39.8071 81.3732 39.3964 81.9659 38.5788C82.5599 37.7573 82.8569 36.6775 82.8569 35.3326ZM100.372 35.2292C100.372 37.3916 99.7864 39.1009 98.6156 40.357C97.5681 41.4726 96.2687 42.0305 94.7173 42.0305C93.04 42.0305 91.8361 41.4302 91.1042 40.2285H91.0512V46.925H88.2243V33.2139C88.2243 31.8545 88.1885 30.4579 88.1182 29.0269H90.6056L90.7648 31.0436H90.8178C91.7592 29.5238 93.1886 28.7646 95.1098 28.7646C96.6108 28.7646 97.8638 29.3582 98.8688 30.544C99.8699 31.7312 100.372 33.2921 100.372 35.2279V35.2292ZM97.4912 35.3326C97.4912 34.095 97.2127 33.0748 96.6519 32.2718C96.0419 31.4344 95.2225 31.0157 94.1923 31.0157C93.4969 31.0152 92.8238 31.2607 92.2922 31.7087C91.7247 32.1725 91.3548 32.7793 91.1811 33.5293C91.0936 33.8791 91.0485 34.1653 91.0485 34.3905V36.5105C91.0485 37.4354 91.3323 38.2158 91.8971 38.8531C92.4646 39.4891 93.2018 39.8071 94.1114 39.8071C95.1761 39.8071 96.0048 39.3964 96.5975 38.5788C97.1915 37.7573 97.4885 36.6775 97.4885 35.3326H97.4912ZM116.734 36.798C116.734 38.2979 116.212 39.5183 115.166 40.4603C114.016 41.4899 112.416 42.004 110.359 42.004C108.461 42.004 106.938 41.6396 105.785 40.9069L106.441 38.5523C107.682 39.3023 109.044 39.6786 110.528 39.6786C111.591 39.6786 112.42 39.4374 113.015 38.9578C113.608 38.4808 113.903 37.8355 113.903 37.0326C113.903 36.3171 113.66 35.7142 113.17 35.2253C112.684 34.735 111.871 34.2819 110.736 33.8605C107.646 32.7104 106.103 31.025 106.103 28.8056C106.103 27.3561 106.644 26.1689 107.727 25.2414C108.807 24.3165 110.247 23.8541 112.047 23.8541C113.652 23.8541 114.987 24.135 116.051 24.6928L115.345 26.9957C114.35 26.4564 113.226 26.1874 111.968 26.1874C110.973 26.1874 110.196 26.4312 109.639 26.9188C109.413 27.1185 109.233 27.3645 109.111 27.64C108.989 27.9156 108.928 28.2142 108.933 28.5155C108.933 29.2124 109.202 29.7875 109.741 30.2419C110.213 30.6606 111.067 31.1138 112.31 31.6027C113.828 32.2122 114.943 32.9277 115.66 33.7466C116.376 34.5628 116.734 35.5843 116.734 36.8033V36.798ZM126.079 31.1482H122.964V37.3227C122.964 38.8915 123.512 39.6759 124.613 39.6759C125.117 39.6759 125.537 39.6322 125.869 39.5434L125.946 41.6899C125.389 41.898 124.655 42.0026 123.747 42.0026C122.631 42.0026 121.758 41.6621 121.128 40.9824C120.501 40.3013 120.187 39.1592 120.187 37.5546V31.1456H118.331V29.0256H120.187V26.6989L122.962 25.8602V29.0269H126.078V31.1469L126.079 31.1482ZM140.137 35.2809C140.137 37.2353 139.58 38.8399 138.462 40.0946C137.292 41.3865 135.738 42.0291 133.8 42.0291C131.935 42.0291 130.448 41.4117 129.34 40.1741C128.231 38.9366 127.677 37.3744 127.677 35.4916C127.677 33.5213 128.247 31.9075 129.392 30.6527C130.532 29.3966 132.074 28.7685 134.011 28.7685C135.877 28.7685 137.379 29.3873 138.513 30.6262C139.597 31.828 140.138 33.3795 140.138 35.2809H140.137ZM137.207 35.3737C137.207 34.1997 136.955 33.194 136.447 32.3553C135.854 31.339 135.007 30.8316 133.909 30.8316C132.773 30.8316 131.91 31.3404 131.317 32.3553C130.809 33.194 130.558 34.2156 130.558 35.424C130.558 36.5966 130.81 37.6023 131.317 38.4397C131.927 39.4547 132.782 39.9608 133.884 39.9608C134.963 39.9608 135.81 39.4441 136.422 38.4132C136.943 37.5586 137.204 36.5423 137.204 35.371L137.207 35.3737ZM149.326 31.5126C149.047 31.4596 148.749 31.4331 148.437 31.4331C147.443 31.4331 146.674 31.8094 146.13 32.5594C145.661 33.2219 145.425 34.0606 145.425 35.0716V41.7416H142.601L142.627 33.0311C142.627 31.5656 142.59 30.2313 142.521 29.0296H144.982L145.085 31.4609H145.165C145.462 30.6262 145.934 29.9504 146.577 29.4469C147.166 29.0061 147.883 28.7672 148.619 28.7659C148.881 28.7659 149.117 28.7858 149.327 28.8189V31.5126H149.326ZM161.97 34.784C161.977 35.2135 161.942 35.6426 161.866 36.0653H153.386C153.419 37.3201 153.828 38.2807 154.616 38.9432C155.332 39.5355 156.255 39.831 157.39 39.831C158.646 39.831 159.79 39.6322 160.821 39.2307L161.264 41.1917C160.06 41.7151 158.639 41.9761 156.999 41.9761C155.026 41.9761 153.477 41.3958 152.35 40.2364C151.227 39.0757 150.663 37.5202 150.663 35.5658C150.663 33.6485 151.187 32.0519 152.236 30.7786C153.334 29.4191 154.818 28.7381 156.684 28.7381C158.517 28.7381 159.906 29.4191 160.848 30.7786C161.594 31.8584 161.97 33.194 161.97 34.7801V34.784ZM159.274 34.0513C159.293 33.2126 159.108 32.4878 158.725 31.8783C158.234 31.0926 157.483 30.6991 156.471 30.6991C155.547 30.6991 154.795 31.0833 154.221 31.8518C153.75 32.4613 153.47 33.1954 153.386 34.0487H159.273L159.274 34.0513ZM65.0365 13.2634C65.0365 14.8216 64.5684 15.9955 63.6337 16.7839C62.7678 17.5127 61.5387 17.8757 59.9436 17.8757C59.152 17.8757 58.4758 17.8426 57.9096 17.7737V9.25393C58.6482 9.13468 59.4437 9.0724 60.3029 9.0724C61.8224 9.0724 62.968 9.40365 63.7371 10.0622C64.6029 10.8082 65.0365 11.8748 65.0365 13.2634ZM63.5713 13.3005C63.5713 12.2895 63.3035 11.5144 62.7678 10.9738C62.2308 10.4345 61.4485 10.1655 60.4183 10.1655C59.9807 10.1655 59.6095 10.192 59.2992 10.2543V16.7309C59.4716 16.7574 59.7832 16.7707 60.238 16.7707C61.3014 16.7707 62.1208 16.4739 62.7002 15.8829C63.2796 15.292 63.5687 14.4307 63.5687 13.2992L63.5713 13.3005ZM72.8064 14.6242C72.8064 15.5848 72.5306 16.3732 71.9817 16.9893C71.4062 17.6253 70.6425 17.9406 69.6918 17.9406C68.7769 17.9406 68.045 17.6359 67.5001 17.0264C66.9564 16.4195 66.6846 15.6524 66.6846 14.7275C66.6846 13.7603 66.9631 12.9653 67.5266 12.3505C68.0901 11.7357 68.8445 11.4269 69.7966 11.4269C70.7114 11.4269 71.45 11.7317 72.0082 12.3385C72.5386 12.9308 72.8038 13.694 72.8038 14.6268L72.8064 14.6242ZM71.3638 14.6692C71.3638 14.0942 71.2392 13.5999 70.9925 13.1879C70.7008 12.6897 70.2845 12.4406 69.7462 12.4406C69.1866 12.4406 68.7623 12.6897 68.4706 13.1879C68.2214 13.5986 68.0994 14.1021 68.0994 14.6957C68.0994 15.2721 68.2227 15.7663 68.4706 16.1797C68.7716 16.6766 69.1906 16.9257 69.7303 16.9257C70.2606 16.9257 70.6783 16.6739 70.9766 16.1651C71.2352 15.7438 71.3638 15.2456 71.3638 14.6679V14.6692ZM83.2216 11.5541L81.2658 17.7989H79.9929L79.1841 15.0866C78.9818 14.423 78.8136 13.7494 78.6803 13.0686H78.6537C78.5343 13.7522 78.3668 14.4265 78.1525 15.0866L77.2907 17.7989H76.0045L74.1655 11.5541H75.5935L76.3002 14.5221C76.4726 15.2244 76.6118 15.8935 76.7245 16.5269H76.751C76.8531 16.0048 77.0242 15.3397 77.2655 14.5354L78.1539 11.5541H79.2849L80.1335 14.4718C80.3403 15.1833 80.5074 15.8683 80.6373 16.5282H80.6745C80.7673 15.8856 80.9105 15.2005 81.0988 14.4718L81.8572 11.5541H83.2229H83.2216ZM90.4253 17.7989H89.0358V14.2214C89.0358 13.119 88.6168 12.5678 87.7761 12.5678C87.5852 12.5622 87.3956 12.6002 87.2216 12.6789C87.0477 12.7577 86.894 12.8751 86.7724 13.0222C86.5165 13.327 86.3879 13.6847 86.3879 14.0928V17.7975H84.9956V13.3376C84.9946 12.741 84.9782 12.1446 84.9466 11.5488H86.1664L86.2327 12.5267H86.2725C86.4316 12.2219 86.6743 11.9728 86.9912 11.7714C87.3694 11.538 87.8062 11.4166 88.2508 11.4216C88.8342 11.4216 89.3195 11.6098 89.7053 11.9874C90.1853 12.4512 90.4253 13.1402 90.4253 14.0571V17.7975V17.7989ZM94.2572 17.7989H92.8677V8.68683H94.2572V17.7989ZM102.438 14.6242C102.438 15.5848 102.164 16.3732 101.616 16.9893C101.039 17.6253 100.277 17.9406 99.3249 17.9406C98.4061 17.9406 97.6755 17.6359 97.1318 17.0264C96.5882 16.4195 96.3164 15.6524 96.3164 14.7275C96.3164 13.7603 96.5975 12.9653 97.1597 12.3505C97.7219 11.7357 98.4777 11.4269 99.427 11.4269C100.347 11.4269 101.084 11.7317 101.641 12.3385C102.172 12.9308 102.44 13.694 102.44 14.6268L102.438 14.6242ZM100.996 14.6692C100.996 14.0942 100.871 13.5999 100.624 13.1879C100.333 12.6897 99.9163 12.4406 99.378 12.4406C98.8184 12.4406 98.3941 12.6897 98.1051 13.1879C97.8531 13.5986 97.7312 14.1021 97.7312 14.6957C97.7312 15.2721 97.8558 15.7663 98.1024 16.1797C98.4047 16.6766 98.8237 16.9257 99.3647 16.9257C99.8951 16.9257 100.31 16.6739 100.611 16.1651C100.868 15.7438 100.996 15.2456 100.996 14.6679V14.6692ZM109.163 17.7989H107.917L107.811 17.0794H107.774C107.347 17.6531 106.74 17.9406 105.948 17.9406C105.358 17.9406 104.881 17.7512 104.521 17.3749C104.36 17.2056 104.233 17.0061 104.149 16.7878C104.065 16.5695 104.025 16.3367 104.031 16.1029C104.031 15.3397 104.349 14.758 104.989 14.3539C105.628 13.9524 106.527 13.755 107.685 13.7642V13.6476C107.685 12.8261 107.253 12.4154 106.385 12.4154C105.809 12.4041 105.242 12.5646 104.757 12.8765L104.475 11.9649C105.056 11.6071 105.774 11.4256 106.619 11.4256C108.252 11.4256 109.072 12.2869 109.072 14.0094V16.3096C109.072 16.9323 109.102 17.4292 109.162 17.7975L109.163 17.7989ZM107.721 15.6524V14.6891C106.188 14.6626 105.422 15.0826 105.422 15.9478C105.422 16.2738 105.509 16.5176 105.687 16.6806C105.874 16.8457 106.117 16.9325 106.367 16.923C106.672 16.923 106.958 16.8263 107.218 16.6342C107.376 16.5236 107.504 16.3763 107.592 16.205C107.68 16.0336 107.724 15.8435 107.722 15.651L107.721 15.6524ZM117.059 17.7989H115.826L115.76 16.7958H115.723C115.329 17.559 114.658 17.9406 113.715 17.9406C112.962 17.9406 112.336 17.6452 111.838 17.0529C111.339 16.4606 111.093 15.6961 111.093 14.754C111.093 13.743 111.362 12.9255 111.901 12.2988C112.426 11.7158 113.068 11.4243 113.832 11.4243C114.673 11.4243 115.26 11.7065 115.595 12.2723H115.622V8.68683H117.011V16.1161C117.011 16.7256 117.027 17.2848 117.061 17.7989H117.059ZM115.621 15.1648V14.1233C115.634 13.8831 115.592 13.6431 115.498 13.4215C115.404 13.2 115.261 13.0027 115.08 12.8447C114.823 12.6182 114.491 12.4962 114.149 12.5028C113.632 12.5028 113.225 12.7082 112.926 13.1203C112.631 13.531 112.481 14.0584 112.481 14.701C112.481 15.3185 112.623 15.8193 112.908 16.2049C113.209 16.6156 113.614 16.8223 114.122 16.8223C114.578 16.8223 114.944 16.6501 115.22 16.3082C115.488 15.9902 115.618 15.61 115.618 15.1648H115.621ZM128.943 14.6242C128.943 15.5848 128.669 16.3732 128.121 16.9893C127.545 17.6253 126.782 17.9406 125.83 17.9406C124.915 17.9406 124.183 17.6359 123.637 17.0264C123.093 16.4195 122.822 15.6524 122.822 14.7275C122.822 13.7603 123.103 12.9653 123.665 12.3505C124.227 11.7357 124.983 11.4269 125.936 11.4269C126.851 11.4269 127.59 11.7317 128.147 12.3385C128.677 12.9308 128.942 13.694 128.942 14.6268L128.943 14.6242ZM127.504 14.6692C127.504 14.0942 127.379 13.5999 127.132 13.1879C126.838 12.6897 126.424 12.4406 125.883 12.4406C125.326 12.4406 124.902 12.6897 124.61 13.1879C124.358 13.5986 124.236 14.1021 124.236 14.6957C124.236 15.2721 124.361 15.7663 124.608 16.1797C124.91 16.6766 125.329 16.9257 125.87 16.9257C126.4 16.9257 126.818 16.6739 127.116 16.1651C127.374 15.7438 127.504 15.2456 127.504 14.6679V14.6692ZM136.415 17.7989H135.027V14.2214C135.027 13.119 134.608 12.5678 133.767 12.5678C133.354 12.5678 133.021 12.7188 132.763 13.0222C132.506 13.3257 132.376 13.6847 132.376 14.0928V17.7975H130.984V13.3376C130.984 12.789 130.971 12.1941 130.936 11.5488H132.156L132.222 12.5267H132.26C132.43 12.2165 132.678 11.9561 132.98 11.7714C133.357 11.5396 133.778 11.4216 134.239 11.4216C134.823 11.4216 135.308 11.6098 135.694 11.9874C136.175 12.4512 136.414 13.1402 136.414 14.0571V17.7975L136.415 17.7989ZM145.767 12.5929H144.237V15.6272C144.237 16.3983 144.509 16.7839 145.046 16.7839C145.297 16.7839 145.503 16.7627 145.666 16.7177L145.702 17.7724C145.427 17.8757 145.065 17.9274 144.623 17.9274C144.074 17.9274 143.647 17.7604 143.336 17.4265C143.027 17.0926 142.872 16.5308 142.872 15.7438V12.5916H141.96V11.5541H142.875V10.408L144.235 9.99725V11.5515H145.767V12.5929ZM153.123 17.7989H151.731V14.2479C151.731 13.1282 151.313 12.5678 150.474 12.5678C149.829 12.5678 149.389 12.8924 149.148 13.5416C149.108 13.6781 149.082 13.8464 149.082 14.0412V17.7975H147.695V8.68683H149.083V12.4498H149.109C149.547 11.7661 150.174 11.4243 150.987 11.4243C151.562 11.4243 152.038 11.6124 152.416 11.9901C152.888 12.4591 153.124 13.1587 153.124 14.0836V17.7975L153.123 17.7989ZM160.711 14.3804C160.711 14.6295 160.693 14.8388 160.658 15.0097H156.492C156.511 15.6272 156.71 16.0962 157.096 16.4235C157.448 16.715 157.904 16.8608 158.461 16.8608C159.036 16.8683 159.607 16.768 160.145 16.5653L160.363 17.5299C159.77 17.7869 159.072 17.9141 158.265 17.9141C157.297 17.9141 156.535 17.6306 155.984 17.0608C155.428 16.4911 155.154 15.7266 155.154 14.7686C155.154 13.8252 155.41 13.0408 155.926 12.4154C156.464 11.7476 157.192 11.4137 158.111 11.4137C159.01 11.4137 159.693 11.7476 160.153 12.4154C160.527 12.9454 160.71 13.6013 160.71 14.3804H160.711ZM159.385 14.0226C159.405 13.6477 159.311 13.2755 159.116 12.9547C158.875 12.5704 158.506 12.3756 158.01 12.3756C157.794 12.3719 157.58 12.4216 157.387 12.5203C157.194 12.619 157.028 12.7636 156.905 12.9414C156.669 13.2559 156.527 13.63 156.494 14.0213H159.384L159.385 14.0226Z" fill="white"/>
</svg>
