<svg width="28" height="28" viewBox="0 0 28 28" fill="none" xmlns="http://www.w3.org/2000/svg">
<path d="M17.4998 22.1668C17.4998 23.0951 17.131 23.9853 16.4746 24.6417C15.8183 25.2981 14.928 25.6668 13.9998 25.6668C13.0715 25.6668 12.1813 25.2981 11.5249 24.6417C10.8685 23.9853 10.4998 23.0951 10.4998 22.1668M14.8409 5.83702L13.1306 5.83352C9.22926 5.82418 5.84243 8.99402 5.8156 12.8335V17.2552C5.8156 18.1768 5.69893 19.0763 5.1961 19.8428L4.86126 20.3538C4.35143 21.1285 4.89976 22.1668 5.8156 22.1668H22.1839C23.0998 22.1668 23.6469 21.1285 23.1383 20.3538L22.8034 19.8428C22.3018 19.0763 22.1839 18.1757 22.1839 17.254V12.8347C22.1373 8.99402 18.7423 5.84635 14.8409 5.83702V5.83702Z" stroke="url(#paint0_linear_814_851)" stroke-width="2" stroke-linecap="round" stroke-linejoin="round"/>
<path d="M13.9993 2.3335C14.6182 2.3335 15.2117 2.57933 15.6493 3.01691C16.0868 3.4545 16.3327 4.04799 16.3327 4.66683V5.8335H11.666V4.66683C11.666 4.04799 11.9118 3.4545 12.3494 3.01691C12.787 2.57933 13.3805 2.3335 13.9993 2.3335Z" stroke="#42B3ED" stroke-width="2" stroke-linecap="round" stroke-linejoin="round"/>
<defs>
<linearGradient id="paint0_linear_814_851" x1="13.9995" y1="5.8335" x2="13.9995" y2="25.6668" gradientUnits="userSpaceOnUse">
<stop stop-color="#4AB8ED"/>
<stop offset="1" stop-color="#75D6E9"/>
</linearGradient>
</defs>
</svg>
