<svg width="28" height="28" viewBox="0 0 28 28" fill="none" xmlns="http://www.w3.org/2000/svg">
<path d="M17.4998 22.1664C17.4998 23.0946 17.131 23.9849 16.4746 24.6412C15.8183 25.2976 14.928 25.6664 13.9998 25.6664C13.0715 25.6664 12.1813 25.2976 11.5249 24.6412C10.8685 23.9849 10.4998 23.0946 10.4998 22.1664M14.8409 5.83653L13.1306 5.83303C9.22926 5.8237 5.84243 8.99353 5.8156 12.833V17.2547C5.8156 18.1764 5.69893 19.0759 5.1961 19.8424L4.86126 20.3534C4.35143 21.128 4.89976 22.1664 5.8156 22.1664H22.1839C23.0998 22.1664 23.6469 21.128 23.1383 20.3534L22.8034 19.8424C22.3018 19.0759 22.1839 18.1752 22.1839 17.2535V12.8342C22.1373 8.99353 18.7423 5.84586 14.8409 5.83653V5.83653Z" stroke="white" stroke-width="2" stroke-linecap="round" stroke-linejoin="round"/>
<path d="M13.9993 2.33301C14.6182 2.33301 15.2117 2.57884 15.6493 3.01643C16.0868 3.45401 16.3327 4.0475 16.3327 4.66634V5.83301H11.666V4.66634C11.666 4.0475 11.9118 3.45401 12.3494 3.01643C12.787 2.57884 13.3805 2.33301 13.9993 2.33301Z" stroke="white" stroke-width="2" stroke-linecap="round" stroke-linejoin="round"/>
</svg>
