<svg width="23" height="25" viewBox="0 0 23 25" fill="none" xmlns="http://www.w3.org/2000/svg">
<mask id="mask0_528_1048" style="mask-type:alpha" maskUnits="userSpaceOnUse" x="0" y="0" width="23" height="25">
<rect x="0.986755" y="0.538086" width="21.9524" height="24" fill="#D9D9D9"/>
</mask>
<g mask="url(#mask0_528_1048)">
<path d="M17.4508 6.53809C16.9477 6.53809 16.5169 6.34209 16.1583 5.95009C15.8004 5.55875 15.6214 5.08809 15.6214 4.53809C15.6214 3.98809 15.8004 3.51709 16.1583 3.12509C16.5169 2.73375 16.9477 2.53809 17.4508 2.53809C17.9538 2.53809 18.3847 2.73375 18.7432 3.12509C19.1012 3.51709 19.2801 3.98809 19.2801 4.53809C19.2801 5.08809 19.1012 5.55875 18.7432 5.95009C18.3847 6.34209 17.9538 6.53809 17.4508 6.53809ZM16.5361 22.5381V14.5381C16.5361 13.8714 16.38 13.2714 16.0678 12.7381C15.755 12.2048 15.3546 11.7881 14.8668 11.4881L15.6671 8.91309C15.7891 8.49642 16.0141 8.16309 16.3422 7.91309C16.6696 7.66309 17.0392 7.53809 17.4508 7.53809C17.8624 7.53809 18.2319 7.66309 18.5594 7.91309C18.8874 8.16309 19.1124 8.49642 19.2344 8.91309L21.5668 16.5381H19.2801V22.5381H16.5361ZM12.42 12.0381C12.0389 12.0381 11.7151 11.8921 11.4486 11.6001C11.1815 11.3088 11.048 10.9548 11.048 10.5381C11.048 10.1214 11.1815 9.76742 11.4486 9.47609C11.7151 9.18409 12.0389 9.03809 12.42 9.03809C12.8011 9.03809 13.1249 9.18409 13.3914 9.47609C13.6585 9.76742 13.792 10.1214 13.792 10.5381C13.792 10.9548 13.6585 11.3088 13.3914 11.6001C13.1249 11.8921 12.8011 12.0381 12.42 12.0381ZM6.01724 6.53809C5.51417 6.53809 5.08366 6.34209 4.72571 5.95009C4.36716 5.55875 4.18788 5.08809 4.18788 4.53809C4.18788 3.98809 4.36716 3.51709 4.72571 3.12509C5.08366 2.73375 5.51417 2.53809 6.01724 2.53809C6.52032 2.53809 6.95083 2.73375 7.30878 3.12509C7.66733 3.51709 7.84661 3.98809 7.84661 4.53809C7.84661 5.08809 7.66733 5.55875 7.30878 5.95009C6.95083 6.34209 6.52032 6.53809 6.01724 6.53809ZM4.18788 22.5381V15.5381H2.81586V9.53809C2.81586 8.98809 2.99513 8.51709 3.35369 8.12509C3.71164 7.73375 4.14215 7.53809 4.64522 7.53809H7.38927C7.89234 7.53809 8.32285 7.73375 8.6808 8.12509C9.03935 8.51709 9.21863 8.98809 9.21863 9.53809V15.5381H7.84661V22.5381H4.18788ZM11.048 22.5381V18.5381H10.1333V14.5381C10.1333 14.1214 10.2669 13.7674 10.5339 13.4761C10.8004 13.1841 11.1242 13.0381 11.5053 13.0381H13.3347C13.7158 13.0381 14.0396 13.1841 14.3061 13.4761C14.5732 13.7674 14.7067 14.1214 14.7067 14.5381V18.5381H13.792V22.5381H11.048Z" fill="url(#paint0_linear_528_1048)"/>
</g>
<defs>
<linearGradient id="paint0_linear_528_1048" x1="12.1913" y1="2.53809" x2="12.1913" y2="22.5381" gradientUnits="userSpaceOnUse">
<stop stop-color="#37ABEC"/>
<stop offset="1" stop-color="#64D3E2"/>
</linearGradient>
</defs>
</svg>
