<svg width="23" height="24" viewBox="0 0 23 24" fill="none" xmlns="http://www.w3.org/2000/svg">
<mask id="mask0_528_1042" style="mask-type:alpha" maskUnits="userSpaceOnUse" x="0" y="0" width="23" height="24">
<rect x="0.30542" width="21.9524" height="24" fill="#D9D9D9"/>
</mask>
<g mask="url(#mask0_528_1042)">
<path d="M7.78101 13.5H9.32163L13.4654 9.575L11.9513 8.15L7.78101 12.05V13.5ZM14.2357 8.85L14.9794 8.15C15.068 8.06667 15.1123 7.979 15.1123 7.887C15.1123 7.79567 15.068 7.70833 14.9794 7.625L14.0232 6.725C13.9347 6.64167 13.8419 6.6 13.7448 6.6C13.6471 6.6 13.5539 6.64167 13.4654 6.725L12.7216 7.425L14.2357 8.85ZM11.4998 19.35C13.6602 17.4833 15.2628 15.7873 16.3076 14.262C17.3524 12.7373 17.8748 11.3833 17.8748 10.2C17.8748 8.38333 17.2592 6.89567 16.0281 5.737C14.7978 4.579 13.2883 4 11.4998 4C9.71121 4 8.2014 4.579 6.97032 5.737C5.73994 6.89567 5.12476 8.38333 5.12476 10.2C5.12476 11.3833 5.64715 12.7373 6.69194 14.262C7.73673 15.7873 9.33934 17.4833 11.4998 19.35ZM11.4998 22C8.64871 19.7167 6.51946 17.5957 5.11201 15.637C3.70384 13.679 2.99976 11.8667 2.99976 10.2C2.99976 7.7 3.85436 5.70833 5.56357 4.225C7.27207 2.74167 9.2508 2 11.4998 2C13.7487 2 15.7274 2.74167 17.4359 4.225C19.1452 5.70833 19.9998 7.7 19.9998 10.2C19.9998 11.8667 19.296 13.679 17.8886 15.637C16.4804 17.5957 14.3508 19.7167 11.4998 22Z" fill="url(#paint0_linear_528_1042)"/>
</g>
<defs>
<linearGradient id="paint0_linear_528_1042" x1="11.4998" y1="2" x2="11.4998" y2="22" gradientUnits="userSpaceOnUse">
<stop stop-color="#3AADEC"/>
<stop offset="1" stop-color="#62D1E4"/>
</linearGradient>
</defs>
</svg>
