<svg width="40" height="41" viewBox="0 0 40 41" fill="none" xmlns="http://www.w3.org/2000/svg">
<path d="M23.0333 36.8151H16.9666C16.5865 36.8152 16.2178 36.6848 15.9216 36.4457C15.6255 36.2066 15.4196 35.873 15.3383 35.5003L14.66 32.3489C13.7551 31.951 12.897 31.4533 12.1016 30.8652L9.03997 31.8437C8.67757 31.9597 8.28655 31.9478 7.93184 31.81C7.57712 31.6721 7.28006 31.4167 7.08997 31.086L4.04997 25.8152C3.86188 25.4842 3.79127 25.099 3.84971 24.7225C3.90814 24.346 4.09215 24.0005 4.37164 23.7427L6.74664 21.5681C6.63863 20.583 6.63863 19.5891 6.74664 18.604L4.37164 16.4345C4.09176 16.1765 3.90749 15.8307 3.84905 15.4539C3.79061 15.077 3.86145 14.6914 4.04997 14.3603L7.0833 9.08613C7.27339 8.75546 7.57045 8.49999 7.92517 8.36215C8.27989 8.22431 8.67091 8.2124 9.0333 8.32838L12.095 9.30694C12.5016 9.00584 12.925 8.72482 13.3616 8.47057C13.7833 8.23304 14.2166 8.01725 14.66 7.82489L15.34 4.6768C15.4209 4.30411 15.6264 3.97038 15.9222 3.73094C16.2181 3.49151 16.5866 3.36075 16.9666 3.36035H23.0333C23.4134 3.36075 23.7819 3.49151 24.0777 3.73094C24.3736 3.97038 24.579 4.30411 24.66 4.6768L25.3466 7.82656C26.2504 8.22679 27.1082 8.72428 27.905 9.31028L30.9683 8.33173C31.3305 8.21617 31.7211 8.2283 32.0755 8.36612C32.4298 8.50394 32.7266 8.75916 32.9166 9.08948L35.95 14.3636C36.3366 15.0444 36.2033 15.9059 35.6283 16.4361L33.2533 18.6107C33.3613 19.5958 33.3613 20.5897 33.2533 21.5748L35.6283 23.7494C36.2033 24.2813 36.3366 25.1411 35.95 25.8219L32.9166 31.096C32.7265 31.4267 32.4295 31.6822 32.0748 31.82C31.7201 31.9578 31.329 31.9698 30.9666 31.8538L27.905 30.8752C27.1102 31.4629 26.2527 31.96 25.3483 32.3573L24.66 35.5003C24.5787 35.8727 24.3731 36.2061 24.0773 36.4452C23.7815 36.6843 23.4131 36.8148 23.0333 36.8151ZM19.9933 13.3968C18.2252 13.3968 16.5295 14.1017 15.2793 15.3565C14.029 16.6113 13.3266 18.3132 13.3266 20.0877C13.3266 21.8623 14.029 23.5642 15.2793 24.819C16.5295 26.0737 18.2252 26.7787 19.9933 26.7787C21.7614 26.7787 23.4571 26.0737 24.7073 24.819C25.9576 23.5642 26.66 21.8623 26.66 20.0877C26.66 18.3132 25.9576 16.6113 24.7073 15.3565C23.4571 14.1017 21.7614 13.3968 19.9933 13.3968Z" fill="white"/>
</svg>
