<svg width="44" height="40" viewBox="0 0 44 40" fill="none" xmlns="http://www.w3.org/2000/svg">
<g filter="url(#filter0_d_660_705)">
<mask id="mask0_660_705" style="mask-type:alpha" maskUnits="userSpaceOnUse" x="2" y="0" width="40" height="40">
<rect x="2" width="40" height="40" fill="#D9D9D9"/>
</mask>
<g mask="url(#mask0_660_705)">
<path d="M19.5 32.292V22.958L21.792 16.208C21.8753 16.0413 21.9863 15.9027 22.125 15.792C22.2637 15.6807 22.458 15.625 22.708 15.625H35C35.222 15.625 35.4093 15.6807 35.562 15.792C35.7153 15.9027 35.8197 16.0413 35.875 16.208L38.208 22.958V32.292C38.208 32.542 38.1317 32.7433 37.979 32.896C37.8263 33.0487 37.625 33.125 37.375 33.125H36.792C36.5693 33.125 36.3817 33.0487 36.229 32.896C36.0763 32.7433 36 32.542 36 32.292V30.292H21.708V32.292C21.708 32.542 21.6317 32.7433 21.479 32.896C21.3263 33.0487 21.139 33.125 20.917 33.125H20.292C20.0693 33.125 19.8817 33.0487 19.729 32.896C19.5763 32.7433 19.5 32.542 19.5 32.292ZM21.625 21.625H36.042L34.542 17.208H23.125L21.625 21.625ZM23.792 27.5C24.2087 27.5 24.5697 27.3473 24.875 27.042C25.1803 26.736 25.333 26.361 25.333 25.917C25.333 25.5003 25.1803 25.139 24.875 24.833C24.5697 24.5277 24.2087 24.375 23.792 24.375C23.3473 24.375 22.9723 24.5277 22.667 24.833C22.361 25.139 22.208 25.5003 22.208 25.917C22.208 26.361 22.361 26.736 22.667 27.042C22.9723 27.3473 23.3473 27.5 23.792 27.5ZM33.917 27.5C34.3337 27.5 34.6947 27.3473 35 27.042C35.3053 26.736 35.458 26.361 35.458 25.917C35.458 25.5003 35.3053 25.139 35 24.833C34.6947 24.5277 34.3337 24.375 33.917 24.375C33.4723 24.375 33.104 24.5277 32.812 24.833C32.5207 25.139 32.375 25.5003 32.375 25.917C32.375 26.361 32.5207 26.736 32.812 27.042C33.104 27.3473 33.4723 27.5 33.917 27.5ZM9.20799 32.917V32.208L11.792 29.625C10.236 29.625 8.84699 29.2153 7.62499 28.396C6.40299 27.5767 5.79199 26.4447 5.79199 25V11.083C5.79199 9.58301 6.56966 8.54134 8.12499 7.95801C9.68033 7.37467 12.361 7.08301 16.167 7.08301C19.861 7.08301 22.5137 7.38867 24.125 8.00001C25.7363 8.61134 26.542 9.63901 26.542 11.083V13.542H24.458V10.833H7.87499V22.25H17.375V32.917H9.20799ZM10.208 26.542C10.6247 26.542 10.986 26.389 11.292 26.083C11.5973 25.7777 11.75 25.4167 11.75 25C11.75 24.5553 11.5973 24.1803 11.292 23.875C10.986 23.5697 10.6247 23.417 10.208 23.417C9.76399 23.417 9.39599 23.5697 9.10399 23.875C8.81266 24.1803 8.66699 24.5553 8.66699 25C8.66699 25.4167 8.81266 25.7777 9.10399 26.083C9.39599 26.389 9.76399 26.542 10.208 26.542ZM21.083 28.708H36.625V23.208H21.083V28.708Z" fill="url(#paint0_linear_660_705)"/>
</g>
</g>
<path d="M19.708 32.209V22.875L22 16.125C22.0833 15.9583 22.1943 15.8197 22.333 15.709C22.4717 15.5977 22.666 15.542 22.916 15.542H35.208C35.43 15.542 35.6173 15.5977 35.77 15.709C35.9233 15.8197 36.0277 15.9583 36.083 16.125L38.416 22.875V32.209C38.416 32.459 38.3397 32.6603 38.187 32.813C38.0343 32.9657 37.833 33.042 37.583 33.042H37C36.7773 33.042 36.5897 32.9657 36.437 32.813C36.2843 32.6603 36.208 32.459 36.208 32.209V30.209H21.916V32.209C21.916 32.459 21.8397 32.6603 21.687 32.813C21.5343 32.9657 21.347 33.042 21.125 33.042H20.5C20.2773 33.042 20.0897 32.9657 19.937 32.813C19.7843 32.6603 19.708 32.459 19.708 32.209ZM21.833 21.542H36.25L34.75 17.125H23.333L21.833 21.542ZM24 27.417C24.4167 27.417 24.7777 27.2643 25.083 26.959C25.3883 26.653 25.541 26.278 25.541 25.834C25.541 25.4173 25.3883 25.056 25.083 24.75C24.7777 24.4447 24.4167 24.292 24 24.292C23.5553 24.292 23.1803 24.4447 22.875 24.75C22.569 25.056 22.416 25.4173 22.416 25.834C22.416 26.278 22.569 26.653 22.875 26.959C23.1803 27.2643 23.5553 27.417 24 27.417ZM34.125 27.417C34.5417 27.417 34.9027 27.2643 35.208 26.959C35.5133 26.653 35.666 26.278 35.666 25.834C35.666 25.4173 35.5133 25.056 35.208 24.75C34.9027 24.4447 34.5417 24.292 34.125 24.292C33.6803 24.292 33.312 24.4447 33.02 24.75C32.7287 25.056 32.583 25.4173 32.583 25.834C32.583 26.278 32.7287 26.653 33.02 26.959C33.312 27.2643 33.6803 27.417 34.125 27.417ZM9.416 32.834V32.125L12 29.542C10.444 29.542 9.055 29.1323 7.833 28.313C6.611 27.4937 6 26.3617 6 24.917V11C6 9.5 6.77767 8.45833 8.333 7.875C9.88833 7.29167 12.569 7 16.375 7C20.069 7 22.7217 7.30567 24.333 7.917C25.9443 8.52833 26.75 9.556 26.75 11V13.459H24.666V10.75H8.083V22.167H17.583V32.834H9.416ZM10.416 26.459C10.8327 26.459 11.194 26.306 11.5 26C11.8053 25.6947 11.958 25.3337 11.958 24.917C11.958 24.4723 11.8053 24.0973 11.5 23.792C11.194 23.4867 10.8327 23.334 10.416 23.334C9.972 23.334 9.604 23.4867 9.312 23.792C9.02067 24.0973 8.875 24.4723 8.875 24.917C8.875 25.3337 9.02067 25.6947 9.312 26C9.604 26.306 9.972 26.459 10.416 26.459ZM21.291 28.625H36.833V23.125H21.291V28.625Z" fill="white"/>
<defs>
<filter id="filter0_d_660_705" x="-3" y="-6" width="50" height="50" filterUnits="userSpaceOnUse" color-interpolation-filters="sRGB">
<feFlood flood-opacity="0" result="BackgroundImageFix"/>
<feColorMatrix in="SourceAlpha" type="matrix" values="0 0 0 0 0 0 0 0 0 0 0 0 0 0 0 0 0 0 127 0" result="hardAlpha"/>
<feOffset dy="-1"/>
<feGaussianBlur stdDeviation="2.5"/>
<feComposite in2="hardAlpha" operator="out"/>
<feColorMatrix type="matrix" values="0 0 0 0 1 0 0 0 0 1 0 0 0 0 1 0 0 0 0.25 0"/>
<feBlend mode="normal" in2="BackgroundImageFix" result="effect1_dropShadow_660_705"/>
<feBlend mode="normal" in="SourceGraphic" in2="effect1_dropShadow_660_705" result="shape"/>
</filter>
<linearGradient id="paint0_linear_660_705" x1="22" y1="7.08301" x2="22" y2="33.125" gradientUnits="userSpaceOnUse">
<stop stop-color="white"/>
<stop offset="1" stop-color="#62D1E4"/>
</linearGradient>
</defs>
</svg>
