<svg width="44" height="41" viewBox="0 0 44 41" fill="none" xmlns="http://www.w3.org/2000/svg">
<g filter="url(#filter0_d_660_854)">
<mask id="mask0_660_854" style="mask-type:alpha" maskUnits="userSpaceOnUse" x="2" y="0" width="40" height="41">
<rect x="2" y="0.0146484" width="40" height="40.1457" fill="#D9D9D9"/>
</mask>
<g mask="url(#mask0_660_854)">
<path d="M19.5 32.4244V23.0564L21.792 16.2818C21.8753 16.1145 21.9863 15.9753 22.125 15.8643C22.2637 15.7525 22.458 15.6967 22.708 15.6967H35C35.222 15.6967 35.4093 15.7525 35.562 15.8643C35.7153 15.9753 35.8197 16.1145 35.875 16.2818L38.208 23.0564V32.4244C38.208 32.6753 38.1317 32.8773 37.979 33.0306C37.8263 33.1838 37.625 33.2604 37.375 33.2604H36.792C36.5693 33.2604 36.3817 33.1838 36.229 33.0306C36.0763 32.8773 36 32.6753 36 32.4244V30.4171H21.708V32.4244C21.708 32.6753 21.6317 32.8773 21.479 33.0306C21.3263 33.1838 21.139 33.2604 20.917 33.2604H20.292C20.0693 33.2604 19.8817 33.1838 19.729 33.0306C19.5763 32.8773 19.5 32.6753 19.5 32.4244ZM21.625 21.7185H36.042L34.542 17.2854H23.125L21.625 21.7185ZM23.792 27.6149C24.2087 27.6149 24.5697 27.4617 24.875 27.1552C25.1803 26.8481 25.333 26.4718 25.333 26.0261C25.333 25.608 25.1803 25.2453 24.875 24.9382C24.5697 24.6318 24.2087 24.4785 23.792 24.4785C23.3473 24.4785 22.9723 24.6318 22.667 24.9382C22.361 25.2453 22.208 25.608 22.208 26.0261C22.208 26.4718 22.361 26.8481 22.667 27.1552C22.9723 27.4617 23.3473 27.6149 23.792 27.6149ZM33.917 27.6149C34.3337 27.6149 34.6947 27.4617 35 27.1552C35.3053 26.8481 35.458 26.4718 35.458 26.0261C35.458 25.608 35.3053 25.2453 35 24.9382C34.6947 24.6318 34.3337 24.4785 33.917 24.4785C33.4723 24.4785 33.104 24.6318 32.812 24.9382C32.5207 25.2453 32.375 25.608 32.375 26.0261C32.375 26.4718 32.5207 26.8481 32.812 27.1552C33.104 27.4617 33.4723 27.6149 33.917 27.6149ZM9.20799 33.0516V32.3401L11.792 29.7477C10.236 29.7477 8.84699 29.3365 7.62499 28.5142C6.40299 27.6919 5.79199 26.5557 5.79199 25.1058V11.1381C5.79199 9.63264 6.56966 8.58718 8.12499 8.00172C9.68033 7.41626 12.361 7.12354 16.167 7.12354C19.861 7.12354 22.5137 7.43032 24.125 8.04388C25.7363 8.65744 26.542 9.68885 26.542 11.1381V13.6061H24.458V10.8872H7.87499V22.3458H17.375V33.0516H9.20799ZM10.208 26.6534C10.6247 26.6534 10.986 26.4999 11.292 26.1928C11.5973 25.8863 11.75 25.524 11.75 25.1058C11.75 24.6595 11.5973 24.2832 11.292 23.9767C10.986 23.6703 10.6247 23.517 10.208 23.517C9.76399 23.517 9.39599 23.6703 9.10399 23.9767C8.81266 24.2832 8.66699 24.6595 8.66699 25.1058C8.66699 25.524 8.81266 25.8863 9.10399 26.1928C9.39599 26.4999 9.76399 26.6534 10.208 26.6534ZM21.083 28.8273H36.625V23.3073H21.083V28.8273Z" fill="url(#paint0_linear_660_854)"/>
</g>
</g>
<path d="M19.708 32.3409V22.9729L22 16.1983C22.0833 16.031 22.1943 15.8918 22.333 15.7808C22.4717 15.669 22.666 15.6132 22.916 15.6132H35.208C35.43 15.6132 35.6173 15.669 35.77 15.7808C35.9233 15.8918 36.0277 16.031 36.083 16.1983L38.416 22.9729V32.3409C38.416 32.5918 38.3397 32.7939 38.187 32.9471C38.0343 33.1003 37.833 33.1769 37.583 33.1769H37C36.7773 33.1769 36.5897 33.1003 36.437 32.9471C36.2843 32.7939 36.208 32.5918 36.208 32.3409V30.3336H21.916V32.3409C21.916 32.5918 21.8397 32.7939 21.687 32.9471C21.5343 33.1003 21.347 33.1769 21.125 33.1769H20.5C20.2773 33.1769 20.0897 33.1003 19.937 32.9471C19.7843 32.7939 19.708 32.5918 19.708 32.3409ZM21.833 21.635H36.25L34.75 17.2019H23.333L21.833 21.635ZM24 27.5314C24.4167 27.5314 24.7777 27.3782 25.083 27.0718C25.3883 26.7646 25.541 26.3883 25.541 25.9427C25.541 25.5245 25.3883 25.1618 25.083 24.8547C24.7777 24.5483 24.4167 24.395 24 24.395C23.5553 24.395 23.1803 24.5483 22.875 24.8547C22.569 25.1618 22.416 25.5245 22.416 25.9427C22.416 26.3883 22.569 26.7646 22.875 27.0718C23.1803 27.3782 23.5553 27.5314 24 27.5314ZM34.125 27.5314C34.5417 27.5314 34.9027 27.3782 35.208 27.0718C35.5133 26.7646 35.666 26.3883 35.666 25.9427C35.666 25.5245 35.5133 25.1618 35.208 24.8547C34.9027 24.5483 34.5417 24.395 34.125 24.395C33.6803 24.395 33.312 24.5483 33.02 24.8547C32.7287 25.1618 32.583 25.5245 32.583 25.9427C32.583 26.3883 32.7287 26.7646 33.02 27.0718C33.312 27.3782 33.6803 27.5314 34.125 27.5314ZM9.416 32.9682V32.2566L12 29.6642C10.444 29.6642 9.055 29.253 7.833 28.4307C6.611 27.6084 6 26.4722 6 25.0223V11.0546C6 9.54915 6.77767 8.50369 8.333 7.91823C9.88833 7.33277 12.569 7.04004 16.375 7.04004C20.069 7.04004 22.7217 7.34682 24.333 7.96038C25.9443 8.57394 26.75 9.60535 26.75 11.0546V13.5226H24.666V10.8037H8.083V22.2623H17.583V32.9682H9.416ZM10.416 26.5699C10.8327 26.5699 11.194 26.4164 11.5 26.1093C11.8053 25.8028 11.958 25.4405 11.958 25.0223C11.958 24.576 11.8053 24.1997 11.5 23.8932C11.194 23.5868 10.8327 23.4335 10.416 23.4335C9.972 23.4335 9.604 23.5868 9.312 23.8932C9.02067 24.1997 8.875 24.576 8.875 25.0223C8.875 25.4405 9.02067 25.8028 9.312 26.1093C9.604 26.4164 9.972 26.5699 10.416 26.5699ZM21.291 28.7438H36.833V23.2238H21.291V28.7438Z" fill="url(#paint1_linear_660_854)"/>
<defs>
<filter id="filter0_d_660_854" x="-3" y="-5.98535" width="50" height="50.1455" filterUnits="userSpaceOnUse" color-interpolation-filters="sRGB">
<feFlood flood-opacity="0" result="BackgroundImageFix"/>
<feColorMatrix in="SourceAlpha" type="matrix" values="0 0 0 0 0 0 0 0 0 0 0 0 0 0 0 0 0 0 127 0" result="hardAlpha"/>
<feOffset dy="-1"/>
<feGaussianBlur stdDeviation="2.5"/>
<feComposite in2="hardAlpha" operator="out"/>
<feColorMatrix type="matrix" values="0 0 0 0 1 0 0 0 0 1 0 0 0 0 1 0 0 0 0.25 0"/>
<feBlend mode="normal" in2="BackgroundImageFix" result="effect1_dropShadow_660_854"/>
<feBlend mode="normal" in="SourceGraphic" in2="effect1_dropShadow_660_854" result="shape"/>
</filter>
<linearGradient id="paint0_linear_660_854" x1="22" y1="7.12354" x2="22" y2="33.2604" gradientUnits="userSpaceOnUse">
<stop stop-color="white"/>
<stop offset="1" stop-color="#62D1E4"/>
</linearGradient>
<linearGradient id="paint1_linear_660_854" x1="22.208" y1="7.04004" x2="22.208" y2="33.1769" gradientUnits="userSpaceOnUse">
<stop stop-color="#61D0E7" stop-opacity="0"/>
<stop offset="0.0001" stop-color="#41B4ED"/>
<stop offset="1" stop-color="#61D0E7"/>
</linearGradient>
</defs>
</svg>
